<?xml version="1.0"?>
<svg xmlns="http://www.w3.org/2000/svg" xmlns:xlink="http://www.w3.org/1999/xlink" xmlns:svgjs="http://svgjs.com/svgjs" version="1.1" width="512" height="512" x="0" y="0" viewBox="0 0 511.99913 511" style="enable-background:new 0 0 512 512" xml:space="preserve" class=""><g><path xmlns="http://www.w3.org/2000/svg" d="m511.773438 226.28125c-1.046876-9.144531-5.585938-17.332031-12.789063-23.058594-7.203125-5.726562-16.203125-8.308594-25.347656-7.261718-2.839844.328124-5.59375.992187-8.207031 1.964843l-43.464844-35.9375c4.183594-5.703125 6.664062-12.730469 6.664062-20.332031 0-11.929688-6.097656-22.460938-15.339844-28.644531l25.421876-44.164063c1.976562.351563 4.007812.546875 6.085937.546875 18.996094 0 34.449219-15.453125 34.449219-34.445312 0-18.996094-15.453125-34.449219-34.449219-34.449219s-34.449219 15.453125-34.449219 34.449219c0 9.714843 4.050782 18.496093 10.542969 24.765625l-27.347656 47.511718c-17.542969.320313-31.921875 13.808594-33.636719 30.980469l-63.988281 12.511719c-5.660157-11.289062-17.339844-19.0625-30.804688-19.0625-18.996093 0-34.449219 15.453125-34.449219 34.449219 0 6.835937 2.011719 13.210937 5.460938 18.574219l-31.519531 38.136718c-3.519531 4.257813-2.917969 10.5625 1.339843 14.078125 1.863282 1.542969 4.121094 2.292969 6.363282 2.292969 2.878906 0 5.734375-1.234375 7.714844-3.628906l31.3125-37.890625c4.222656 1.847656 8.878906 2.882812 13.777343 2.882812 17.523438 0 32.023438-13.15625 34.164063-30.109375l64.5-12.613281c5.804687 10.863281 17.253906 18.277344 30.40625 18.277344 3.917968 0 7.683594-.667969 11.195312-1.878907l43.894532 36.292969c-4.800782 6.878907-6.910157 15.164063-5.949219 23.574219 1.042969 9.144531 5.582031 17.332031 12.785156 23.058594 6.15625 4.894531 13.621094 7.488281 21.371094 7.488281 1.316406 0 2.644531-.074219 3.976562-.226563 9.140625-1.046874 17.328125-5.585937 23.054688-12.789062 5.726562-7.203125 8.304687-16.203125 7.261719-25.34375zm-66.976563-205.78125c7.96875 0 14.449219 6.480469 14.449219 14.449219 0 7.964843-6.480469 14.445312-14.449219 14.445312-7.964844 0-14.445313-6.480469-14.445313-14.445312 0-7.96875 6.480469-14.449219 14.445313-14.449219zm-179.683594 160.050781c-7.964843 0-14.449219-6.480469-14.449219-14.445312 0-7.96875 6.484376-14.449219 14.449219-14.449219 7.964844 0 14.445313 6.480469 14.445313 14.449219 0 7.964843-6.480469 14.445312-14.445313 14.445312zm114.621094-38.894531c0-7.964844 6.480469-14.449219 14.449219-14.449219 7.964844 0 14.445312 6.480469 14.445312 14.449219 0 7.964844-6.480468 14.449219-14.445312 14.449219-7.96875 0-14.449219-6.484375-14.449219-14.449219zm109.121094 97.523438c-3.703125 4.660156-10.089844 6.601562-15.761719 4.757812-5.691406-1.84375-9.714844-7.15625-9.980469-13.125-.277343-6.109375 3.503907-11.902344 9.210938-14.101562 5.726562-2.207032 12.371093-.488282 16.3125 4.210937 4.355469 5.1875 4.429687 12.960937.21875 18.257813zm0 0" fill="#ffffff" data-original="#000000" style="" class=""/><path xmlns="http://www.w3.org/2000/svg" d="m149.839844 273.851562c-18.992188 0-34.445313 15.453126-34.445313 34.449219 0 11.195313 5.371094 21.15625 13.667969 27.453125l-10.691406 38.269532c-1.003906-.089844-2.015625-.140626-3.039063-.140626-7.644531 0-14.710937 2.503907-20.433593 6.734376l-28.976563-27.097657c1.90625-4.277343 2.972656-9.003906 2.972656-13.976562 0-18.996094-15.453125-34.449219-34.445312-34.449219-18.996094 0-34.449219 15.453125-34.449219 34.449219 0 18.996093 15.453125 34.449219 34.449219 34.449219 6.753906 0 13.054687-1.960938 18.378906-5.335938l30.058594 28.109375c-1.292969 3.617187-2.003907 7.507813-2.003907 11.566406 0 18.992188 15.457032 34.445313 34.449219 34.445313 18.996094 0 34.449219-15.453125 34.449219-34.445313 0-10.78125-4.980469-20.417969-12.757812-26.738281l10.867187-38.902344c.648437.035156 1.296875.058594 1.953125.058594 18.992188 0 34.445312-15.453125 34.445312-34.449219 0-18.996093-15.453124-34.449219-34.449218-34.449219zm-129.839844 65.691407c0-7.964844 6.480469-14.449219 14.449219-14.449219 7.964843 0 14.445312 6.484375 14.445312 14.449219 0 7.96875-6.480469 14.449219-14.445312 14.449219-7.96875 0-14.449219-6.484376-14.449219-14.449219zm95.332031 83.234375c-7.964843 0-14.449219-6.480469-14.449219-14.445313 0-7.96875 6.484376-14.449219 14.449219-14.449219 7.964844 0 14.449219 6.480469 14.449219 14.449219 0 7.964844-6.480469 14.445313-14.449219 14.445313zm34.507813-100.027344c-7.964844 0-14.445313-6.480469-14.445313-14.449219s6.480469-14.449219 14.445313-14.449219c7.96875 0 14.449218 6.480469 14.449218 14.449219s-6.480468 14.449219-14.449218 14.449219zm0 0" fill="#ffffff" data-original="#000000" style="" class=""/><path xmlns="http://www.w3.org/2000/svg" d="m305.164062 298.300781h-10.851562v-10.851562c0-5.519531-4.476562-10-10-10-5.519531 0-10 4.480469-10 10v10.851562h-10.847656c-5.523438 0-10 4.476563-10 10 0 5.523438 4.476562 10 10 10h10.847656v10.851563c0 5.519531 4.480469 10 10 10 5.523438 0 10-4.480469 10-10v-10.851563h10.851562c5.523438 0 10-4.476562 10-10 0-5.523437-4.476562-10-10-10zm0 0" fill="#ffffff" data-original="#000000" style="" class=""/><path xmlns="http://www.w3.org/2000/svg" d="m300.257812 70.851562h4.757813v4.757813c0 5.523437 4.476563 10 10 10 5.519531 0 10-4.476563 10-10v-4.757813h4.753906c5.523438 0 10-4.476562 10-10 0-5.519531-4.476562-10-10-10h-4.753906v-4.753906c0-5.523437-4.480469-10-10-10-5.523437 0-10 4.476563-10 10v4.753906h-4.757813c-5.523437 0-10 4.480469-10 10 0 5.523438 4.476563 10 10 10zm0 0" fill="#ffffff" data-original="#000000" style="" class=""/><path xmlns="http://www.w3.org/2000/svg" d="m66.6875 200.550781h10.851562v10.851563c0 5.523437 4.476563 10 10 10 5.523438 0 10-4.476563 10-10v-10.851563h10.847657c5.523437 0 10-4.476562 10-10 0-5.523437-4.476563-10-10-10h-10.847657v-10.847656c0-5.523437-4.476562-10-10-10-5.523437 0-10 4.476563-10 10v10.847656h-10.851562c-5.523438 0-10 4.476563-10 10 0 5.523438 4.476562 10 10 10zm0 0" fill="#ffffff" data-original="#000000" style="" class=""/><path xmlns="http://www.w3.org/2000/svg" d="m198.597656 254.316406c-2.0625-5.027344-8.042968-7.488281-13.058594-5.410156-5.207031 2.164062-7.605468 8.414062-5.199218 13.503906 2.328125 4.929688 8.367187 7.082032 13.292968 4.757813 4.75-2.238281 6.988282-7.992188 4.964844-12.851563zm0 0" fill="#ffffff" data-original="#000000" style="" class=""/></g></svg>
