<?xml version="1.0" encoding="iso-8859-1"?>
<!-- Generator: Adobe Illustrator 19.0.0, SVG Export Plug-In . SVG Version: 6.00 Build 0)  -->
<svg version="1.1" id="Layer_1" xmlns="http://www.w3.org/2000/svg" xmlns:xlink="http://www.w3.org/1999/xlink" x="0px" y="0px"
	 viewBox="0 0 512 512" style="enable-background:new 0 0 512 512;" xml:space="preserve">
<g>
	<path style="fill:#B440A1;" d="M433.533,177.949c15.292,82.557-30.504,171.213-112.993,191.238c0,0,97.06-119.041,74.843-211.391
		S221.496,1.309,199.901,0.273c29.139-1.388,58.55,2.48,86.71,12.39c45.921,16.828,84.173,42.849,113.255,84.173
		C418.23,122.858,427.412,147.343,433.533,177.949z"/>
	<path style="fill:#B440A1;" d="M177.949,78.467c82.557-15.292,171.213,30.504,191.238,112.993c0,0-119.041-97.059-211.391-74.843
		S1.309,290.504,0.273,312.099c-1.388-29.139,2.48-58.55,12.39-86.71c16.828-45.921,42.849-84.173,84.173-113.255
		C122.858,93.77,147.343,84.588,177.949,78.467z"/>
	<path style="fill:#B440A1;" d="M78.467,334.051c-15.292-82.557,30.504-171.213,112.993-191.238c0,0-97.059,119.041-74.843,211.39
		s173.887,156.488,195.482,157.523c-29.139,1.388-58.55-2.48-86.71-12.39c-45.921-16.828-84.173-42.849-113.255-84.173
		C93.77,389.141,84.588,364.658,78.467,334.051z"/>
	<path style="fill:#B440A1;" d="M334.051,433.533c-82.557,15.292-171.213-30.504-191.238-112.993c0,0,119.041,97.06,211.39,74.843
		s156.488-173.887,157.523-195.482c1.388,29.139-2.48,58.55-12.39,86.71c-16.828,45.921-42.849,84.173-84.173,113.255
		C389.141,418.23,364.658,427.412,334.051,433.533z"/>
</g>
<path style="fill:#FF2796;" d="M334.051,410.777c30.606-6.121,55.091-15.303,81.112-33.667
	c41.324-29.082,67.345-67.334,84.173-113.255c7.339-20.844,11.355-42.36,12.39-63.955c-2.685-56.366-25.043-111.719-61.361-155.102
	c47.445,78.063,55.091,179.064-1.536,257.116c-4.585,6.121-9.182,10.718-13.767,16.839c-30.572,30.572-70.326,53.521-114.665,50.517
	c66.375-30.249,104.038-117.618,90.38-191.322c-6.121-30.606-15.303-55.091-33.667-81.112
	c-29.082-41.324-67.334-67.345-113.255-84.173c-20.844-7.339-42.36-11.355-63.955-12.39C143.536,2.958,88.183,25.316,44.799,61.634
	c78.063-47.445,179.064-55.091,257.116,1.536c6.121,4.585,10.718,9.182,16.839,13.767c30.572,30.572,53.521,70.326,50.517,114.665
	c-30.216-66.424-117.59-104.043-191.322-90.381c-30.606,6.121-55.091,15.303-81.112,33.667
	c-41.324,29.082-67.345,67.334-84.173,113.255c-7.339,20.844-11.355,42.36-12.39,63.955c2.685,56.366,25.043,111.719,61.36,155.102
	C14.188,389.137,6.542,288.136,63.17,210.084c4.585-6.121,9.182-10.718,13.767-16.839c30.572-30.572,70.326-53.521,114.665-50.517
	c-66.359,30.26-104.036,117.628-90.38,191.322c6.121,30.606,15.303,55.091,33.667,81.112
	c29.082,41.324,67.334,67.345,113.255,84.173c20.844,7.339,42.36,11.355,63.955,12.39c56.366-2.685,111.719-25.043,155.102-61.36
	c-78.063,47.445-179.064,55.091-257.116-1.536c-6.121-4.585-10.718-9.182-16.839-13.767
	c-30.572-30.572-53.521-70.326-50.517-114.665C172.937,386.833,260.312,424.442,334.051,410.777z"/>
<path style="fill:#FCD999;" d="M257.137,223.004v68.267c37.706,0,68.267-15.28,68.267-34.133S294.843,223.004,257.137,223.004z"/>
<path style="fill:#FFFFFF;" d="M257.137,223.004c18.853,0,34.133,15.28,34.133,34.133s-15.28,34.133-34.133,34.133
	c-37.706,0-68.267-15.28-68.267-34.133S219.431,223.004,257.137,223.004z"/>
<g>
	<circle style="fill:#FB7A5B;" cx="11.803" cy="28.638" r="8.533"/>
	<circle style="fill:#FB7A5B;" cx="45.932" cy="103.731" r="8.533"/>
	<circle style="fill:#FB7A5B;" cx="92.159" cy="470.472" r="8.533"/>
	<circle style="fill:#FB7A5B;" cx="501.329" cy="416.234" r="8.533"/>
	<circle style="fill:#FB7A5B;" cx="501.329" cy="382.101" r="8.533"/>
	<circle style="fill:#FB7A5B;" cx="257.138" cy="325.405" r="8.533"/>
	<circle style="fill:#FB7A5B;" cx="257.138" cy="188.872" r="8.533"/>
</g>
<g>
	<circle style="fill:#FFFFFF;" cx="257.138" cy="154.738" r="8.533"/>
	<circle style="fill:#FFFFFF;" cx="291.272" cy="188.872" r="8.533"/>
</g>
<circle style="fill:#FB7A5B;" cx="154.738" cy="257.138" r="8.533"/>
<g>
	<circle style="fill:#FFFFFF;" cx="359.539" cy="234.383" r="8.533"/>
	<circle style="fill:#FFFFFF;" cx="223.005" cy="348.161" r="8.533"/>
</g>
<circle style="fill:#FB7A5B;" cx="417.372" cy="11.803" r="8.533"/>
<g>
</g>
<g>
</g>
<g>
</g>
<g>
</g>
<g>
</g>
<g>
</g>
<g>
</g>
<g>
</g>
<g>
</g>
<g>
</g>
<g>
</g>
<g>
</g>
<g>
</g>
<g>
</g>
<g>
</g>
</svg>
