<?xml version="1.0" encoding="iso-8859-1"?>
<!-- Generator: Adobe Illustrator 19.0.0, SVG Export Plug-In . SVG Version: 6.00 Build 0)  -->
<svg version="1.1" id="Layer_1" xmlns="http://www.w3.org/2000/svg" xmlns:xlink="http://www.w3.org/1999/xlink" x="0px"
	y="0px" viewBox="0 0 512 512" style="enable-background:new 0 0 512 512;" xml:space="preserve">
	<path style="fill:#E6E9ED;" d="M386.458,55.497h-9.613c-18.333,0-33.193,30.496-33.193,48.826v49.507v133.803l76,66.982V164.429
	v-27.455v-32.649C419.651,85.994,404.788,55.497,386.458,55.497z" />
	<path style="fill:#CCD4DD;"
		d="M367.025,167.768v-27.455v-32.649c0-17.368,13.344-45.637,30.338-48.562
	c-3.417-2.264-7.085-3.603-10.906-3.603h-9.613c-18.333,0-33.193,30.496-33.193,48.826v49.507v133.803l23.374,20.6V167.768z" />
	<g>
		<path style="fill:#E6E9ED;" d="M139.223,55.497h-9.616c-18.331,0-33.193,30.496-33.193,48.826v49.507v198.181l76-66.979V123.277
		v-18.953C172.414,85.994,157.554,55.497,139.223,55.497z" />
		<path style="fill:#E6E9ED;" d="M96.414,444.498v5.997c0,12.383,10.04,22.421,22.422,22.421h53.579v-28.417v-15.879H96.414V444.498z
		" />
	</g>
	<g>
		<path style="fill:#CCD4DD;" d="M118.675,158.284v-49.507c0-18.163,14.595-48.254,32.696-48.8
		c-3.764-2.794-7.859-4.478-12.148-4.478h-9.616c-18.331,0-33.193,30.496-33.193,48.826v49.507v198.181l22.261-19.618
		C118.675,332.394,118.675,158.284,118.675,158.284z" />
		<path style="fill:#CCD4DD;" d="M118.675,450.495v-5.997V428.62H96.414v15.879v5.997c0,12.383,10.04,22.421,22.422,22.421h22.261
		C128.715,472.917,118.675,462.878,118.675,450.495z" />
	</g>
	<path style="fill:#F7A539;" d="M170.188,164.429v120.605l45.598-40.188v183.775h-45.598v28.662c0,8.633,7,15.634,15.635,15.634
	h143.309c8.633,0,15.633-7.001,15.633-15.634v-28.662h-48.55V244.846l48.55,42.789V123.277C344.764,75.069,305.684,0,257.477,0
	c-48.209,0-87.289,75.069-87.289,123.277v13.696" />
	<path style="fill:#F4933B;" d="M192.581,164.429v-27.455v-13.696c0-44.414,33.172-111.626,76.092-121.931
	C265.008,0.466,261.27,0,257.477,0c-48.209,0-87.289,75.069-87.289,123.277v13.696v27.455v120.605l22.393-19.736L192.581,164.429
	L192.581,164.429z" />
	<path style="fill:#E6E9ED;" d="M343.651,444.498v28.417h53.581c12.383,0,22.42-10.039,22.42-22.421v-5.997v-15.879h-76v15.88
	H343.651z" />
	<polygon style="fill:#CCD4DD;" points="365.215,428.621 343.651,428.621 343.651,444.498 343.651,472.917 365.215,472.917 
	365.215,444.498 " />
	<g>
		<path style="fill:#F4933B;" d="M192.581,457.283v-28.662h-22.393v28.662c0,8.633,7,15.634,15.635,15.634h22.393
		C199.582,472.917,192.581,465.916,192.581,457.283z" />
		<path style="fill:#F4933B;" d="M254.393,0.116c-0.514,0.033-1.027,0.067-1.539,0.118c-0.304,0.03-0.607,0.073-0.909,0.11
		c-0.461,0.055-0.922,0.108-1.38,0.175c-0.321,0.048-0.64,0.107-0.959,0.161c-0.44,0.073-0.878,0.148-1.316,0.234
		c-0.327,0.065-0.653,0.139-0.979,0.209c-0.426,0.093-0.854,0.186-1.278,0.291c-0.331,0.081-0.659,0.17-0.987,0.258
		c-0.42,0.112-0.837,0.224-1.254,0.346c-0.329,0.097-0.658,0.2-0.986,0.304c-0.414,0.13-0.827,0.263-1.239,0.403
		c-0.325,0.112-0.65,0.228-0.975,0.346c-0.412,0.15-0.823,0.302-1.232,0.463c-0.322,0.124-0.641,0.254-0.961,0.384
		c-0.411,0.169-0.82,0.343-1.23,0.521c-0.313,0.138-0.628,0.278-0.941,0.421c-0.412,0.189-0.823,0.384-1.232,0.581
		c-0.305,0.149-0.611,0.298-0.915,0.451c-0.415,0.21-0.828,0.427-1.241,0.647c-0.296,0.157-0.591,0.314-0.885,0.476
		c-0.422,0.233-0.84,0.474-1.259,0.717c-0.282,0.163-0.562,0.325-0.843,0.492c-0.433,0.259-0.863,0.529-1.293,0.799
		c-0.26,0.165-0.524,0.326-0.785,0.494c-0.45,0.292-0.898,0.593-1.345,0.896c-0.236,0.16-0.474,0.317-0.71,0.481
		c-0.488,0.338-0.969,0.688-1.454,1.04c-0.19,0.139-0.383,0.273-0.572,0.413c-0.563,0.417-1.122,0.848-1.678,1.282
		c-0.108,0.085-0.216,0.165-0.325,0.25c-2.03,1.602-4.019,3.32-5.963,5.144c-0.03,0.027-0.06,0.058-0.089,0.085
		c-0.61,0.574-1.217,1.156-1.816,1.75c-0.098,0.097-0.195,0.197-0.292,0.294c-0.531,0.53-1.061,1.063-1.586,1.607
		c-0.128,0.134-0.256,0.272-0.385,0.406c-0.489,0.513-0.978,1.032-1.463,1.558c-0.144,0.157-0.286,0.316-0.43,0.474
		c-0.465,0.513-0.929,1.031-1.389,1.554c-0.149,0.17-0.296,0.343-0.444,0.514c-0.452,0.522-0.902,1.046-1.347,1.579
		c-0.148,0.176-0.295,0.354-0.441,0.531c-0.443,0.535-0.883,1.073-1.319,1.617c-0.145,0.179-0.287,0.361-0.431,0.542
		c-0.439,0.553-0.874,1.111-1.306,1.674c-0.134,0.175-0.267,0.351-0.401,0.526c-0.437,0.577-0.87,1.156-1.3,1.741
		c-0.125,0.17-0.252,0.342-0.375,0.513c-0.436,0.599-0.867,1.203-1.297,1.812c-0.115,0.163-0.227,0.323-0.341,0.485
		c-0.441,0.631-0.877,1.269-1.31,1.91c-0.096,0.141-0.193,0.283-0.288,0.425c-0.451,0.676-0.898,1.355-1.341,2.039
		c-0.071,0.112-0.146,0.224-0.217,0.336c-0.473,0.735-0.939,1.475-1.401,2.219c-0.04,0.065-0.08,0.128-0.12,0.193
		c-0.502,0.814-0.997,1.632-1.487,2.455c-0.346,4.846-0.532,9.737-0.532,14.672c0,12.012,1.046,23.778,3.045,35.218
		c9.118-41.082,37.791-87.942,73.047-96.405h-0.002c-0.857-0.206-1.717-0.385-2.581-0.544c-0.214-0.039-0.431-0.071-0.644-0.108
		c-0.638-0.11-1.277-0.207-1.92-0.291c-0.277-0.036-0.554-0.07-0.833-0.1c-0.613-0.07-1.228-0.124-1.843-0.168
		c-0.259-0.019-0.52-0.042-0.78-0.057C259.209,0.03,258.344,0,257.477,0c-0.775,0-1.549,0.021-2.32,0.06
		C254.903,0.071,254.648,0.098,254.393,0.116z" />
	</g>
	<path style="fill:#E6E9ED;" d="M296.214,179.64v-19.506c0-22.209-18.007-97.599-40.213-97.599c-22.209,0-40.215,75.39-40.215,97.599
	v268.487h80.428V207.096" />
	<path style="fill:#CCD4DD;" d="M256,149.324c0-13.876,6.678-47.474,16.995-72.496c-5.162-8.647-10.921-14.294-16.994-14.294
	c-22.209,0-40.215,75.39-40.215,97.599v268.487H256V149.324z" />
	<g>
		<path style="fill:#5B5E5E;" d="M78.793,365.58c-1.991,1.834-7.964,8.027-7.964,16.38v31.028c0,8.633,7,15.633,15.635,15.633
		h129.321V244.846L78.793,365.58z" />
		<path style="fill:#5B5E5E;" d="M433.207,365.58c1.991,1.834,7.964,8.027,7.964,16.38v31.028c0,8.633-7,15.633-15.635,15.633
		H296.214V244.846L433.207,365.58z" />
	</g>
	<g>
		<path style="fill:#464949;" d="M78.793,365.58c-1.991,1.834-7.964,8.027-7.964,16.38v31.028c0,0.008,0.001,0.016,0.001,0.023
		c0.013-8.339,5.974-14.521,7.963-16.353l136.992-120.736v-31.077L78.793,365.58z" />
		<path style="fill:#464949;" d="M433.207,365.58L296.214,244.846v31.077l136.992,120.735c1.989,1.832,7.951,8.014,7.963,16.353
		c0-0.008,0.001-0.016,0.001-0.023V381.96C441.17,373.607,435.198,367.416,433.207,365.58z" />
	</g>
	<path style="fill:#5B5E5E;"
		d="M226.903,105.003h58.193C277.772,82.557,267.444,62.535,256,62.535S234.227,82.557,226.903,105.003z" />
	<path style="fill:#464949;" d="M254.6,62.647c-0.235,0.033-0.469,0.065-0.701,0.115c-0.138,0.028-0.275,0.071-0.412,0.107
	c-0.209,0.053-0.42,0.102-0.628,0.168c-0.149,0.047-0.298,0.108-0.446,0.163c-0.196,0.07-0.391,0.137-0.584,0.218
	c-0.156,0.066-0.311,0.142-0.466,0.215c-0.187,0.086-0.373,0.169-0.559,0.266c-0.158,0.081-0.314,0.175-0.472,0.264
	c-0.183,0.104-0.365,0.204-0.545,0.316c-0.159,0.098-0.317,0.208-0.476,0.313c-0.177,0.119-0.355,0.235-0.533,0.361
	c-0.159,0.116-0.318,0.24-0.477,0.361c-0.175,0.134-0.349,0.265-0.523,0.407c-0.16,0.13-0.318,0.269-0.479,0.406
	c-0.17,0.148-0.342,0.295-0.513,0.449c-0.159,0.146-0.318,0.301-0.476,0.452c-0.169,0.161-0.337,0.322-0.504,0.491
	c-0.16,0.161-0.318,0.328-0.477,0.495c-0.165,0.174-0.331,0.348-0.494,0.53c-0.159,0.174-0.315,0.354-0.472,0.534
	c-0.165,0.188-0.329,0.377-0.492,0.573c-0.156,0.187-0.311,0.378-0.466,0.571c-0.163,0.201-0.324,0.403-0.485,0.611
	c-0.156,0.2-0.309,0.405-0.464,0.611c-0.16,0.211-0.318,0.427-0.477,0.646c-0.154,0.213-0.306,0.429-0.46,0.647
	c-0.158,0.224-0.314,0.45-0.471,0.68c-0.151,0.224-0.302,0.45-0.454,0.679c-0.156,0.236-0.311,0.475-0.465,0.717
	c-0.15,0.235-0.298,0.472-0.447,0.711c-0.155,0.248-0.306,0.496-0.459,0.749c-0.149,0.245-0.296,0.491-0.443,0.741
	c-0.151,0.256-0.302,0.516-0.452,0.778c-0.147,0.255-0.294,0.513-0.44,0.774c-0.148,0.266-0.297,0.535-0.445,0.807
	c-0.144,0.264-0.287,0.529-0.43,0.797c-0.149,0.278-0.296,0.559-0.443,0.843c-0.14,0.27-0.282,0.542-0.422,0.818
	c-0.146,0.287-0.292,0.58-0.437,0.872c-0.138,0.277-0.276,0.554-0.412,0.836c-0.147,0.301-0.29,0.603-0.436,0.907
	c-0.134,0.282-0.268,0.564-0.401,0.85c-0.145,0.308-0.288,0.623-0.431,0.936c-0.131,0.288-0.263,0.577-0.395,0.867
	c-0.141,0.316-0.282,0.637-0.422,0.957c-0.129,0.296-0.259,0.591-0.388,0.889c-0.139,0.324-0.277,0.65-0.414,0.976
	c-0.128,0.302-0.256,0.603-0.382,0.908c-0.137,0.331-0.273,0.664-0.407,0.997c-0.124,0.305-0.249,0.611-0.372,0.918
	c-0.137,0.341-0.27,0.683-0.404,1.027c-0.121,0.308-0.243,0.616-0.362,0.925c-0.135,0.35-0.266,0.701-0.398,1.052
	c-0.117,0.308-0.235,0.616-0.349,0.926c-0.135,0.36-0.265,0.721-0.397,1.084c-0.114,0.307-0.226,0.614-0.337,0.924
	c-0.132,0.367-0.262,0.737-0.393,1.106c-0.109,0.307-0.218,0.614-0.327,0.924c-0.132,0.384-0.263,0.769-0.395,1.155
	c-0.102,0.298-0.205,0.594-0.304,0.893c-0.141,0.416-0.278,0.836-0.416,1.253c-0.087,0.263-0.175,0.524-0.26,0.787h36.738
	c2.587-9.633,5.747-19.428,9.353-28.174c-1.283-2.15-2.604-4.113-3.957-5.852c-0.027-0.035-0.056-0.068-0.082-0.102
	c-0.302-0.386-0.605-0.761-0.91-1.124c-0.056-0.067-0.111-0.13-0.168-0.196c-0.278-0.326-0.558-0.643-0.838-0.951
	c-0.075-0.081-0.151-0.161-0.225-0.242c-0.263-0.279-0.526-0.551-0.79-0.813c-0.091-0.091-0.184-0.179-0.275-0.268
	c-0.25-0.24-0.5-0.472-0.75-0.696c-0.105-0.093-0.209-0.186-0.315-0.276c-0.239-0.206-0.48-0.403-0.72-0.594
	c-0.116-0.09-0.23-0.181-0.347-0.269c-0.232-0.175-0.465-0.342-0.698-0.502c-0.125-0.085-0.249-0.171-0.374-0.254
	c-0.226-0.148-0.454-0.285-0.682-0.419c-0.131-0.076-0.263-0.156-0.394-0.227c-0.224-0.122-0.449-0.232-0.673-0.341
	c-0.136-0.066-0.272-0.135-0.409-0.195c-0.224-0.099-0.447-0.183-0.672-0.266c-0.139-0.052-0.277-0.109-0.416-0.155
	c-0.228-0.076-0.457-0.136-0.686-0.196c-0.136-0.036-0.272-0.079-0.407-0.11c-0.248-0.056-0.496-0.091-0.747-0.128
	c-0.117-0.018-0.234-0.043-0.351-0.057c-0.367-0.041-0.735-0.065-1.104-0.065c-0.352,0-0.703,0.02-1.054,0.058
	C254.83,62.604,254.716,62.631,254.6,62.647z" />
	<path style="fill:#F98B38;" d="M191.034,472.917v23.45c0,8.634,7,15.634,15.633,15.634h101.62c8.635,0,15.633-7,15.633-15.634
	v-23.45H191.034z" />
	<g>
		<path style="fill:#5B5E5E;" d="M267.572,147.748h-23.123c-4.61,0-8.348-3.736-8.348-8.348s3.738-8.348,8.348-8.348h23.123
		c4.61,0,8.348,3.736,8.348,8.348C275.92,144.011,272.183,147.748,267.572,147.748z" />
		<path style="fill:#5B5E5E;" d="M256.001,452.168c-4.61,0-8.348-3.736-8.348-8.348v-79.037c0-4.611,3.738-8.348,8.348-8.348
		c4.61,0,8.348,3.736,8.348,8.348v79.037C264.349,448.432,260.611,452.168,256.001,452.168z" />
		<path style="fill:#5B5E5E;" d="M398.407,505.257h-48.292c-4.61,0-8.348-3.736-8.348-8.348c0-4.611,3.738-8.348,8.348-8.348h48.292
		c4.61,0,8.348,3.736,8.348,8.348C406.755,501.521,403.017,505.257,398.407,505.257z" />
		<path style="fill:#5B5E5E;" d="M161.885,505.257h-48.292c-4.61,0-8.348-3.736-8.348-8.348c0-4.611,3.738-8.348,8.348-8.348h48.292
		c4.61,0,8.348,3.736,8.348,8.348C170.233,501.521,166.496,505.257,161.885,505.257z" />
	</g>
	<path style="fill:#ED6529;" d="M213.295,496.366v-23.45h-22.261v23.45c0,8.634,7,15.634,15.633,15.634h22.261
	C220.295,512,213.295,505,213.295,496.366z" />
	<g>
		<path style="fill:#464949;" d="M364.03,496.909c0-4.611,3.738-8.348,8.348-8.348h-22.261c-4.61,0-8.348,3.736-8.348,8.348
		c0,4.611,3.738,8.348,8.348,8.348h22.261C367.767,505.257,364.03,501.521,364.03,496.909z" />
		<path style="fill:#464949;" d="M127.508,496.909c0-4.611,3.738-8.348,8.348-8.348h-22.261c-4.61,0-8.348,3.736-8.348,8.348
		c0,4.611,3.738,8.348,8.348,8.348h22.261C131.246,505.257,127.508,501.521,127.508,496.909z" />
	</g>
	<g></g>
	<g></g>
	<g></g>
	<g></g>
	<g></g>
	<g></g>
	<g></g>
	<g></g>
	<g></g>
	<g></g>
	<g></g>
	<g></g>
	<g></g>
	<g></g>
	<g></g>
</svg>