<svg xmlns="http://www.w3.org/2000/svg" xmlns:xlink="http://www.w3.org/1999/xlink" version="1.1" id="Layer_1" x="0px"
  y="0px" viewBox="0 0 412.913 412.913" style="enable-background:new 0 0 412.913 412.913;" xml:space="preserve">
  <path style="fill:#fff;"
    d="M343.454,170.099c0.01-0.583,0.022-1.165,0.022-1.75c0-55.728-45.177-100.905-100.905-100.905  c-48.025,0-88.209,33.551-98.403,78.492c-9.505-5.321-20.454-8.368-32.122-8.368c-36.407,0-65.92,29.514-65.92,65.92  c0,1.488,0.067,2.959,0.164,4.423C19.262,217.944,0,243.959,0,274.479c0,39.207,31.784,70.991,70.991,70.991h253.183  c49.009,0,88.739-39.73,88.739-88.739C412.913,214.343,383.192,178.903,343.454,170.099z" />
  <g>
  </g>
  <g>
  </g>
  <g>
  </g>
  <g>
  </g>
  <g>
  </g>
  <g>
  </g>
  <g>
  </g>
  <g>
  </g>
  <g>
  </g>
  <g>
  </g>
  <g>
  </g>
  <g>
  </g>
  <g>
  </g>
  <g>
  </g>
  <g>
  </g>
</svg>