<?xml version="1.0" encoding="UTF-8" standalone="no"?>
<!-- Created with Inkscape (http://www.inkscape.org/) -->
<svg xmlns:inkscape="http://www.inkscape.org/namespaces/inkscape" xmlns:rdf="http://www.w3.org/1999/02/22-rdf-syntax-ns#" xmlns="http://www.w3.org/2000/svg" xmlns:xlink="http://www.w3.org/1999/xlink" xmlns:ns1="http://sozi.baierouge.fr" xmlns:cc="http://creativecommons.org/ns#" xmlns:sodipodi="http://sodipodi.sourceforge.net/DTD/sodipodi-0.dtd" xmlns:dc="http://purl.org/dc/elements/1.1/" id="svg2" xml:space="preserve" viewBox="0 0 84.579 24.5" version="1.1" inkscape:version="0.91 r13725">
  <g id="g10" transform="matrix(1.25,0,0,-1.25,0,24.5)">
    <g id="g12">
      <path id="path14" style="fill-rule:evenodd;fill:#8c847c" d="m60.199 5.6c0.133-0.508-0.039-0.855-0.519-1.039-0.078-0.027-0.16-0.055-0.239-0.082 0.266-0.746 0.786-1.016 1.559-0.801s1.027 0.695 0.762 1.442c-0.082 0.214-0.149 0.441-0.203 0.679 0.429 0.106 0.734 0.199 0.921 0.281 0.508 0.239 1.051 0.786 1.641 1.641 0.266 0.399 0.813 0.945 1.641 1.641 0.797 0.691 1.316 1.226 1.558 1.597 0.078 0.133 0.16 0.266 0.239 0.403 0.054-0.348 0.027-0.75-0.079-1.203-0.132-0.614-0.386-1.227-0.761-1.84-0.531-0.852-1.664-2.172-3.399-3.957-0.558-0.563-1.16-0.949-1.8-1.16-0.243-0.082-0.946-0.215-2.122-0.403-0.613-0.105-1.277-0.414-2-0.918-1.011-0.668-1.652-1.066-1.918-1.203-0.32-0.156-0.691-0.289-1.121-0.398-0.664-0.16-1.398-0.254-2.199-0.282 0.082 0.27 0.082 0.508 0 0.723-0.32 1.012-0.879 1.785-1.68 2.317 1.149 0.242 2.266 0.656 3.36 1.242 0.773 0.425 1.746 0.734 2.922 0.918 0.293 0.32 0.504 0.734 0.636 1.242 0.243 0.773-0.066 1.16-0.918 1.16 0.481 0.027 1.055-0.082 1.719-0.32 0.801-0.266 1.336-0.586 1.602-0.961 0.187-0.266 0.32-0.508 0.398-0.719zm-60.039 2.961c0 0.078 0.012 0.16 0.039 0.238h0.121c-0.054-0.078-0.105-0.16-0.16-0.238zm30.442-5.363c-0.43 0-2.016-0.067-4.762-0.2 0.32 0.11 2.082 0.735 5.281 1.879 0.399 0.137 0.785 0.27 1.16 0.403l-0.402 0.121-0.16 0.078c0.347-0.027 0.933 0.16 1.761 0.559 0.614 0.296 1.387 0.683 2.321 1.16 2.371 0.773 4.597 1.175 6.679 1.203-0.48-0.028-1.214-0.242-2.199-0.641-0.027 0-0.719-0.32-2.082-0.961-0.48-0.215-1.094-0.601-1.84-1.16-0.347-0.266-0.64-0.492-0.879-0.68 0.454-0.187 1.012-0.453 1.68-0.8 0.559-0.266 1.078-0.493 1.559-0.68 0.16-0.242 0.359-0.508 0.601-0.801 0.614-0.824 1.051-1.465 1.321-1.918-0.934 0.133-2.586 0.598-4.961 1.399-2.028 0.695-3.719 1.039-5.078 1.039zm-8.801 1.281h0.078c0.055 0 0.109-0.012 0.16-0.039-0.078 0-0.16-0.016-0.238-0.039v0.078zm-3.199 0.84c0.023-0.668 0.078-1.281 0.16-1.84-0.375 0.16-0.696 0.293-0.961 0.398-0.133 0.055-0.242 0.094-0.321 0.121-0.507 0.215-0.933 0.348-1.281 0.399l-3.277 0.043c-0.856 0.051-1.707 0.199-2.563 0.437h0.039c0.481 0.856 1.348 1.403 2.602 1.641 0.266-0.027 0.559-0.066 0.879-0.117 1.121-0.137 2.574-0.453 4.359-0.961 0.137-0.027 0.254-0.067 0.364-0.121zm-9.524 1.761c-0.183-0.16-0.344-0.347-0.476-0.558-0.457 0.289-0.883 0.558-1.282 0.797 0.11 0 0.215-0.008 0.321-0.02l0.039-0.019h0.199l0.402-0.082h0.078c0.188-0.024 0.426-0.067 0.719-0.118zm-8.918 1.118c0.188-0.051 0.387-0.106 0.602-0.16l2.238-0.36h0.121c0.051-0.265 0.211-0.504 0.481-0.719l0.238-0.16 0.039-0.039c-1.039 0.371-1.625 0.574-1.758 0.598-0.187 0.055-0.359 0.094-0.519 0.121l-0.524 0.121c-0.293 0.027-0.558 0.039-0.797 0.039-0.054 0.188-0.093 0.375-0.121 0.559z" inkscape:connector-curvature="0"/>
      <path id="path16" style="fill-rule:evenodd;fill:#c3b9ac" d="m61.559 5.799c-0.371-0.054-0.825-0.121-1.36-0.199-0.078 0.211-0.211 0.453-0.398 0.719-0.266 0.375-0.801 0.691-1.602 0.961-0.664 0.238-1.238 0.347-1.719 0.32 0.215 0.188 0.426 0.387 0.641 0.598 0.051-0.051 0.172-0.106 0.359-0.16 3.625-0.958 6.973 0.535 10.04 4.48v0.043c0.132-0.27 0.175-0.563 0.121-0.883-0.028-0.078-0.055-0.183-0.082-0.32-0.079-0.133-0.161-0.266-0.239-0.399-0.242-0.375-0.761-0.906-1.558-1.601-0.828-0.692-1.375-1.238-1.641-1.637-0.586-0.855-1.133-1.402-1.641-1.644-0.187-0.079-0.492-0.172-0.921-0.278zm-61.52 2.481h-0.039l0.121 0.199c1.305 0.055 3.266 0.16 5.879 0.32 2.238 0.055 4.199-0.066 5.879-0.359 0.988-0.188 2.84-0.629 5.562-1.32 2.293-0.586 4.145-0.961 5.559-1.122 2.879-0.343 6.414-0.023 10.602 0.961 2.32 0.536 5.812 1.375 10.476 2.52-2.344-1.867-3.918-3.145-4.719-3.84-0.586-0.504-0.597-1.039-0.039-1.598 0.16-0.16 0.321-0.281 0.481-0.363l-0.078-0.078c0.183-0.187 0.41-0.359 0.679-0.52-0.214 0.055-0.414 0.094-0.601 0.122-0.348 0.05-0.707 0.144-1.078 0.277-0.485 0.187-1 0.414-1.563 0.684-0.668 0.343-1.226 0.613-1.68 0.796 0.243 0.188 0.532 0.414 0.879 0.68 0.75 0.563 1.364 0.949 1.84 1.16 1.363 0.641 2.055 0.961 2.082 0.961 0.985 0.403 1.719 0.613 2.199 0.641-2.078-0.028-4.304-0.426-6.679-1.199-0.934-0.481-1.707-0.868-2.321-1.161-0.824-0.402-1.414-0.586-1.757-0.562l0.156-0.078h-0.117c-1.176-0.321-2.133-0.559-2.883-0.719-0.984-0.215-2.039-0.359-3.156-0.441-1.282-0.078-2.364-0.039-3.243 0.121-0.132 0.027-0.281 0.051-0.441 0.078-0.051 0.027-0.105 0.039-0.16 0.039h-0.078c-0.774 0.187-1.84 0.469-3.199 0.844-0.106 0.05-0.227 0.09-0.36 0.117-1.789 0.508-3.242 0.828-4.363 0.961-0.317 0.054-0.613 0.094-0.879 0.121-1.758 0.238-3.066 0.426-3.918 0.558-0.293 0.055-0.535 0.094-0.723 0.122h-0.078l-0.402 0.078h-0.199l-0.039 0.019c-0.246 0.047-0.512 0.082-0.801 0.102l-2.481 0.199h-0.199c-0.375 0.027-0.719 0.051-1.039 0.078h-0.121l-2.238 0.36c-0.27 0.082-0.508 0.16-0.723 0.242zm47-5.481c0.828 0.106 1.75 0.239 2.762 0.399l-1.762 0.16c0.961 0.055 1.828 0.187 2.602 0.402 1.148 0.293 2.304 0.906 3.48 1.84 0.559 0.426 1.348 1.094 2.359 2 0.852 0 1.161-0.387 0.918-1.16-0.132-0.508-0.343-0.918-0.636-1.242-1.176-0.184-2.149-0.493-2.922-0.918-1.094-0.586-2.215-1-3.36-1.242-0.105 0-0.214-0.012-0.32-0.04-0.746-0.105-1.785-0.171-3.121-0.199zm9.281 5.801c-1.332 0.188-2.441 0.52-3.32 1l6.801-1.199c-1.707 0.051-2.867 0.117-3.481 0.199zm-1.679 3.039c-0.106 0.613 0.281 1.133 1.16 1.559l2.398-1.598c-0.773-0.027-1.359-0.039-1.758-0.039-0.722-0.027-1.32 0-1.8 0.078zm-5.282 3.719c0.668 0.586 1.481 0.801 2.442 0.64v-0.8c-0.563-0.024-0.973-0.039-1.242-0.039-0.454 0-0.852 0.066-1.2 0.199zm13.641-4.559c-1.227-0.215-2.027 0.028-2.398 0.719l0.398 0.082 2-0.801zm-26.32 2.68c0.375 0.187 1.015 0.359 1.922 0.519l4.796-0.398c-0.078-1.094-1.332-1.828-3.757-2.199-2.403-0.375-3.68-0.188-3.84 0.558-0.133 0.668 0.16 1.172 0.879 1.52zm-0.078 0.519c-0.774 0.055-2.082-0.027-3.922-0.238-1.707-0.215-3.028-0.254-3.961-0.121 0.082 0.082 0.176 0.16 0.281 0.238-0.934 0.028-1.641 0.203-2.121 0.524 0.187 0.398 0.629 0.531 1.32 0.398l1.641-0.359c0.773 0.426 1.762 0.785 2.961 1.078 1.066 0.242 2.597 0.535 4.597 0.883l-0.796-2.403zm8.957-4.078c0.16 0.106 0.507 0.266 1.043 0.481l4-2.403c-1.442-0.105-2.454-0.132-3.043-0.078-1.25 0.133-2.145 0.52-2.68 1.157 0.133 0.347 0.359 0.628 0.68 0.843zm-0.52 2.2c-0.105 0.668 0.188 1.105 0.883 1.32 0.504 0.187 1.133 0.238 1.879 0.16l0.801-1.602c-0.801-0.054-1.403-0.078-1.801-0.078-0.723-0.027-1.309 0.039-1.762 0.2zm-25.199 2.8c1.332 0.239 2.121 0.465 2.359 0.68l-0.398-1.602c-0.082-0.398-0.602-0.585-1.563-0.558-0.797 0-1.465 0.105-2 0.32-0.023 0.559 0.508 0.945 1.602 1.16zm-2.039-4.922c0.265 0.668 0.933 0.934 2 0.801l-2-0.801zm11.078 7.602c0.109 0.027 0.281 0.027 0.519 0l3.204-0.801c-1.602-0.105-2.95 0.055-4.043 0.481 0.082 0.187 0.187 0.293 0.32 0.32zm-4-6.562c0.082 0.027 0.789 0.214 2.121 0.562l7.199-2c-0.371-0.402-1.371-0.602-3-0.602-0.265 0-1.199 0.055-2.801 0.161-1.039-0.051-1.933-0.051-2.679 0-1.387 0.054-2.278 0.293-2.68 0.718 0.426 0.508 1.039 0.895 1.84 1.161z" inkscape:connector-curvature="0"/>
      <path id="path18" style="fill-rule:evenodd;fill:#bbb2a5" d="m56.48 7.6c-1.015-0.906-1.8-1.574-2.359-2-1.176-0.934-2.332-1.547-3.48-1.84-0.774-0.215-1.641-0.347-2.602-0.402l-6.238 0.64c-0.586 0.028-0.961 0.04-1.121 0.04-0.348-0.051-0.641-0.172-0.879-0.36-0.16 0.082-0.321 0.199-0.481 0.36-0.558 0.562-0.547 1.093 0.039 1.601 0.801 0.695 2.375 1.973 4.719 3.84-4.664-1.145-8.156-1.988-10.476-2.52-4.188-0.988-7.723-1.308-10.602-0.961-1.414 0.161-3.266 0.536-5.559 1.122-2.722 0.691-4.574 1.132-5.562 1.32-1.68 0.293-3.641 0.414-5.879 0.359-2.613-0.16-4.574-0.265-5.879-0.32l-0.121-0.199c0.055 0.105 0.105 0.199 0.16 0.281 0.051 0.078 0.106 0.16 0.16 0.238 1.039 1.547 3.094 2.801 6.16 3.762 1.868 0.559 4.454 1.305 7.758 2.238 3.657 1.602 6.442 2.707 8.364 3.321 3.117 0.988 6.05 1.48 8.796 1.48l6.403-0.398c4 0 7.734-0.508 11.199-1.524 1.84-0.531 3.039-0.824 3.602-0.879 0.238-0.027 0.636-0.027 1.199 0 0.531 0.055 0.933 0.055 1.199 0 0.961-0.16 2.426-0.734 4.398-1.719 0.614-0.292 2.43-0.667 5.442-1.121 1.414-0.371 2.308-0.851 2.68-1.437-3.067-3.949-6.415-5.442-10.04-4.481-0.187 0.051-0.308 0.106-0.359 0.161-0.215-0.215-0.43-0.414-0.641-0.602zm6.52 3.199-2 0.801-0.398-0.082c0.371-0.691 1.171-0.934 2.398-0.719zm-13.641 4.559c0.348-0.133 0.746-0.199 1.2-0.199 0.269 0 0.679 0.015 1.242 0.039v0.8c-0.961 0.161-1.774-0.054-2.442-0.64zm5.282-3.719c0.48-0.078 1.082-0.105 1.8-0.078 0.399 0 0.985 0.012 1.758 0.039l-2.398 1.598c-0.879-0.426-1.266-0.946-1.16-1.559zm1.679-3.039c0.614-0.082 1.774-0.148 3.481-0.199l-6.801 1.199c0.879-0.48 1.988-0.812 3.32-1zm-11.281 3.52c0.453-0.161 1.039-0.227 1.762-0.2 0.398 0 1 0.024 1.801 0.078l-0.801 1.602c-0.746 0.078-1.375 0.027-1.879-0.16-0.695-0.215-0.988-0.652-0.883-1.32zm0.52-2.2c-0.321-0.215-0.547-0.496-0.68-0.84 0.535-0.64 1.426-1.027 2.68-1.16 0.586-0.054 1.601-0.027 3.043 0.078l-4 2.403c-0.536-0.215-0.883-0.375-1.043-0.481zm-8.957 4.078 0.796 2.403c-2-0.348-3.531-0.641-4.597-0.883-1.199-0.293-2.188-0.652-2.961-1.078l-1.641 0.359c-0.691 0.133-1.133 0-1.32-0.398 0.48-0.321 1.187-0.496 2.121-0.524-0.105-0.078-0.199-0.156-0.281-0.238 0.933-0.133 2.254-0.094 3.961 0.121 1.84 0.211 3.148 0.293 3.922 0.238zm0.078-0.519c-0.719-0.348-1.012-0.852-0.879-1.52 0.16-0.746 1.437-0.933 3.84-0.558 2.425 0.371 3.679 1.105 3.757 2.199l-4.796 0.398c-0.911-0.16-1.547-0.332-1.922-0.519zm-11.801-2.441c-0.801-0.266-1.414-0.653-1.84-1.161 0.402-0.425 1.293-0.664 2.68-0.718 0.75-0.051 1.64-0.051 2.679 0 1.602-0.106 2.536-0.161 2.801-0.161 1.629 0 2.629 0.2 3 0.602l-7.199 2c-1.332-0.348-2.039-0.535-2.121-0.562zm4 6.562c-0.133-0.027-0.238-0.133-0.32-0.32 1.093-0.426 2.441-0.586 4.043-0.481l-3.204 0.801c-0.238 0.027-0.41 0.027-0.519 0zm-11.078-7.602 2 0.801c-1.067 0.133-1.735-0.133-2-0.801zm2.039 4.922c-1.094-0.215-1.625-0.601-1.602-1.16 0.535-0.215 1.203-0.32 2-0.32 0.961-0.027 1.481 0.16 1.563 0.558l0.398 1.602c-0.238-0.215-1.027-0.441-2.359-0.68zm-12.199-7.621c-0.106 0.012-0.211 0.02-0.321 0.02-0.16 0.027-0.32 0.054-0.48 0.082 0.289-0.024 0.555-0.055 0.801-0.102zm-7.481 0.899c-0.055 0.027-0.094 0.054-0.121 0.082 0.215-0.082 0.453-0.16 0.723-0.242-0.215 0.054-0.414 0.109-0.602 0.16z" inkscape:connector-curvature="0"/>
      <path id="path20" style="fill-rule:evenodd;fill:#a39a90" d="m61.559 5.799c0.054-0.238 0.121-0.465 0.203-0.679 0.265-0.747 0.011-1.227-0.762-1.442s-1.293 0.055-1.559 0.801c0.079 0.027 0.161 0.055 0.239 0.082 0.48 0.184 0.652 0.531 0.519 1.039 0.535 0.078 0.989 0.145 1.36 0.199zm-11.079-2.761c0.801-0.532 1.36-1.305 1.68-2.317 0.082-0.215 0.082-0.453 0-0.723h-1.16c-3.254 0-6.691 0.254-10.32 0.762h-0.039c-0.266 0.453-0.707 1.094-1.321 1.918-0.242 0.293-0.441 0.563-0.597 0.801 0.371-0.133 0.73-0.227 1.078-0.281 0.187-0.024 0.387-0.067 0.601-0.118 0.879-0.48 2.266-0.652 4.16-0.519 0.692 0.051 1.516 0.133 2.477 0.238 1.336 0.028 2.375 0.094 3.121 0.199 0.106 0.028 0.215 0.04 0.32 0.04zm-31.878 2.281c1.359-0.375 2.425-0.653 3.199-0.84v-0.082c0.078 0.027 0.16 0.043 0.238 0.043 0.16-0.027 0.309-0.055 0.441-0.082 0.879-0.16 1.961-0.199 3.239-0.121 1.121 0.082 2.176 0.226 3.16 0.441 0.746 0.16 1.707 0.399 2.883 0.719h0.117l0.402-0.117c-0.375-0.133-0.761-0.27-1.16-0.403-3.199-1.144-4.961-1.773-5.281-1.879 2.746 0.133 4.332 0.2 4.762 0.2-2.457-0.133-4.336-0.227-5.641-0.278-2.348-0.109-4.199 0-5.563 0.317-0.32 0.082-0.851 0.293-1.597 0.64 0.265-0.105 0.586-0.238 0.961-0.398-0.082 0.559-0.137 1.172-0.16 1.84zm-11.282 2c0.399-0.242 0.825-0.508 1.282-0.801 0.132 0.215 0.293 0.402 0.476 0.559 0.856-0.133 2.16-0.317 3.922-0.559-1.254-0.238-2.121-0.785-2.602-1.641-0.371 0.11-0.746 0.215-1.117 0.321l-4.601 1.281c-0.321 0.105-0.602 0.215-0.84 0.32l-0.238 0.16c-0.27 0.215-0.43 0.454-0.481 0.719 0.32-0.027 0.664-0.051 1.039-0.078h0.199l2.481-0.203c0.16-0.024 0.32-0.051 0.48-0.078z" inkscape:connector-curvature="0"/>
      <path id="path22" style="fill-rule:evenodd;fill:#d2c8ba" d="m48.039 3.358 1.762-0.16c-1.016-0.16-1.934-0.293-2.762-0.399-0.961-0.105-1.785-0.187-2.48-0.238-1.891-0.137-3.282 0.039-4.161 0.516-0.265 0.16-0.492 0.336-0.679 0.523l0.082 0.078c0.238 0.188 0.531 0.309 0.879 0.36 0.16 0 0.535-0.012 1.121-0.04l6.238-0.64z" inkscape:connector-curvature="0"/>
    </g>
  </g>
<metadata><rdf:RDF><cc:Work><dc:format>image/svg+xml</dc:format><dc:type rdf:resource="http://purl.org/dc/dcmitype/StillImage"/><cc:license rdf:resource="http://creativecommons.org/licenses/publicdomain/"/><dc:publisher><cc:Agent rdf:about="http://openclipart.org/"><dc:title>Openclipart</dc:title></cc:Agent></dc:publisher></cc:Work><cc:License rdf:about="http://creativecommons.org/licenses/publicdomain/"><cc:permits rdf:resource="http://creativecommons.org/ns#Reproduction"/><cc:permits rdf:resource="http://creativecommons.org/ns#Distribution"/><cc:permits rdf:resource="http://creativecommons.org/ns#DerivativeWorks"/></cc:License></rdf:RDF></metadata></svg>
