<?xml version="1.0" encoding="iso-8859-1"?>
<!-- Generator: Adobe Illustrator 19.0.0, SVG Export Plug-In . SVG Version: 6.00 Build 0)  -->
<svg version="1.1" id="Capa_1" xmlns="http://www.w3.org/2000/svg" xmlns:xlink="http://www.w3.org/1999/xlink" x="0px"
	y="0px" viewBox="0 0 512 512" style="enable-background:new 0 0 512 512;" xml:space="preserve">
	<g>
		<g>
			<path d="M510.677,251.069c-25.39-43.889-61.9-80.699-105.581-106.45C360.087,118.087,308.53,104.062,256,104.062
			s-104.087,14.025-149.095,40.557C63.223,170.37,26.714,207.18,1.323,251.069c-1.764,3.05-1.764,6.811,0,9.861
			c25.39,43.889,61.9,80.699,105.581,106.45c45.009,26.532,96.565,40.557,149.095,40.557s104.087-14.025,149.095-40.557
			c43.681-25.751,80.191-62.56,105.581-106.45C512.441,257.88,512.441,254.12,510.677,251.069z M256,388.244
			c-95.715,0-185.117-50.529-234.71-132.245C70.883,174.284,160.285,123.755,256,123.755s185.117,50.529,234.71,132.245
			C441.117,337.716,351.715,388.244,256,388.244z" />
		</g>
	</g>
	<g>
		<g>
			<path d="M256,137.846c-65.15,0-118.154,53.004-118.154,118.154S190.85,374.153,256,374.153s118.154-53.004,118.154-118.154
			S321.15,137.846,256,137.846z M256,354.461c-54.293,0-98.462-44.17-98.462-98.462s44.169-98.462,98.462-98.462
			s98.462,44.17,98.462,98.462S310.293,354.461,256,354.461z" />
		</g>
	</g>
	<g>
		<g>
			<path d="M315.077,246.011c-5.437,0-9.846,4.408-9.846,9.846v0.143c0,5.438,4.409,9.846,9.846,9.846
			c5.437,0,9.846-4.408,9.846-9.846v-0.144C324.923,250.419,320.515,246.011,315.077,246.011z" />
		</g>
	</g>
	<g>
		<g>
			<path d="M315.525,221.238c-12.327-21.071-35.136-34.161-59.525-34.161c-5.437,0-9.846,4.408-9.846,9.846
			c0,5.438,4.409,9.846,9.846,9.846c17.422,0,33.718,9.354,42.529,24.413c1.831,3.131,5.124,4.876,8.508,4.876
			c1.689,0,3.4-0.434,4.962-1.349C316.693,231.962,318.271,225.93,315.525,221.238z" />
		</g>
	</g>
	<g>
	</g>
	<g>
	</g>
	<g>
	</g>
	<g>
	</g>
	<g>
	</g>
	<g>
	</g>
	<g>
	</g>
	<g>
	</g>
	<g>
	</g>
	<g>
	</g>
	<g>
	</g>
	<g>
	</g>
	<g>
	</g>
	<g>
	</g>
	<g>
	</g>
</svg>