<?xml version="1.0" encoding="iso-8859-1"?>
<!-- Generator: Adobe Illustrator 19.0.0, SVG Export Plug-In . SVG Version: 6.00 Build 0)  -->
<svg version="1.1" id="Layer_1" xmlns="http://www.w3.org/2000/svg" xmlns:xlink="http://www.w3.org/1999/xlink" x="0px"
    y="0px" viewBox="0 0 512 512" style="enable-background:new 0 0 512 512;" xml:space="preserve">
    <path style="fill:#FF675C;" d="M257.593,152.963c-55.937,0-101.444,45.507-101.444,101.444s45.507,101.444,101.444,101.444
	s101.444-45.507,101.444-101.444S313.53,152.963,257.593,152.963z" />
    <path style="fill:#DB3D5A;" d="M289.992,331.95c-55.937,0-101.444-45.507-101.444-101.444c0-26.179,9.969-50.074,26.31-68.089
	c-34.64,16.158-58.708,51.313-58.708,91.989c0,55.937,45.507,101.444,101.444,101.444c29.757,0,56.562-12.88,75.134-33.355
	C319.732,328.556,305.252,331.95,289.992,331.95z" />
    <path style="fill:#5CC4E0;" d="M257.593,418.523c-88.737,0-160.929-72.192-160.929-160.929S168.856,96.664,257.593,96.664
	c88.736,0,160.929,72.192,160.929,160.929S346.33,418.523,257.593,418.523z M257.593,112.598
	c-79.951,0-144.996,65.045-144.996,144.996s65.045,144.996,144.996,144.996c79.952,0,144.996-65.045,144.996-144.996
	S337.545,112.598,257.593,112.598z" />
    <path style="fill:#5293C4;" d="M257.593,469.51c-116.852,0-211.917-95.065-211.917-211.917S140.742,45.676,257.593,45.676
	S469.51,140.742,469.51,257.593S374.445,469.51,257.593,469.51z M257.593,61.61c-108.066,0-195.983,87.917-195.983,195.983
	s87.917,195.983,195.983,195.983c108.065,0,195.983-87.917,195.983-195.983S365.658,61.61,257.593,61.61z" />
    <path style="fill:#5CC4E0;" d="M256,512c-68.381,0-132.667-26.628-181.02-74.98C26.628,388.668,0,324.381,0,256
	S26.628,123.333,74.98,74.98S187.619,0,256,0c68.38,0,132.667,26.628,181.019,74.98C485.372,123.333,512,187.62,512,256
	s-26.628,132.667-74.981,181.02C388.668,485.372,324.38,512,256,512z M256,15.934C123.627,15.934,15.934,123.627,15.934,256
	S123.627,496.066,256,496.066S496.066,388.373,496.066,256S388.373,15.934,256,15.934z" />
    <path style="fill:#FAEC8E;" d="M113.129,80.73c-20.793,0-37.71,16.916-37.71,37.71s16.916,37.71,37.71,37.71
	s37.71-16.916,37.71-37.71S133.922,80.73,113.129,80.73z" />
    <path style="fill:#FBC96C;" d="M130.656,141.809c-20.793,0-37.71-16.916-37.71-37.71c0-7.627,2.283-14.727,6.191-20.667
	c-13.883,5.569-23.718,19.158-23.718,35.007c0,20.793,16.916,37.71,37.71,37.71c13.166,0,24.771-6.788,31.519-17.043
	C140.318,140.844,135.598,141.809,130.656,141.809z" />
    <path style="fill:#FAEC8E;" d="M202.357,356.913c-20.793,0-37.71,16.916-37.71,37.71c0,20.793,16.916,37.71,37.71,37.71
	s37.71-16.916,37.71-37.71C240.066,373.829,223.15,356.913,202.357,356.913z" />
    <path style="fill:#FBC96C;" d="M219.353,415.336c-20.793,0-37.71-16.916-37.71-37.71c0-6.021,1.426-11.713,3.946-16.767
	c-12.4,6.183-20.942,18.992-20.942,33.763c0,20.793,16.916,37.71,37.71,37.71c14.772,0,27.58-8.543,33.763-20.942
	C231.066,413.911,225.373,415.336,219.353,415.336z" />
    <path style="fill:#FAEC8E;" d="M436.05,42.49c-20.793,0-37.71,16.916-37.71,37.71s16.916,37.71,37.71,37.71
	c20.793,0,37.71-16.916,37.71-37.71S456.843,42.49,436.05,42.49z" />
    <path style="fill:#FBC96C;" d="M451.983,101.975c-20.793,0-37.71-16.916-37.71-37.71c0-6.302,1.561-12.242,4.306-17.47
	c-12.018,6.312-20.24,18.912-20.24,33.403c0,20.793,16.916,37.71,37.71,37.71c14.491,0,27.091-8.221,33.403-20.24
	C464.226,100.414,458.286,101.975,451.983,101.975z" />
    <g>
        <path style="fill:#FFFFFF;" d="M278.84,287.867c-2.073,0.001-4.111-0.809-5.636-2.334l-33.138-33.139V279.9
		c0,4.4-3.567,7.967-7.967,7.967s-7.967-3.567-7.967-7.967v-46.739c0-3.223,1.941-6.127,4.918-7.36
		c2.976-1.232,6.404-0.551,8.682,1.727l33.139,33.139v-27.506c0-4.4,3.566-7.967,7.967-7.967c4.401,0,7.967,3.567,7.967,7.967V279.9
		c0,3.223-1.941,6.127-4.918,7.36C280.901,287.67,279.866,287.867,278.84,287.867z" />
        <circle style="fill:#FFFFFF;" cx="214.573" cy="383.469" r="9.029" />
        <circle style="fill:#FFFFFF;" cx="449.859" cy="67.452" r="10.622" />
        <circle style="fill:#FFFFFF;" cx="124.282" cy="110.473" r="11.154" />
    </g>
    <g>
    </g>
    <g>
    </g>
    <g>
    </g>
    <g>
    </g>
    <g>
    </g>
    <g>
    </g>
    <g>
    </g>
    <g>
    </g>
    <g>
    </g>
    <g>
    </g>
    <g>
    </g>
    <g>
    </g>
    <g>
    </g>
    <g>
    </g>
    <g>
    </g>
</svg>