<svg xmlns="http://www.w3.org/2000/svg" xmlns:xlink="http://www.w3.org/1999/xlink" version="1.1" id="Layer_1" x="0px"
  y="0px" width="100%" viewBox="0 0 512 512" enable-background="new 0 0 512 512" xml:space="preserve">
  <g data-bx-workspace="master" xmlns="http://www.w3.org/2000/svg" version="1.1" id="Layer_1" x="0px" y="0px"
    width="100%" viewBox="0 0 512 512" enable-background="new 0 0 512 512">
    <defs></defs>
    <path fill="#272728" opacity="1.000000" stroke="none"
      d="M 251.346 142.945 C 290.902 142.961 330.458 142.867 370.013 143.081 C 378.604 143.127 387.246 143.864 395.759 145.041 C 404.588 146.262 410.299 155.799 408.09 164.431 C 405.524 174.456 394.569 183.426 384.196 184.015 C 383.061 184.08 381.933 184.256 379.796 184.49 C 383.29 188.997 386.33 192.984 389.44 196.915 C 394.384 203.164 399.434 209.331 404.32 215.626 C 406.608 218.574 409.153 220.173 413.154 220.095 C 425.557 219.852 437.968 220.047 450.375 219.981 C 454.14 219.961 457.954 219.928 461.634 219.273 C 462.633 219.094 460.355 222.072 461.791 222.189 C 481.534 223.8 513.775 254.961 486.219 279.696 C 481.322 290.593 426.944 314.959 426.919 313.907 C 426.724 313.867 463.389 289.096 463.195 289.056 C 463.069 289.652 462.944 290.247 462.818 290.843 C 463.198 290.781 456.241 296.647 451.037 299.861 C 443.863 304.292 436.172 307.859 428.692 311.82 C 431.459 314.992 434.976 318.418 437.771 322.358 C 443.029 329.772 441.985 335.994 435.354 341.935 C 434.398 342.791 434.202 344.685 433.988 346.147 C 433.133 351.993 433.594 358.354 431.391 363.612 C 426.815 374.537 416.75 378.584 405.72 379.843 C 401.102 380.37 396.168 380.021 391.626 378.982 C 375.983 375.401 368.429 364.547 370.197 348.605 C 370.471 346.132 370.33 344.733 367.973 343.382 C 362.799 340.417 361.07 335.573 364.103 330.225 C 367.478 324.275 371.917 318.928 376.119 312.999 C 357.712 312.999 338.543 312.999 319.957 312.999 C 322.155 315.97 325.01 319.39 327.376 323.119 C 331.851 330.172 330.587 337.528 324.952 343.248 C 323.51 344.712 322.936 347.74 323.098 349.966 C 324.565 370.069 307.813 380.086 292.309 380.743 C 280.78 381.232 269.344 378.306 263.087 367.176 C 260.465 362.512 259.949 356.522 259.142 351.037 C 258.697 348.013 258.771 345.33 255.896 343.257 C 251.703 340.234 250.831 335.605 252.627 331.167 C 254.398 326.789 257.05 322.678 259.856 318.846 C 261.355 316.8 263.996 315.59 266.121 314.003 C 265.77 313.514 265.418 313.025 265.066 312.535 C 264.5 312.361 263.937 312.047 263.366 312.032 C 249.242 311.668 235.118 311.32 220.992 311.002 C 205.202 310.646 189.395 310.651 173.624 309.905 C 151.921 308.879 130.224 307.558 108.562 305.878 C 87.251 304.225 65.95 302.284 44.715 299.852 C 32.198 298.418 20.388 294.731 11.78 284.377 C 3.617 274.558 2.143 263.288 3.38 251.098 C 3.998 245.003 3.88 238.819 3.838 232.677 C 3.811 228.878 3.385 225.073 2.968 221.289 C 2.78 219.577 2.179 217.912 1.383 216.113 C 1 201.646 1 187.292 1 172.469 C 1.731 170.691 2.813 169.463 3.135 168.06 C 5.177 159.168 8.424 150.757 14.621 144.006 C 26.823 130.713 53.84 125.822 69.039 148.975 C 78.363 163.177 84.295 178.831 89.771 194.731 C 90.855 197.878 91.863 201.051 92.911 204.209 C 95.278 211.336 96.681 211.802 104.172 210.822 C 113.691 209.576 123.015 209.955 130.773 217.069 C 131.763 217.976 134.174 217.982 135.693 217.561 C 146.87 214.461 157.967 211.07 169.13 207.919 C 183.317 203.914 197.514 199.945 211.761 196.161 C 221.354 193.613 231.051 191.459 240.678 189.037 C 245.64 187.788 250.552 186.336 256.827 184.606 C 251.02 183.961 246.189 184.405 242.24 182.746 C 236.899 180.503 231.058 177.604 227.531 173.276 C 220.688 164.879 223.906 155.476 234.95 149.062 C 235.684 148.548 235.844 148.244 236.004 147.941 C 236.004 147.941 236.003 148.004 236.3 148.04 C 237.071 147.698 237.545 147.321 238.02 146.943 C 238.02 146.943 238.006 147.008 238.373 147.074 C 242.942 145.742 247.144 144.344 251.346 142.945 M 392.764 339.998 C 393.861 339.99 394.959 339.981 396.986 339.987 C 404.871 339.94 412.758 339.983 420.64 339.82 C 427.602 339.676 429.779 336.71 427.126 330.194 C 425.919 327.228 422.664 325.127 421.3 322.187 C 418.8 316.8 414.144 315.297 408.308 313.894 C 405.286 313.618 402.263 313.343 398.698 312.517 C 391.486 312.101 384.606 313.943 380.762 319.992 C 378.215 324.001 377.737 329.611 377.305 334.589 C 376.933 338.872 381.964 337.838 384.997 339.916 C 387.311 339.94 389.626 339.964 392.764 339.998 M 282.594 337.996 C 283.031 337.999 283.467 338.001 284.728 338.189 C 288.507 338.239 292.287 338.361 296.066 338.323 C 301.496 338.268 306.929 337.912 312.352 338.038 C 316.364 338.131 318.277 336.461 316.768 332.779 C 315.324 329.254 312.902 326.13 310.594 322.277 C 309.377 321.488 308.16 320.699 306.88 319.225 C 299.88 311.338 290.408 312.635 281.828 313.792 C 273.065 314.973 268.254 322.24 265.301 330.158 C 263.643 334.602 265.386 336.972 270.854 337.937 C 274.55 337.955 278.245 337.973 282.594 337.996 M 392.603 367.327 C 394.123 367.925 395.643 368.523 397.279 369.835 C 401.089 373.048 405.313 372.432 409.427 370.833 C 416.987 367.894 421.278 359.995 421.177 350.465 C 421.131 346.201 419.568 344.489 415.209 344.809 C 409.477 345.229 403.714 345.304 397.962 345.336 C 393.993 345.358 390.01 344.833 386.06 345.043 C 384.978 345.101 383.316 346.786 383.071 347.963 C 381.593 355.066 385.579 363.27 392.603 367.327 M 83.918 245.101 C 88.941 245.06 93.964 245.019 99.897 245.187 C 105.145 244.631 110.583 244.754 115.594 243.351 C 122.412 241.442 124.178 236.022 120.8 230.309 C 120.508 229.816 120.532 229.142 120.377 228.561 C 119.818 226.459 119.814 223.903 118.566 222.349 C 115.393 218.398 110.974 217.439 105.756 218.256 C 103.517 218.207 101.277 218.159 98.111 217.938 C 92.043 217.741 85.975 217.544 79.08 217.167 C 76.386 217.441 73.692 217.714 70.205 217.892 C 58.427 219.638 54.614 229.191 62.034 239.681 C 63.658 240.896 65.282 242.111 67.509 243.789 C 72.668 244.199 77.826 244.609 83.918 245.101 M 371.803 219.974 C 374.556 219.976 377.309 219.977 380.965 220.023 C 384.4 220.023 387.835 220.023 392.272 220.023 C 387.601 214.196 383.484 209.06 379.366 203.924 C 378.097 202.342 376.926 200.666 375.534 199.201 C 372.871 196.397 370.083 193.713 367.344 190.981 C 366.941 190.579 366.326 190.268 366.141 189.786 C 363.554 183.084 360.816 181.585 353.908 183.106 C 352.327 183.454 350.7 183.924 349.113 183.861 C 340.457 183.518 331.807 183.026 322.327 182.543 C 322.327 189.988 321.781 196.642 322.468 203.167 C 323.28 210.878 331.849 219.806 339.675 219.058 C 342.501 219.415 345.326 219.772 348.685 220.758 C 356.085 220.483 363.485 220.208 371.803 219.974 M 342.077 148.026 C 338.083 148.033 334.089 148.041 329.501 147.599 C 323.351 148.075 317.202 148.551 310.125 149.006 C 306.417 149.008 302.709 149.011 298.068 148.953 C 285.063 149.109 272.062 150.733 258.31 149.002 C 256.264 149.013 254.219 149.023 251.684 148.434 C 249.778 148.603 247.702 148.342 245.997 149.018 C 239.782 151.481 236.671 158.311 238.174 165.501 C 239.597 172.301 245.429 176.831 253.864 176.994 C 257.202 176.979 260.54 176.963 264.553 177.452 C 270.685 177.293 276.817 177.134 283.857 176.993 C 286.293 177.041 288.729 177.089 291.803 177.627 C 292.287 177.723 292.772 177.902 293.256 177.904 C 312.058 177.966 330.859 178.078 349.659 177.938 C 351.168 177.927 352.664 176.171 354.536 175.804 C 356.316 176.185 358.096 176.566 360.551 177.453 C 362.198 177.579 363.844 177.804 365.492 177.813 C 372.211 177.852 378.93 177.79 385.649 177.837 C 389.555 177.864 392.482 176.28 393.909 172.635 C 395.683 168.102 397.484 163.096 394.174 158.847 C 390.45 154.066 385.601 150.398 379.05 149.914 C 373.018 149.469 367.009 148.659 360.973 148.34 C 354.994 148.023 348.993 148.119 342.077 148.026 M 430.495 225.481 C 424.019 225.665 417.543 225.85 410.163 226.01 C 407.46 226.007 404.757 226.004 401.292 225.658 C 395.587 225.501 389.882 225.249 384.178 225.273 C 383.112 225.278 382.052 226.395 380.373 226.479 C 377.296 226.315 374.219 226.151 370.23 225.698 C 356.871 225.913 343.512 226.135 330.153 226.322 C 329.453 226.331 328.751 226.024 328.045 225.891 C 319.941 224.366 314.188 220.008 311.376 212.087 C 311.335 211.971 311.099 211.923 310.981 211.04 C 310.972 209.967 310.963 208.894 310.9 207.006 C 310.726 200.342 310.485 193.678 310.413 187.012 C 310.387 184.611 310.333 182.563 306.23 183.011 C 303.506 183.34 300.781 183.669 297.217 183.852 C 295.295 183.516 293.315 182.702 291.46 182.926 C 283.533 183.884 275.487 184.523 267.776 186.449 C 257.089 189.119 246.665 192.839 235.308 196.045 C 229.87 197.369 224.433 198.693 218.203 199.982 C 207.158 203.332 196.113 206.683 184.245 210.017 C 180.802 210.691 177.358 211.365 173.158 212.111 C 162.38 215.409 151.648 218.87 140.801 221.925 C 136.268 223.201 134.33 225.282 134.62 230.259 C 135.028 237.27 131.867 242.983 125.643 246.389 C 122.039 248.362 118.09 250.002 114.096 250.908 C 97.55 254.661 80.965 252.982 64.471 250.358 C 60.476 249.722 55.921 248.89 52.901 246.52 C 43.138 238.86 43.536 226.192 53.759 218.347 C 58.277 214.88 63.856 212.794 69.753 209.943 C 77.422 209.334 78.472 208.09 76.551 201.308 C 74.83 195.606 73.346 189.819 71.332 184.222 C 68.397 176.066 65.082 168.046 61.738 159.435 C 61.23 158.65 60.722 157.866 60.088 156.363 C 57.542 149.795 51.485 146.493 45.979 143.902 C 34.244 138.378 22.245 143.803 18.454 156.216 C 16.472 162.704 16.525 169.89 16.195 176.786 C 15.83 184.388 16.195 192.022 16.036 199.638 C 15.782 211.774 15.357 223.907 14.996 236.847 C 15.009 237.921 15.021 238.996 14.971 240.982 C 15.328 245.024 15.685 249.065 16.017 253.83 C 16.278 255.193 16.538 256.556 16.723 258.796 C 17.781 262.494 18.839 266.192 19.96 270.624 C 20.314 271.79 20.667 272.956 21.026 274.857 C 21.895 279.945 25.994 281.032 30.431 282.586 C 31.253 283.058 32.076 283.529 33.468 284.451 C 42.931 287.282 52.394 290.113 62.657 292.981 C 64.445 293.309 66.233 293.637 68.793 294.185 C 79.839 295.446 90.885 296.706 102.741 297.991 C 104.829 298.323 106.916 298.654 109.854 299.107 C 115.202 299.399 120.55 299.691 126.726 299.996 C 128.106 300.002 129.485 300.008 131.62 300.4 C 137.057 300.589 142.494 300.778 148.84 300.991 C 151.847 300.999 154.853 301.007 158.646 301.347 C 167.184 301.555 175.723 301.897 184.261 301.92 C 189.522 301.935 194.785 301.221 200.045 301.255 C 213.988 301.345 227.931 301.664 242.794 301.962 C 245.866 301.969 248.938 301.975 252.943 302.058 C 259.272 302.028 265.602 301.997 272.825 301.991 C 275.483 302.001 278.141 302.012 281.573 302.384 C 287.359 302.578 293.145 302.773 299.852 302.991 C 303.452 303.007 307.052 303.022 311.611 303.274 C 324.042 303.501 336.473 303.729 349.784 303.986 C 352.114 304 354.443 304.013 357.577 304.345 C 371.069 304.565 384.56 304.784 398.881 304.982 C 400.265 304.982 401.648 304.981 403.882 304.996 C 406.685 304.666 409.502 304.422 412.291 303.992 C 432.055 300.945 449.116 292.905 461.719 276.853 C 462.869 275.388 463.916 273.376 463.962 271.591 C 464.183 263.119 464.139 254.636 463.943 246.162 C 463.904 244.482 462.781 242.828 462.157 241.162 C 463.234 236.922 456.482 224.392 456.468 219.919 C 456.465 219.015 461.605 225.409 460.425 225.402 C 454.641 225.371 448.854 225.78 442.143 226.009 C 438.473 226.021 434.804 226.033 430.495 225.481 M 302.058 368.709 C 307.845 364.158 310.402 358.203 310.162 350.855 C 310.055 347.599 309.053 346.026 305.493 346.083 C 295.686 346.242 285.875 346.209 276.067 346.096 C 273.129 346.062 271.879 347.038 271.864 350.093 C 271.823 358.188 275.603 364.143 282.16 368.319 C 288.302 372.23 294.834 373.086 302.058 368.709">
    </path>
    <path fill="#306295" opacity="1.000000" stroke="none" d="
M251.056229,142.655121 
	C247.144028,144.343506 242.942322,145.741974 238.341095,147.064972 
	C241.892395,144.548828 245.301865,140.606796 251.056229,142.655121 
z"></path>
    <path fill="#306295" opacity="1.000000" stroke="none" d="
M237.703644,146.973114 
	C237.545258,147.320694 237.070938,147.698364 236.268921,148.033264 
	C236.423386,147.661392 236.905548,147.332306 237.703644,146.973114 
z"></path>
    <path fill="#306295" opacity="1.000000" stroke="none" d="
M235.750381,148.020447 
	C235.844162,148.244202 235.684265,148.547897 235.259338,148.922882 
	C235.161789,148.696228 235.329254,148.398300 235.750381,148.020447 
z"></path>
    <path fill="#3C7BC7" opacity="1.000000" stroke="none"
      d="M 19.897 269.89 C 18.839 266.192 17.781 262.494 16.962 258.072 C 21.649 253.839 26.098 250.331 30.546 246.822 C 30.295 246.439 30.045 246.056 29.794 245.672 C 25.21 248.151 20.626 250.629 16.042 253.107 C 15.685 249.065 15.328 245.024 15.323 240.402 C 19.006 237.152 22.337 234.482 25.668 231.812 C 25.391 231.395 25.114 230.977 24.837 230.559 C 21.559 232.387 18.282 234.214 15.004 236.041 C 15.357 223.907 15.782 211.774 16.036 199.638 C 16.195 192.022 15.83 184.388 16.195 176.786 C 16.525 169.89 16.472 162.704 18.454 156.216 C 22.245 143.803 34.244 138.378 45.979 143.902 C 51.485 146.493 57.542 149.795 59.965 157.015 C 57.759 159.59 55.677 161.514 53.595 163.437 C 53.803 163.774 54.011 164.111 54.219 164.448 C 56.789 162.955 59.359 161.461 61.928 159.968 C 65.082 168.046 68.397 176.066 71.332 184.222 C 73.346 189.819 74.83 195.606 76.221 201.976 C 73.577 205.123 71.265 207.602 68.953 210.08 C 63.856 212.794 58.277 214.88 53.759 218.347 C 43.536 226.192 43.138 238.86 52.901 246.52 C 55.921 248.89 60.476 249.722 64.471 250.358 C 80.965 252.982 97.55 254.661 114.096 250.908 C 118.09 250.002 122.039 248.362 125.643 246.389 C 131.867 242.983 135.028 237.27 134.62 230.259 C 134.33 225.282 136.268 223.201 140.801 221.925 C 151.648 218.87 162.38 215.409 173.558 212.422 C 172.074 214.597 170.191 216.461 168.021 218.543 C 167.193 219.182 166.652 219.602 166.111 220.023 C 166.26 220.223 166.409 220.423 166.558 220.623 C 167.393 220.107 168.229 219.591 169.424 219.03 C 174.879 216.002 179.974 213.018 185.069 210.033 C 196.113 206.683 207.158 203.332 218.593 200.357 C 217.897 201.841 216.949 203.146 215.702 204.028 C 207.941 209.515 200.112 214.906 192.019 220.549 C 191.191 221.188 190.649 221.608 190.108 222.027 C 190.257 222.228 190.406 222.428 190.555 222.629 C 191.394 222.113 192.232 221.597 193.431 221.038 C 201.392 216.634 209.029 212.332 216.586 207.896 C 223.147 204.046 229.618 200.044 236.128 196.109 C 246.665 192.839 257.089 189.119 267.776 186.449 C 275.487 184.523 283.533 183.884 291.46 182.926 C 293.315 182.702 295.295 183.516 297.494 184.245 C 289.022 190.424 280.272 196.21 271.523 201.997 C 271.837 202.495 272.152 202.994 272.466 203.492 C 284.001 196.672 295.535 189.853 307.069 183.033 C 310.333 182.563 310.387 184.611 310.413 187.012 C 310.485 193.678 310.726 200.342 310.573 207.473 C 301.932 213.748 293.618 219.557 285.063 225.572 C 283.955 226.273 283.089 226.767 282.222 227.262 C 282.367 227.549 282.512 227.837 282.657 228.124 C 283.795 227.443 284.933 226.762 286.428 226.037 C 294.841 221.277 302.897 216.56 310.954 211.844 C 311.099 211.923 311.335 211.971 311.376 212.087 C 314.188 220.008 319.941 224.366 328.045 225.891 C 328.751 226.024 329.453 226.331 330.153 226.322 C 343.512 226.135 356.871 225.913 370.541 226.162 C 369.852 227.437 368.879 228.285 367.848 229.055 C 359.674 235.154 351.489 241.239 343.017 247.55 C 342.178 248.203 341.629 248.635 341.081 249.067 C 341.238 249.278 341.396 249.488 341.554 249.699 C 342.392 249.159 343.23 248.618 344.428 248.034 C 356.855 240.993 368.922 233.996 380.989 226.999 C 382.052 226.395 383.112 225.278 384.178 225.273 C 389.882 225.249 395.587 225.501 401.532 226.148 C 392.616 233.202 383.462 239.765 374.095 246.516 C 373.783 247.076 373.682 247.45 373.581 247.824 C 374.078 247.577 374.575 247.329 375.432 247.038 C 383.359 242.661 390.964 238.392 398.479 233.969 C 402.751 231.454 406.876 228.687 411.067 226.034 C 417.543 225.85 424.019 225.665 430.662 226.077 C 420.655 234.225 410.481 241.777 400.019 249.549 C 399.188 250.191 398.646 250.613 398.103 251.035 C 398.248 251.242 398.394 251.449 398.539 251.656 C 399.383 251.131 400.227 250.606 401.429 250.037 C 403.623 248.973 405.478 247.987 407.291 246.93 C 419.222 239.973 431.143 233 443.068 226.033 C 448.854 225.78 462.148 222.662 462.54 228.433 C 466.537 287.211 465.899 235.288 465.902 236.192 C 465.916 240.665 465.66 243.583 464.583 247.823 C 465.207 249.489 463.904 252.634 463.943 254.314 C 464.139 262.788 464.183 263.119 463.962 271.591 C 463.916 273.376 462.869 275.388 461.719 276.853 C 449.116 292.905 432.055 300.945 412.291 303.992 C 409.502 304.422 406.685 304.666 403.547 304.665 C 405.373 302.446 407.533 300.558 409.905 298.485 C 410.221 297.931 410.325 297.564 410.429 297.197 C 409.928 297.438 409.428 297.678 408.569 297.962 C 404.824 300.338 401.438 302.671 398.052 305.004 C 384.56 304.784 371.069 304.565 357.345 303.876 C 362.307 299.497 367.5 295.586 372.98 291.459 C 373.829 290.884 374.392 290.524 374.955 290.165 C 374.812 289.909 374.668 289.653 374.525 289.398 C 373.66 289.905 372.794 290.412 371.569 290.963 C 363.774 295.323 356.339 299.64 348.905 303.956 C 336.473 303.729 324.042 303.501 311.337 302.862 C 320.217 295.547 329.371 288.644 338.526 281.74 C 338.252 281.294 337.978 280.849 337.704 280.404 C 324.78 287.925 311.855 295.446 298.931 302.967 C 293.145 302.773 287.359 302.578 281.35 301.891 C 288.649 295.823 296.171 290.247 303.944 284.477 C 305.052 283.764 305.909 283.245 306.766 282.726 C 306.619 282.444 306.472 282.163 306.325 281.881 C 305.193 282.56 304.06 283.239 302.571 283.963 C 292.12 289.993 282.025 295.98 271.931 301.967 C 265.602 301.997 259.272 302.028 252.581 301.692 C 261.043 294.774 269.868 288.221 278.981 281.447 C 279.814 280.802 280.359 280.379 280.904 279.956 C 280.75 279.75 280.597 279.543 280.444 279.337 C 279.605 279.864 278.767 280.391 277.571 280.963 C 272.87 283.464 268.483 285.844 264.196 288.393 C 256.723 292.837 249.311 297.386 241.873 301.891 C 227.931 301.664 213.988 301.345 200.045 301.255 C 194.785 301.221 189.522 301.935 184.261 301.92 C 175.723 301.897 167.184 301.555 158.4 300.861 C 169 292.808 179.845 285.242 190.979 277.457 C 191.807 276.818 192.348 276.398 192.889 275.977 C 192.74 275.777 192.591 275.577 192.442 275.376 C 191.607 275.893 190.771 276.409 189.576 276.97 C 175.454 284.998 161.693 292.982 147.931 300.967 C 142.494 300.778 137.057 300.589 131.388 299.885 C 134.276 297.188 137.395 295.005 140.514 292.822 C 140.243 292.358 139.972 291.893 139.7 291.429 C 135.099 294.28 130.499 297.132 125.898 299.983 C 120.55 299.691 115.202 299.399 109.531 298.719 C 118.631 291.804 128.053 285.277 137.474 278.75 C 137.197 278.28 136.919 277.811 136.642 277.341 C 125.071 284.216 113.501 291.092 101.931 297.967 C 90.885 296.706 79.839 295.446 68.551 293.764 C 76.437 287.785 84.566 282.227 92.982 276.45 C 93.809 275.811 94.35 275.393 94.891 274.974 C 94.743 274.775 94.595 274.576 94.448 274.377 C 93.607 274.89 92.766 275.402 91.566 275.959 C 81.424 281.65 71.64 287.297 61.857 292.944 C 52.394 290.113 42.931 287.282 33.32 283.903 C 35.618 281.482 38.063 279.61 40.508 277.738 C 40.259 277.346 40.011 276.955 39.763 276.563 C 36.531 278.426 33.298 280.289 30.066 282.152 C 25.994 281.032 21.895 279.945 21.375 274.435 C 27.316 269.613 32.907 265.213 38.498 260.812 C 38.215 260.389 37.932 259.966 37.649 259.543 C 31.731 262.992 25.814 266.441 19.897 269.89 M 142.179 290.018 C 141.653 290.501 141.127 290.984 140.601 291.467 C 140.803 291.702 141.006 291.936 141.208 292.171 C 142.037 291.671 142.865 291.172 144.272 290.235 C 144.816 289.808 145.36 289.381 145.905 288.954 C 145.751 288.748 145.597 288.543 145.444 288.337 C 144.605 288.864 143.767 289.391 142.179 290.018 M 139.177 276.019 C 138.648 276.506 138.119 276.992 137.59 277.479 C 137.792 277.714 137.995 277.949 138.197 278.183 C 139.03 277.681 139.862 277.178 141.271 276.24 C 141.812 275.817 142.353 275.394 142.893 274.971 C 142.744 274.771 142.595 274.57 142.445 274.37 C 141.606 274.886 140.768 275.402 139.177 276.019 M 340.178 279.019 C 339.65 279.504 339.123 279.989 338.596 280.474 C 338.799 280.709 339.001 280.943 339.204 281.178 C 340.034 280.676 340.864 280.173 342.118 279.298 C 342.225 278.933 342.331 278.568 342.438 278.202 C 341.935 278.441 341.432 278.68 340.178 279.019 M 267.839 204.671 C 266.96 205.209 266.081 205.747 265.202 206.285 C 265.357 206.558 265.512 206.831 265.667 207.103 C 266.804 206.427 267.94 205.752 269.825 204.98 C 270.354 204.503 270.883 204.026 271.412 203.548 C 271.214 203.31 271.017 203.072 270.819 202.834 C 270 203.314 269.18 203.794 267.839 204.671 M 146.16 273.24 C 146.262 273.115 146.392 273.002 146.456 272.86 C 146.5 272.761 146.455 272.621 146.45 272.499 C 145.328 272.884 144.205 273.269 143.083 273.653 C 143.205 273.924 143.327 274.195 143.448 274.466 C 144.184 274.237 144.92 274.007 146.16 273.24 M 42.837 274.661 C 42.236 275.013 41.636 275.364 41.036 275.716 C 41.323 275.965 41.61 276.214 41.897 276.462 C 42.396 275.705 42.896 274.948 42.837 274.661 M 195.647 274.788 C 195.963 274.423 196.287 274.063 196.581 273.68 C 196.6 273.655 196.389 273.453 195.994 272.996 C 195.04 273.592 194.052 274.209 193.065 274.827 C 193.233 275.055 193.401 275.284 193.569 275.512 C 194.024 275.349 194.479 275.186 195.647 274.788 M 149.135 286.148 C 148.091 286.654 147.047 287.159 146.003 287.665 C 146.164 287.972 146.326 288.279 146.487 288.587 C 147.536 287.948 148.584 287.31 149.135 286.148 M 165.59 221.759 C 165.659 221.612 165.75 221.471 165.79 221.317 C 165.825 221.185 165.801 221.038 165.803 220.898 C 164.693 221.28 163.582 221.661 162.471 222.043 C 162.594 222.341 162.717 222.639 162.839 222.936 C 163.517 222.627 164.194 222.318 165.59 221.759 M 396.181 253.324 C 396.787 252.965 397.393 252.606 397.999 252.247 C 397.706 251.996 397.414 251.745 397.121 251.495 C 396.62 252.263 396.12 253.031 396.181 253.324 M 339.057 249.998 C 338.493 250.417 337.929 250.836 337.365 251.254 C 337.64 251.488 337.914 251.721 338.189 251.955 C 338.721 251.23 339.253 250.504 339.057 249.998 M 51.806 165.824 C 52.156 165.605 52.506 165.387 52.855 165.168 C 52.393 165.19 51.931 165.213 51.806 165.824 M 376.535 288.76 C 376.172 288.597 375.809 288.434 375.446 288.271 C 375.382 288.552 375.318 288.833 375.254 289.114 C 375.514 289.15 375.774 289.187 376.535 288.76 M 282.536 278.76 C 282.173 278.597 281.81 278.434 281.447 278.27 C 281.383 278.552 281.319 278.833 281.255 279.114 C 281.515 279.151 281.774 279.187 282.536 278.76 M 96.189 273.177 C 95.84 273.395 95.491 273.613 95.142 273.831 C 95.603 273.81 96.063 273.788 96.189 273.177 M 39.457 258.206 C 39.472 258.602 39.487 258.997 39.503 259.392 C 39.659 259.338 39.923 259.318 39.953 259.224 C 40.059 258.884 40.087 258.519 39.457 258.206 M 32.192 244.177 C 31.843 244.395 31.494 244.613 31.145 244.832 C 31.606 244.81 32.067 244.788 32.192 244.177 M 189.903 223.209 C 189.555 223.095 189.212 222.952 188.855 222.888 C 188.761 222.871 188.623 223.099 188.505 223.215 C 188.848 223.41 189.192 223.604 189.903 223.209 M 27.194 229.176 C 26.845 229.394 26.495 229.613 26.145 229.832 C 26.607 229.81 27.069 229.787 27.194 229.176 Z">
    </path>
    <path fill="#31659C" opacity="1.000000" stroke="none" d="
M252.944595,176.973694 
	C245.428864,176.831497 239.596863,172.301346 238.174377,165.500580 
	C236.670517,158.310745 239.781754,151.480972 245.996735,149.017548 
	C247.701736,148.341736 249.778152,148.602982 251.765778,149.033997 
	C250.934601,151.156982 250.021790,152.680206 249.108994,154.203430 
	C249.314682,154.357666 249.520386,154.511902 249.726074,154.666138 
	C252.835251,152.786133 255.944427,150.906128 259.053619,149.026123 
	C272.061646,150.733368 285.063416,149.108749 298.424438,149.306610 
	C296.624573,152.561127 294.468231,155.461914 292.115479,158.533234 
	C291.823730,159.052994 291.728333,159.402237 291.632935,159.751465 
	C292.111725,159.528259 292.590515,159.305038 293.425964,159.032715 
	C299.539246,155.664551 305.295868,152.345474 311.052490,149.026398 
	C317.201874,148.550537 323.351288,148.074692 329.744232,148.170944 
	C327.039795,152.511246 324.091797,156.279465 321.143799,160.047668 
	C321.399506,160.367065 321.655243,160.686447 321.910950,161.005829 
	C328.941254,156.681915 335.971527,152.357986 343.001801,148.034058 
	C348.992981,148.119019 354.993713,148.023163 360.972626,148.339539 
	C367.009247,148.658997 373.018127,149.469147 379.050232,149.914322 
	C385.601410,150.397797 390.449554,154.066437 394.174103,158.847290 
	C397.484222,163.096191 395.682770,168.101669 393.908539,172.634781 
	C392.481659,176.280380 389.554626,177.864426 385.648651,177.836929 
	C378.929932,177.789627 372.210510,177.852371 365.491699,177.813232 
	C363.844055,177.803650 362.197693,177.578796 360.369568,176.901001 
	C362.014496,174.114761 363.840576,171.880463 365.864319,169.478256 
	C366.166321,168.960922 366.270660,168.611481 366.375000,168.262054 
	C365.901917,168.490189 365.428864,168.718307 364.599121,168.994141 
	C360.883575,171.103271 357.524689,173.164688 354.165802,175.226105 
	C352.663879,176.171021 351.167969,177.926529 349.659088,177.937744 
	C330.859253,178.077576 312.057526,177.966293 293.256317,177.903870 
	C292.771515,177.902267 292.287292,177.723465 291.841217,177.349915 
	C296.171692,175.278915 300.094452,171.006836 301.067780,166.176620 
	C294.595734,170.033447 288.772247,173.503784 282.948761,176.974121 
	C276.816925,177.133514 270.685120,177.292923 264.374146,176.897308 
	C266.734863,173.147293 269.274689,169.952286 271.814545,166.757278 
	C271.525909,166.447372 271.237274,166.137451 270.948639,165.827545 
	C264.947266,169.542923 258.945923,173.258301 252.944595,176.973694 
M302.495239,166.323868 
	C302.725281,165.978943 302.955322,165.634018 303.185394,165.289108 
	C302.862671,165.452286 302.539978,165.615479 302.495239,166.323868 
z"></path>
    <path fill="#6DDADC" opacity="1.000000" stroke="none" d="
M338.917480,218.971786 
	C331.848846,219.806183 323.279877,210.877609 322.468109,203.167282 
	C321.781158,196.642273 322.326508,189.987518 322.326508,182.542587 
	C331.807129,183.025757 340.456848,183.517944 349.112518,183.861069 
	C350.699646,183.923996 352.326721,183.453552 353.908081,183.105530 
	C360.815521,181.585358 363.554413,183.083557 366.140686,189.786469 
	C366.326324,190.267624 366.940674,190.579102 367.343903,190.981247 
	C370.082764,193.712509 372.870850,196.397171 375.533691,199.200745 
	C376.925842,200.666443 378.097290,202.341904 379.366211,203.924423 
	C383.484100,209.059982 387.601013,214.196365 392.271698,220.022781 
	C387.835022,220.022781 384.399933,220.022781 380.484894,219.583954 
	C380.004944,217.259781 380.004944,215.374435 380.004944,212.943436 
	C376.617859,214.835739 373.713470,216.407043 370.892975,218.116730 
	C370.622742,218.280548 370.875092,219.306564 370.884857,219.932312 
	C363.484772,220.207504 356.084686,220.482697 348.728210,220.301498 
	C351.082794,216.783295 353.393738,213.721466 355.925140,210.466248 
	C356.305450,209.933243 356.465332,209.593643 356.625214,209.254059 
	C356.059204,209.476440 355.493195,209.698822 354.565613,209.961884 
	C349.108521,212.992310 344.013000,215.982040 338.917480,218.971786 
z"></path>
    <path fill="#31659C" opacity="1.000000" stroke="none" d="
M79.907776,217.347397 
	C85.975456,217.544418 92.043144,217.741425 98.506332,218.355255 
	C96.908691,221.821716 94.915550,224.871368 92.645065,227.978180 
	C91.911301,228.356461 91.454880,228.677612 90.914909,229.039093 
	C90.831352,229.079407 90.824600,229.302292 90.824600,229.302292 
	C90.824600,229.302292 91.001289,229.001831 91.289520,228.967590 
	C92.065483,228.641693 92.553207,228.350037 93.387543,227.991287 
	C97.851883,224.903793 101.969612,221.883392 106.087334,218.862976 
	C110.973640,217.439438 115.392525,218.398254 118.566429,222.349060 
	C119.814476,223.902557 119.818115,226.458542 120.377190,228.560989 
	C120.531754,229.142212 120.508118,229.815643 120.799683,230.308746 
	C124.177963,236.022461 122.411644,241.441772 115.593636,243.351212 
	C110.583061,244.754471 105.144836,244.630737 99.451424,244.719040 
	C101.335358,240.165848 103.665062,236.081070 106.074600,231.957260 
	C106.154442,231.918213 106.160866,231.711502 106.160866,231.711502 
	C106.160866,231.711502 106.004410,232.005920 105.636642,232.010361 
	C97.840813,236.349365 90.412735,240.683945 82.984665,245.018524 
	C77.826233,244.608795 72.667801,244.199066 67.361870,243.236069 
	C69.333923,240.168671 71.453476,237.654526 73.573021,235.140381 
	C73.330795,234.918747 73.088570,234.697113 72.846336,234.475479 
	C69.152359,235.997482 65.458374,237.519470 61.764397,239.041458 
	C54.614002,229.191391 58.426552,219.638031 70.551361,218.294144 
	C69.764030,221.165314 68.630196,223.633957 67.496353,226.102615 
	C67.874825,226.491058 68.253296,226.879517 68.631760,227.267975 
	C72.390434,223.961121 76.149109,220.654251 79.907776,217.347397 
z"></path>
    <path fill="#31659C" opacity="1.000000" stroke="none" d="
M409.122009,314.031433 
	C414.143585,315.296936 418.799561,316.800415 421.299652,322.187256 
	C422.664001,325.126953 425.919342,327.227905 427.126373,330.193695 
	C429.778503,336.710114 427.602173,339.675781 420.640259,339.819946 
	C412.757782,339.983154 404.871002,339.940491 396.515991,339.623413 
	C397.538269,337.105011 399.030670,334.950470 400.523102,332.795929 
	C400.242004,332.468353 399.960907,332.140778 399.679840,331.813202 
	C397.735382,332.818573 395.790955,333.823914 393.492462,334.886902 
	C390.143036,336.552277 387.147675,338.160004 384.152283,339.767731 
	C381.963898,337.838348 376.932526,338.871582 377.304718,334.589264 
	C377.737305,329.611359 378.215149,324.000793 380.762207,319.992035 
	C384.605896,313.942596 391.485596,312.100800 398.774841,313.085999 
	C396.675812,316.903625 394.499817,320.152039 392.323792,323.400452 
	C392.604614,323.664276 392.885468,323.928101 393.166321,324.191895 
	C398.484863,320.805084 403.803436,317.418243 409.122009,314.031433 
M401.733887,331.474701 
	C401.577637,331.163177 401.421417,330.851654 401.265198,330.540131 
	C401.159149,330.639343 400.954163,330.750793 400.964661,330.835602 
	C401.003967,331.153412 401.113739,331.462494 401.733887,331.474701 
z"></path>
    <path fill="#31649B" opacity="1.000000" stroke="none" d="
M310.909760,322.829895 
	C312.901978,326.129944 315.324127,329.253845 316.768066,332.778503 
	C318.276764,336.461273 316.364105,338.131104 312.352325,338.037964 
	C306.928802,337.912079 301.495728,338.268372 296.065796,338.322845 
	C292.287231,338.360779 288.507050,338.239197 284.367065,337.739990 
	C285.912811,334.055969 287.819092,330.820862 289.725372,327.585724 
	C289.420410,327.347443 289.115417,327.109131 288.810455,326.870819 
	C286.820496,328.248566 284.830505,329.626312 282.478394,331.019531 
	C278.051758,333.296783 273.987244,335.558563 269.922699,337.820312 
	C265.386475,336.971710 263.643372,334.601837 265.300507,330.158417 
	C268.253693,322.239563 273.065155,314.973389 281.827667,313.791779 
	C290.407959,312.634705 299.879822,311.338348 306.607971,319.723114 
	C305.328613,321.935089 304.321014,323.649353 303.117615,325.534180 
	C302.826050,326.053192 302.730255,326.401672 302.634460,326.750153 
	C303.112427,326.527069 303.590424,326.303986 304.417816,326.031311 
	C306.814728,324.931152 308.862244,323.880524 310.909760,322.829895 
z"></path>
    <path fill="#697282" opacity="1.000000" stroke="none" d="
M301.746185,368.916199 
	C294.834290,373.085968 288.301910,372.229645 282.160095,368.318512 
	C275.602631,364.142761 271.823334,358.188477 271.863647,350.093201 
	C271.878876,347.038208 273.128510,346.062134 276.066742,346.095886 
	C285.874603,346.208557 295.686218,346.242493 305.492798,346.083405 
	C309.052765,346.025696 310.055237,347.599365 310.161682,350.855438 
	C310.401855,358.202576 307.844849,364.157715 301.746185,368.916199 
z"></path>
    <path fill="#6A7383" opacity="1.000000" stroke="none" d="
M391.979797,366.985535 
	C385.579071,363.270325 381.592926,355.066254 383.070953,347.963196 
	C383.315948,346.785706 384.978210,345.100800 386.059540,345.043365 
	C390.010315,344.833435 393.993164,345.357788 397.962463,345.335815 
	C403.713562,345.303986 409.477417,345.229309 415.209167,344.809021 
	C419.567719,344.489410 421.131439,346.201294 421.176910,350.464691 
	C421.278442,359.994995 416.986694,367.894165 409.427124,370.832581 
	C405.312866,372.431854 401.089142,373.048096 397.502258,369.294464 
	C399.840149,366.103149 401.955200,363.451996 404.070282,360.800842 
	C403.733002,360.440186 403.395752,360.079559 403.058502,359.718903 
	C399.365601,362.141113 395.672699,364.563324 391.979797,366.985535 
z"></path>
    <path fill="#000000" opacity="1.000000" stroke="none" d="
M400.306335,249.329132 
	C410.480743,241.777100 420.655151,234.225052 430.981873,226.358948 
	C434.803711,226.032898 438.473206,226.020905 442.605408,226.021011 
	C431.143402,233.000366 419.221588,239.972626 407.290863,246.929596 
	C405.477631,247.986938 403.622925,248.973236 401.242126,249.844635 
	C400.566620,249.574265 400.436462,249.451691 400.306335,249.329132 
z"></path>
    <path fill="#000000" opacity="1.000000" stroke="none" d="
M299.391571,302.978790 
	C311.855499,295.445709 324.779602,287.924713 337.703705,280.403717 
	C337.977661,280.849060 338.251648,281.294434 338.525604,281.739807 
	C329.371185,288.643555 320.216797,295.547272 310.857361,302.744385 
	C307.052155,303.022156 303.451935,303.006500 299.391571,302.978790 
z"></path>
    <path fill="#000000" opacity="1.000000" stroke="none" d="
M343.307129,247.328156 
	C351.488861,241.238998 359.674042,235.154449 367.848022,229.054932 
	C368.879333,228.285339 369.851898,227.436966 370.997253,226.306427 
	C374.219452,226.151443 377.296051,226.315109 380.680786,226.738861 
	C368.921997,233.996048 356.855072,240.993149 344.242065,247.842499 
	C343.566376,247.572556 343.436737,247.450363 343.307129,247.328156 
z"></path>
    <path fill="#000000" opacity="1.000000" stroke="none" d="
M148.385345,300.978790 
	C161.692673,292.982300 175.454407,284.997833 189.760574,277.161285 
	C190.433777,277.431244 190.562561,277.553314 190.691345,277.675354 
	C179.845428,285.241699 168.999512,292.808014 158.006775,300.694641 
	C154.853241,301.006866 151.846512,300.998840 148.385345,300.978790 
z"></path>
    <path fill="#000000" opacity="1.000000" stroke="none" d="
M235.717957,196.076996 
	C229.617706,200.043869 223.146576,204.045883 216.586411,207.896164 
	C209.028717,212.331924 201.392365,216.633667 193.243561,220.845413 
	C192.566681,220.574600 192.436432,220.451981 192.306183,220.329376 
	C200.112305,214.906219 207.940674,209.514542 215.701965,204.027954 
	C216.949066,203.146378 217.896744,201.841217 218.989136,200.374664 
	C224.432846,198.693344 229.870285,197.369217 235.717957,196.076996 
z"></path>
    <path fill="#000000" opacity="1.000000" stroke="none" d="
M242.333588,301.926666 
	C249.311127,297.385986 256.722778,292.837219 264.196411,288.392761 
	C268.483093,285.843536 272.870453,283.463623 277.757812,281.154694 
	C278.433350,281.424042 278.563568,281.546204 278.693817,281.668396 
	C269.868469,288.221039 261.043121,294.773682 252.114075,301.654175 
	C248.938126,301.975464 245.865906,301.968872 242.333588,301.926666 
z"></path>
    <path fill="#000000" opacity="1.000000" stroke="none" d="
M410.614960,226.021912 
	C406.875793,228.687286 402.751465,231.454010 398.478851,233.968765 
	C390.964294,238.391663 383.359070,242.660568 375.245117,246.845123 
	C374.568115,246.573700 374.437744,246.451111 374.307373,246.328522 
	C383.461823,239.765244 392.616272,233.201950 401.912598,226.319962 
	C404.757324,226.004105 407.460175,226.006973 410.614960,226.021912 
z"></path>
    <path fill="#3C7AC7" opacity="1.000000" stroke="none" d="
M83.451218,245.059784 
	C90.412735,240.683945 97.840813,236.349365 105.634460,232.007401 
	C106.000038,232.000000 105.994766,231.996307 105.994766,231.996307 
	C103.665062,236.081070 101.335358,240.165848 98.996262,244.614105 
	C93.963829,245.018768 88.940796,245.059921 83.451218,245.059784 
z"></path>
    <path fill="#000000" opacity="1.000000" stroke="none" d="
M102.336288,297.979034 
	C113.501266,291.091522 125.071411,284.216248 136.641556,277.340973 
	C136.919159,277.810699 137.196762,278.280426 137.474365,278.750153 
	C128.052704,285.277130 118.631035,291.804108 109.106384,298.658508 
	C106.916077,298.654419 104.828758,298.322845 102.336288,297.979034 
z"></path>
    <path fill="#000000" opacity="1.000000" stroke="none" d="
M303.693451,284.671356 
	C296.171356,290.247070 288.649292,295.822815 280.963135,301.710510 
	C278.141052,302.011963 275.483032,302.001465 272.377930,301.978912 
	C282.025391,295.980133 292.119934,289.993439 302.758667,284.154968 
	C303.432983,284.425964 303.563202,284.548645 303.693451,284.671356 
z"></path>
    <path fill="#000000" opacity="1.000000" stroke="none" d="
M306.649414,183.022415 
	C295.534882,189.852936 284.000580,196.672409 272.466309,203.491882 
	C272.151825,202.993561 271.837372,202.495255 271.522919,201.996948 
	C280.272217,196.210434 289.021545,190.423920 297.914124,184.317780 
	C300.781464,183.669205 303.505585,183.340286 306.649414,183.022415 
z"></path>
    <path fill="#000000" opacity="1.000000" stroke="none" d="
M342.539429,148.029938 
	C335.971527,152.357986 328.941254,156.681915 321.910950,161.005829 
	C321.655243,160.686447 321.399506,160.367065 321.143799,160.047668 
	C324.091797,156.279465 327.039795,152.511246 330.041718,148.395706 
	C334.089447,148.040848 338.083221,148.033340 342.539429,148.029938 
z"></path>
    <path fill="#000000" opacity="1.000000" stroke="none" d="
M62.257038,292.962646 
	C71.640442,287.297333 81.423775,281.650238 91.754562,276.151672 
	C92.432930,276.423248 92.563835,276.546234 92.694740,276.669250 
	C84.565796,282.227173 76.436852,287.785065 68.164757,293.653900 
	C66.233391,293.636810 64.445183,293.308807 62.257038,292.962646 
z"></path>
    <path fill="#000000" opacity="1.000000" stroke="none" d="
M310.967163,211.441742 
	C302.897278,216.560364 294.841003,221.276855 286.241211,225.853302 
	C285.566650,225.597443 285.435547,225.481628 285.304443,225.365814 
	C293.618195,219.556976 301.931915,213.748138 310.599609,207.880554 
	C310.962616,208.894394 310.971680,209.966995 310.967163,211.441742 
z"></path>
    <path fill="#000000" opacity="1.000000" stroke="none" d="
M283.403015,176.983765 
	C288.772247,173.503784 294.595734,170.033447 301.067780,166.176620 
	C300.094452,171.006836 296.171692,175.278915 291.522217,177.104645 
	C288.728973,177.088989 286.293121,177.041199 283.403015,176.983765 
z"></path>
    <path fill="#000000" opacity="1.000000" stroke="none" d="
M292.311859,158.362701 
	C294.468231,155.461914 296.624573,152.561127 298.890930,149.336914 
	C302.708832,149.010956 306.416748,149.008453 310.588593,149.016174 
	C305.295868,152.345474 299.539246,155.664551 293.245331,158.843750 
	C292.575989,158.590164 292.443909,158.476425 292.311859,158.362701 
z"></path>
    <path fill="#000000" opacity="1.000000" stroke="none" d="
M408.715149,313.962494 
	C403.803436,317.418243 398.484863,320.805084 393.166321,324.191895 
	C392.885468,323.928101 392.604614,323.664276 392.323792,323.400452 
	C394.499817,320.152039 396.675812,316.903625 399.045990,313.361145 
	C402.262848,313.342560 405.285583,313.618073 408.715149,313.962494 
z"></path>
    <path fill="#000000" opacity="1.000000" stroke="none" d="
M253.404175,176.983627 
	C258.945923,173.258301 264.947266,169.542923 270.948639,165.827545 
	C271.237274,166.137451 271.525909,166.447372 271.814545,166.757278 
	C269.274689,169.952286 266.734863,173.147293 264.036926,176.645309 
	C260.540466,176.963409 257.202118,176.978500 253.404175,176.983627 
z"></path>
    <path fill="#000000" opacity="1.000000" stroke="none" d="
M19.928741,270.256714 
	C25.814180,266.440765 31.731358,262.991760 37.648537,259.542786 
	C37.931808,259.965973 38.215084,260.389191 38.498356,260.812408 
	C32.906952,265.212799 27.315548,269.613220 21.371956,274.068176 
	C20.666668,272.956329 20.313572,271.790009 19.928741,270.256714 
z"></path>
    <path fill="#000000" opacity="1.000000" stroke="none" d="
M355.704681,210.659637 
	C353.393738,213.721466 351.082794,216.783295 348.461884,219.987442 
	C345.326263,219.772385 342.500641,219.415024 339.296234,219.014725 
	C344.013000,215.982040 349.108521,212.992310 354.757660,210.148926 
	C355.442444,210.416748 355.573578,210.538193 355.704681,210.659637 
z"></path>
    <path fill="#000000" opacity="1.000000" stroke="none" d="
M349.344482,303.971375 
	C356.339386,299.639893 363.774200,295.323364 371.756042,291.155945 
	C372.433197,291.428345 372.563385,291.551636 372.693573,291.674927 
	C367.500153,295.585785 362.306702,299.496643 356.942993,303.717224 
	C354.443268,304.013367 352.113831,303.999817 349.344482,303.971375 
z"></path>
    <path fill="#3A78C2" opacity="1.000000" stroke="none" d="
M92.922401,227.921036 
	C94.915550,224.871368 96.908691,221.821716 98.969940,218.441437 
	C101.277321,218.159103 103.516586,218.207367 105.921593,218.559296 
	C101.969612,221.883392 97.851883,224.903793 93.358612,227.955719 
	C92.983055,227.987213 92.922401,227.921036 92.922401,227.921036 
z"></path>
    <path fill="#3B77C1" opacity="1.000000" stroke="none" d="
M79.494049,217.257080 
	C76.149109,220.654251 72.390434,223.961121 68.631760,227.267975 
	C68.253296,226.879517 67.874825,226.491058 67.496353,226.102615 
	C68.630196,223.633957 69.764030,221.165314 70.948166,218.342331 
	C73.692406,217.714249 76.386360,217.440506 79.494049,217.257080 
z"></path>
    <path fill="#6A7484" opacity="1.000000" stroke="none" d="
M270.388611,337.878479 
	C273.987244,335.558563 278.051758,333.296783 282.540894,331.423553 
	C282.623566,333.871643 282.281647,335.931244 281.939728,337.990814 
	C278.244659,337.972748 274.549561,337.954681 270.388611,337.878479 
z"></path>
    <path fill="#000000" opacity="1.000000" stroke="none" d="
M16.029545,253.468719 
	C20.625790,250.628876 25.209835,248.150681 29.793879,245.672470 
	C30.044628,246.055557 30.295378,246.438629 30.546127,246.821701 
	C26.097540,250.330582 21.648952,253.839478 16.999592,257.633240 
	C16.538326,256.555542 16.277834,255.192963 16.029545,253.468719 
z"></path>
    <path fill="#000000" opacity="1.000000" stroke="none" d="
M392.291626,367.156097 
	C395.672699,364.563324 399.365601,362.141113 403.058502,359.718903 
	C403.395752,360.079559 403.733002,360.440186 404.070282,360.800842 
	C401.955200,363.451996 399.840149,366.103149 397.443604,368.937988 
	C395.642548,368.523315 394.122986,367.924988 392.291626,367.156097 
z"></path>
    <path fill="#3B78C3" opacity="1.000000" stroke="none" d="
M61.898991,239.361038 
	C65.458374,237.519470 69.152359,235.997482 72.846336,234.475479 
	C73.088570,234.697113 73.330795,234.918747 73.573021,235.140381 
	C71.453476,237.654526 69.333923,240.168671 67.060135,243.004745 
	C65.281784,242.111313 63.657688,240.895966 61.898991,239.361038 
z"></path>
    <path fill="#000000" opacity="1.000000" stroke="none" d="
M371.343933,219.953278 
	C370.875092,219.306564 370.622742,218.280548 370.892975,218.116730 
	C373.713470,216.407043 376.617859,214.835739 380.004944,212.943436 
	C380.004944,215.374435 380.004944,217.259781 380.033081,219.561600 
	C377.308502,219.976791 374.555786,219.975510 371.343933,219.953278 
z"></path>
    <path fill="#000000" opacity="1.000000" stroke="none" d="
M365.666656,169.646164 
	C363.840576,171.880463 362.014496,174.114761 360.032532,176.648239 
	C358.096466,176.566269 356.316315,176.185120 354.351013,175.515045 
	C357.524689,173.164688 360.883575,171.103271 364.766937,169.179108 
	C365.291443,169.316376 365.666656,169.646164 365.666656,169.646164 
z"></path>
    <path fill="#000000" opacity="1.000000" stroke="none" d="
M168.308304,218.324844 
	C170.191345,216.460754 172.074387,214.596664 173.935913,212.385559 
	C177.358032,211.364807 180.801697,210.691086 184.656937,210.025391 
	C179.973633,213.017853 174.878738,216.002304 169.239334,218.838837 
	C168.565979,218.568909 168.437134,218.446869 168.308304,218.324844 
z"></path>
    <path fill="#000000" opacity="1.000000" stroke="none" d="
M69.352997,210.011353 
	C71.265244,207.601608 73.577431,205.123077 76.118759,202.386169 
	C78.472404,208.089523 77.422005,209.334198 69.352997,210.011353 
z"></path>
    <path fill="#000000" opacity="1.000000" stroke="none" d="
M282.267029,337.993652 
	C282.281647,335.931244 282.623566,333.871643 282.903015,331.408081 
	C284.830505,329.626312 286.820496,328.248566 288.810455,326.870819 
	C289.115417,327.109131 289.420410,327.347443 289.725372,327.585724 
	C287.819092,330.820862 285.912811,334.055969 283.955017,337.647217 
	C283.467133,338.001068 283.030731,337.998779 282.267029,337.993652 
z"></path>
    <path fill="#000000" opacity="1.000000" stroke="none" d="
M126.311813,299.989502 
	C130.498550,297.131592 135.099472,294.280365 139.700378,291.429108 
	C139.971588,291.893463 140.242783,292.357788 140.513977,292.822144 
	C137.394852,295.005066 134.275726,297.188019 131.010864,299.692688 
	C129.485428,300.008331 128.105713,300.002258 126.311813,299.989502 
z"></path>
    <path fill="#000000" opacity="1.000000" stroke="none" d="
M15.000015,236.444000 
	C18.281673,234.213760 21.559448,232.386597 24.837221,230.559448 
	C25.114002,230.977066 25.390783,231.394699 25.667564,231.812317 
	C22.336670,234.482315 19.005777,237.152313 15.354123,239.946152 
	C15.020952,238.995697 15.008542,237.921402 15.000015,236.444000 
z"></path>
    <path fill="#000000" opacity="1.000000" stroke="none" d="
M393.846527,334.829285 
	C395.790955,333.823914 397.735382,332.818573 399.679840,331.813202 
	C399.960907,332.140778 400.242004,332.468353 400.523102,332.795929 
	C399.030670,334.950470 397.538269,337.105011 396.051117,339.616180 
	C394.958832,339.981354 393.861328,339.989899 392.390747,339.638367 
	C392.627319,337.795288 393.236938,336.312286 393.846527,334.829285 
z"></path>
    <path fill="#000000" opacity="1.000000" stroke="none" d="
M398.466492,304.993103 
	C401.437622,302.671143 404.823669,300.338470 408.755798,298.154602 
	C409.432251,298.425903 409.562683,298.548401 409.693115,298.670868 
	C407.532959,300.558411 405.372772,302.445953 403.122070,304.656738 
	C401.648132,304.980774 400.264801,304.981598 398.466492,304.993103 
z"></path>
    <path fill="#677386" opacity="1.000000" stroke="none" d="
M393.492462,334.886902 
	C393.236938,336.312286 392.627319,337.795288 391.979065,339.633240 
	C389.625793,339.964081 387.311157,339.940033 384.574402,339.841858 
	C387.147675,338.160004 390.143036,336.552277 393.492462,334.886902 
z"></path>
    <path fill="#000000" opacity="1.000000" stroke="none" d="
M258.681763,149.013962 
	C255.944427,150.906128 252.835251,152.786133 249.726074,154.666138 
	C249.520386,154.511902 249.314682,154.357666 249.108994,154.203430 
	C250.021790,152.680206 250.934601,151.156982 252.010452,149.333893 
	C254.218964,149.023300 256.264435,149.012558 258.681763,149.013962 
z"></path>
    <path fill="#000000" opacity="1.000000" stroke="none" d="
M30.248611,282.368988 
	C33.298336,280.288940 36.530529,278.426056 39.762722,276.563171 
	C40.011089,276.954742 40.259457,277.346283 40.507824,277.737854 
	C38.062824,279.610168 35.617825,281.482452 33.035397,283.677795 
	C32.075672,283.529236 31.253374,283.057678 30.248611,282.368988 
z"></path>
    <path fill="#000000" opacity="1.000000" stroke="none" d="
M303.313385,325.363617 
	C304.321014,323.649353 305.328613,321.935089 306.639771,320.065186 
	C308.160278,320.698669 309.377319,321.487732 310.752045,322.553345 
	C308.862244,323.880524 306.814728,324.931152 304.237854,325.842773 
	C303.576782,325.590393 303.445068,325.476990 303.313385,325.363617 
z"></path>
    <path fill="#000000" opacity="1.000000" stroke="none" d="
M61.833076,159.701279 
	C59.358540,161.461212 56.788727,162.954727 54.218914,164.448242 
	C54.010880,164.111237 53.802845,163.774246 53.594810,163.437241 
	C55.677017,161.513702 57.759228,159.590164 60.027466,157.374161 
	C60.721596,157.866089 61.229702,158.650467 61.833076,159.701279 
z"></path>
    <path fill="#000000" opacity="1.000000" stroke="none" d="
M462.886841,290.899780 
	C462.943542,290.247375 463.069031,289.651520 463.194519,289.055634 
	C463.388916,289.095520 463.583344,289.135406 463.777740,289.175323 
	C463.669464,289.684509 463.561218,290.193695 463.273743,290.885315 
	C463.094574,291.067749 462.955627,290.956329 462.886841,290.899780 
z"></path>
    <path fill="#000000" opacity="1.000000" stroke="none" d="
M145.908249,273.508850 
	C144.920227,274.006989 144.184174,274.236664 143.448120,274.466339 
	C143.326523,274.195374 143.204926,273.924408 143.083328,273.653473 
	C144.205460,273.268768 145.327576,272.884094 146.449707,272.499420 
	C146.454910,272.620972 146.500351,272.760651 146.455719,272.859772 
	C146.391617,273.002136 146.261917,273.114929 145.908249,273.508850 
z"></path>
    <path fill="#000000" opacity="1.000000" stroke="none" d="
M303.115601,284.110931 
	C304.060425,283.239380 305.192505,282.560181 306.324585,281.880951 
	C306.471680,282.162628 306.618744,282.444305 306.765839,282.725983 
	C305.908691,283.244843 305.051575,283.763702 303.943939,284.476959 
	C303.563202,284.548645 303.432983,284.425964 303.115601,284.110931 
z"></path>
    <path fill="#000000" opacity="1.000000" stroke="none" d="
M43.115772,274.425751 
	C42.895687,274.947876 42.396408,275.705048 41.897133,276.462189 
	C41.610184,276.213562 41.323238,275.964935 41.036293,275.716278 
	C41.636387,275.364441 42.236485,275.012634 43.115772,274.425751 
z"></path>
    <path fill="#000000" opacity="1.000000" stroke="none" d="
M195.290268,274.905396 
	C194.478973,275.185760 194.024033,275.348938 193.569092,275.512115 
	C193.400909,275.283661 193.232727,275.055176 193.064545,274.826721 
	C194.052231,274.209442 195.039917,273.592133 195.993515,272.996155 
	C196.389145,273.452942 196.600128,273.654968 196.580688,273.680328 
	C196.287140,274.063293 195.963333,274.423035 195.290268,274.905396 
z"></path>
    <path fill="#000000" opacity="1.000000" stroke="none" d="
M149.384033,286.409973 
	C148.584396,287.309845 147.535645,287.948181 146.486893,288.586517 
	C146.325592,288.279175 146.164307,287.971832 146.003006,287.664520 
	C147.046982,287.159149 148.090942,286.653809 149.384033,286.409973 
z"></path>
    <path fill="#000000" opacity="1.000000" stroke="none" d="
M165.230377,221.883530 
	C164.193771,222.317535 163.516525,222.626984 162.839279,222.936447 
	C162.716553,222.638687 162.593826,222.340912 162.471100,222.043152 
	C163.581894,221.661484 164.692688,221.279816 165.803482,220.898163 
	C165.801224,221.038254 165.824554,221.185059 165.790024,221.316696 
	C165.749542,221.471008 165.658722,221.612137 165.230377,221.883530 
z"></path>
    <path fill="#000000" opacity="1.000000" stroke="none" d="
M269.076538,205.075989 
	C267.940033,205.751694 266.803528,206.427399 265.667023,207.103104 
	C265.512115,206.830566 265.357208,206.558029 265.202301,206.285492 
	C266.081207,205.747253 266.960114,205.209015 268.273987,204.677307 
	C268.831512,204.814560 268.954041,204.945282 269.076538,205.075989 
z"></path>
    <path fill="#000000" opacity="1.000000" stroke="none" d="
M395.900146,253.562088 
	C396.119598,253.031494 396.620270,252.263062 397.120941,251.494629 
	C397.413666,251.745407 397.706421,251.996170 397.999146,252.246948 
	C397.393219,252.606049 396.787323,252.965149 395.900146,253.562088 
z"></path>
    <path fill="#000000" opacity="1.000000" stroke="none" d="
M339.420746,249.888306 
	C339.252625,250.503983 338.720581,251.229523 338.188568,251.955063 
	C337.914093,251.721481 337.639618,251.487885 337.365143,251.254288 
	C337.929047,250.835587 338.492920,250.416885 339.420746,249.888306 
z"></path>
    <path fill="#000000" opacity="1.000000" stroke="none" d="
M285.884674,225.897339 
	C284.933350,226.762177 283.795074,227.442902 282.656799,228.123627 
	C282.512024,227.836533 282.367218,227.549438 282.222443,227.262329 
	C283.088867,226.767456 283.955261,226.272583 285.063049,225.571762 
	C285.435547,225.481628 285.566650,225.597443 285.884674,225.897339 
z"></path>
    <path fill="#000000" opacity="1.000000" stroke="none" d="
M341.693176,279.671021 
	C340.863617,280.173370 340.034058,280.675720 339.204498,281.178070 
	C339.001495,280.943420 338.798523,280.708771 338.595520,280.474091 
	C339.122986,279.989075 339.650452,279.504028 340.740051,279.161469 
	C341.432526,279.426300 341.562836,279.548676 341.693176,279.671021 
z"></path>
    <path fill="#000000" opacity="1.000000" stroke="none" d="
M268.535095,204.478912 
	C269.180481,203.794098 269.999725,203.314224 270.819000,202.834335 
	C271.016510,203.072296 271.214020,203.310242 271.411530,203.548203 
	C270.882568,204.025543 270.353577,204.502869 269.450562,205.028107 
	C268.954041,204.945282 268.831512,204.814560 268.535095,204.478912 
z"></path>
    <path fill="#000000" opacity="1.000000" stroke="none" d="
M140.693710,276.674805 
	C139.861618,277.177704 139.029526,277.680603 138.197418,278.183472 
	C137.994797,277.948730 137.792160,277.713989 137.589539,277.479248 
	C138.118546,276.992432 138.647568,276.505585 139.739807,276.161804 
	C140.433258,276.428131 140.563477,276.551453 140.693710,276.674805 
z"></path>
    <path fill="#000000" opacity="1.000000" stroke="none" d="
M143.693695,290.672943 
	C142.865143,291.172211 142.036575,291.671478 141.208023,292.170746 
	C141.005524,291.936157 140.803009,291.701569 140.600510,291.466980 
	C141.126801,290.984131 141.653091,290.501251 142.741241,290.161194 
	C143.433304,290.427002 143.563507,290.549988 143.693695,290.672943 
z"></path>
    <path fill="#000000" opacity="1.000000" stroke="none" d="
M143.115967,290.111267 
	C143.767105,289.391357 144.605347,288.864166 145.443573,288.337006 
	C145.597244,288.542725 145.750900,288.748413 145.904572,288.954102 
	C145.360458,289.380920 144.816360,289.807739 143.982971,290.453735 
	C143.563507,290.549988 143.433304,290.427002 143.115967,290.111267 
z"></path>
    <path fill="#000000" opacity="1.000000" stroke="none" d="
M372.115967,291.111816 
	C372.794312,290.411682 373.659760,289.904755 374.525177,289.397858 
	C374.668488,289.653412 374.811768,289.908997 374.955048,290.164551 
	C374.392090,290.524200 373.829132,290.883820 372.979858,291.459167 
	C372.563385,291.551636 372.433197,291.428345 372.115967,291.111816 
z"></path>
    <path fill="#000000" opacity="1.000000" stroke="none" d="
M278.116089,281.110291 
	C278.767181,280.391327 279.605408,279.863983 280.443634,279.336639 
	C280.596954,279.543091 280.750305,279.749573 280.903625,279.956024 
	C280.358643,280.378998 279.813629,280.801971 278.981201,281.446655 
	C278.563568,281.546204 278.433350,281.424042 278.116089,281.110291 
z"></path>
    <path fill="#000000" opacity="1.000000" stroke="none" d="
M190.120331,277.117493 
	C190.771255,276.409332 191.606812,275.892822 192.442383,275.376343 
	C192.591385,275.576538 192.740387,275.776733 192.889404,275.976929 
	C192.348404,276.397675 191.807419,276.818420 190.978882,277.457245 
	C190.562561,277.553314 190.433777,277.431244 190.120331,277.117493 
z"></path>
    <path fill="#000000" opacity="1.000000" stroke="none" d="
M140.115875,276.111572 
	C140.767548,275.402344 141.606339,274.886353 142.445129,274.370361 
	C142.594528,274.570465 142.743912,274.770538 142.893311,274.970612 
	C142.352646,275.393799 141.811981,275.816956 140.982513,276.457458 
	C140.563477,276.551453 140.433258,276.428131 140.115875,276.111572 
z"></path>
    <path fill="#000000" opacity="1.000000" stroke="none" d="
M92.113747,276.107483 
	C92.766182,275.402252 93.606888,274.889740 94.447601,274.377258 
	C94.595276,274.576172 94.742950,274.775085 94.890625,274.973969 
	C94.349945,275.392639 93.809265,275.811310 92.981659,276.449615 
	C92.563835,276.546234 92.432930,276.423248 92.113747,276.107483 
z"></path>
    <path fill="#000000" opacity="1.000000" stroke="none" d="
M168.879562,218.882584 
	C168.228790,219.590637 167.393280,220.107025 166.557770,220.623428 
	C166.408813,220.423279 166.259842,220.223129 166.110886,220.022964 
	C166.651764,219.602432 167.192642,219.181885 168.020905,218.543091 
	C168.437134,218.446869 168.565979,218.568909 168.879562,218.882584 
z"></path>
    <path fill="#000000" opacity="1.000000" stroke="none" d="
M192.884109,220.889450 
	C192.232468,221.597473 191.393646,222.113266 190.554825,222.629044 
	C190.405884,222.428482 190.256958,222.227921 190.108017,222.027344 
	C190.649368,221.607803 191.190735,221.188248 192.019135,220.549042 
	C192.436432,220.451981 192.566681,220.574600 192.884109,220.889450 
z"></path>
    <path fill="#000000" opacity="1.000000" stroke="none" d="
M400.883850,249.889084 
	C400.226959,250.606079 399.383026,251.130859 398.539062,251.655640 
	C398.393677,251.448624 398.248260,251.241608 398.102875,251.034592 
	C398.645660,250.612793 399.188446,250.190979 400.018768,249.549164 
	C400.436462,249.451691 400.566620,249.574265 400.883850,249.889084 
z"></path>
    <path fill="#000000" opacity="1.000000" stroke="none" d="
M343.882080,247.886505 
	C343.230011,248.618423 342.391876,249.158585 341.553741,249.698730 
	C341.395996,249.488235 341.238281,249.277740 341.080566,249.067245 
	C341.629456,248.635300 342.178345,248.203339 343.017181,247.549774 
	C343.436737,247.450363 343.566376,247.572556 343.882080,247.886505 
z"></path>
    <path fill="#000000" opacity="1.000000" stroke="none" d="
M341.115540,279.111389 
	C341.431915,278.679962 341.934998,278.441101 342.438049,278.202209 
	C342.331421,278.567535 342.224762,278.932861 341.905640,279.484619 
	C341.562836,279.548676 341.432526,279.426300 341.115540,279.111389 
z"></path>
    <path fill="#000000" opacity="1.000000" stroke="none" d="
M51.637768,165.529633 
	C51.931202,165.212845 52.393154,165.190491 52.855110,165.168152 
	C52.505501,165.386795 52.155891,165.605438 51.637768,165.529633 
z"></path>
    <path fill="#000000" opacity="1.000000" stroke="none" d="
M409.114960,298.110718 
	C409.428223,297.677826 409.928375,297.437592 410.428528,297.197388 
	C410.324554,297.564423 410.220581,297.931427 409.904846,298.484680 
	C409.562683,298.548401 409.432251,298.425903 409.114960,298.110718 
z"></path>
    <path fill="#000000" opacity="1.000000" stroke="none" d="
M376.283936,288.992310 
	C375.773590,289.187347 375.514008,289.150452 375.254456,289.113586 
	C375.318420,288.832550 375.382385,288.551514 375.446381,288.270508 
	C375.809174,288.433777 376.171967,288.597076 376.283936,288.992310 
z"></path>
    <path fill="#000000" opacity="1.000000" stroke="none" d="
M282.284851,278.992004 
	C281.774231,279.187225 281.514587,279.150513 281.254913,279.113770 
	C281.318848,278.832672 281.382751,278.551544 281.446686,278.270447 
	C281.809723,278.433655 282.172791,278.596832 282.284851,278.992004 
z"></path>
    <path fill="#000000" opacity="1.000000" stroke="none" d="
M96.355804,273.471741 
	C96.062790,273.788208 95.602600,273.809845 95.142418,273.831482 
	C95.491158,273.613312 95.839897,273.395111 96.355804,273.471741 
z"></path>
    <path fill="#000000" opacity="1.000000" stroke="none" d="
M39.801102,258.185181 
	C40.087318,258.519470 40.059399,258.884247 39.952694,259.224304 
	C39.923252,259.318176 39.659023,259.338348 39.502525,259.392303 
	C39.487431,258.996979 39.472336,258.601685 39.801102,258.185181 
z"></path>
    <path fill="#000000" opacity="1.000000" stroke="none" d="
M374.885193,246.889130 
	C374.574799,247.329239 374.077637,247.576523 373.580505,247.823822 
	C373.681519,247.450089 373.782532,247.076355 374.095459,246.515564 
	C374.437744,246.451111 374.568115,246.573700 374.885193,246.889130 
z"></path>
    <path fill="#000000" opacity="1.000000" stroke="none" d="
M32.360619,244.471039 
	C32.067360,244.787567 31.605953,244.809692 31.144543,244.831818 
	C31.493851,244.613434 31.843161,244.395035 32.360619,244.471039 
z"></path>
    <path fill="#000000" opacity="1.000000" stroke="none" d="
M189.719009,223.503754 
	C189.191528,223.604248 188.848495,223.409760 188.505447,223.215256 
	C188.623199,223.099442 188.761124,222.871002 188.855133,222.887833 
	C189.212265,222.951813 189.555206,223.095093 189.719009,223.503754 
z"></path>
    <path fill="#000000" opacity="1.000000" stroke="none" d="
M27.363024,229.470169 
	C27.069496,229.787094 26.607271,229.809555 26.145050,229.832016 
	C26.494810,229.613251 26.844568,229.394485 27.363024,229.470169 
z"></path>
    <path fill="#000000" opacity="1.000000" stroke="none" d="
M302.356262,166.051270 
	C302.539978,165.615479 302.862671,165.452286 303.185394,165.289108 
	C302.955322,165.634018 302.725281,165.978943 302.356262,166.051270 
z"></path>
    <path fill="#000000" opacity="1.000000" stroke="none" d="
M292.888672,158.892853 
	C292.590515,159.305038 292.111725,159.528259 291.632935,159.751465 
	C291.728333,159.402237 291.823730,159.052994 292.115479,158.533234 
	C292.443909,158.476425 292.575989,158.590164 292.888672,158.892853 
z"></path>
    <path fill="#000000" opacity="1.000000" stroke="none" d="
M365.123596,169.131409 
	C365.428864,168.718307 365.901917,168.490189 366.375000,168.262054 
	C366.270660,168.611481 366.166321,168.960922 365.864319,169.478256 
	C365.666656,169.646164 365.291443,169.316376 365.123596,169.131409 
z"></path>
    <path fill="#000000" opacity="1.000000" stroke="none" d="
M355.119232,210.108246 
	C355.493195,209.698822 356.059204,209.476440 356.625214,209.254059 
	C356.465332,209.593643 356.305450,209.933243 355.925140,210.466232 
	C355.573578,210.538193 355.442444,210.416748 355.119232,210.108246 
z"></path>
    <path fill="#3A78C2" opacity="1.000000" stroke="none" d="
M90.998466,228.998779 
	C91.454880,228.677612 91.911301,228.356461 92.645065,227.978180 
	C92.922401,227.921036 92.983055,227.987213 93.011993,228.022797 
	C92.553207,228.350037 92.065483,228.641693 91.288879,228.966675 
	C91.000000,229.000000 90.998466,228.998779 90.998466,228.998779 
z"></path>
    <path fill="#3C7AC7" opacity="1.000000" stroke="none" d="
M106.002228,232.002960 
	C106.004410,232.005920 106.160866,231.711502 106.160866,231.711502 
	C106.160866,231.711502 106.154442,231.918213 106.074600,231.957260 
	C105.994766,231.996307 106.000038,232.000000 106.002228,232.002960 
z"></path>
    <path fill="#3A78C2" opacity="1.000000" stroke="none" d="
M91.000641,229.000916 
	C91.001289,229.001831 90.824600,229.302292 90.824600,229.302292 
	C90.824600,229.302292 90.831352,229.079407 90.914909,229.039093 
	C90.998466,228.998779 91.000000,229.000000 91.000641,229.000916 
z"></path>
    <path fill="#000000" opacity="1.000000" stroke="none" d="
M401.465485,331.624786 
	C401.113739,331.462494 401.003967,331.153412 400.964661,330.835602 
	C400.954163,330.750793 401.159149,330.639343 401.265198,330.540131 
	C401.421417,330.851654 401.577637,331.163177 401.465485,331.624786 
z"></path>
    <path fill="#000000" opacity="1.000000" stroke="none" d="
M303.888428,325.892334 
	C303.590424,326.303986 303.112427,326.527069 302.634460,326.750153 
	C302.730255,326.401672 302.826050,326.053192 303.117615,325.534180 
	C303.445068,325.476990 303.576782,325.590393 303.888428,325.892334 
z"></path>
  </g>

</svg>