<svg id="Capa_1" enable-background="new 0 0 512 512" height="512" viewBox="0 0 512 512" width="512" xmlns="http://www.w3.org/2000/svg"><g><path d="m389.9 458.992-2.337-81.674-22.522-14.118-24.592 14.118-2.337 81.674c-.363 12.686-10.751 22.781-23.442 22.781l47.63 15.114 51.042-15.114c-12.691 0-23.079-10.096-23.442-22.781z" fill="#e4936b"/><path d="m458.32 349.892-27.742-55.484c3.701-1.199 7.379-2.501 11.027-3.905 4.095-1.577 5.941-6.338 3.978-10.263l-29.097-58.194c4.416-1.325 8.794-2.821 13.125-4.489 3.462-1.333 5.022-5.359 3.363-8.677l-67.681-135.365c-.53-1.06-2.044-1.06-2.574 0l-37.384 74.767-34.82 46.515-19.663 164.533c.894 1.046 2.056 1.894 3.44 2.427 57.744 22.232 121.685 22.232 179.429 0 4.733-1.823 6.868-7.327 4.599-11.865z" fill="#4f8980"/><path d="m458.32 349.892-27.742-55.484c3.701-1.199 7.379-2.501 11.027-3.905 4.185 0 6.908-4.405 5.036-8.148l-30.154-60.308c4.416-1.325 8.794-2.821 13.125-4.489 2.824-2.824 3.673-8.057 1.887-11.629l-66.206-132.414c-.53-1.06-2.043-1.06-2.574 0l-14.166 28.332 41.739 83.478c1.786 3.572.937 8.805-1.887 11.629-.704.271-1.409.538-2.116.8-5.793 2.148-8.423 8.86-5.66 14.386l24.806 49.612c1.872 3.744-.85 8.148-5.036 8.148-.036.014-.073.028-.109.042-5.765 2.216-8.417 8.866-5.654 14.39l22.478 44.957c2.269 4.538.135 10.042-4.6 11.865-37.268 14.349-77.119 19.436-116.218 15.263l-16.173-4.083-9.271 6.997c.894 1.046 2.056 1.894 3.44 2.427 57.744 22.232 121.685 22.232 179.429 0 4.733-1.824 6.867-7.328 4.599-11.866z" fill="#477d73"/><path d="m378.992 312.131c-4.022 0-7.415-3.115-7.699-7.189-.297-4.257 2.913-7.949 7.17-8.244 8.417-.587 16.874-1.696 25.14-3.298 4.19-.805 8.244 1.927 9.055 6.116.812 4.189-1.927 8.243-6.116 9.055-8.879 1.72-17.965 2.911-27.005 3.541-.183.013-.365.019-.545.019z" fill="#477d73"/><path d="m412.658 299.515c-.811-4.189-4.865-6.921-9.055-6.116-1.349.261-2.704.51-4.062.745l7.193 14.387c4.08-.897 6.723-4.891 5.924-9.016z" fill="#3d6e66"/><path d="m115.192 461.262 2.104-73.536 21.21-20.896 21.21 20.896 2.104 73.536c.327 11.422 9.68 20.511 21.107 20.511l-45.371 15.114-43.47-15.114c11.426 0 20.779-9.09 21.106-20.511z" fill="#e4936b"/><path d="m222.025 371.916.316-11.046-1.119-2.237c-26.079-2.577-51.896-8.648-76.739-18.213-5.576-2.147-8.089-8.63-5.417-13.975l32.674-65.348c-4.36-1.413-8.691-2.945-12.988-4.6-4.823-1.857-6.997-7.465-4.686-12.088l25.354-50.707-39.755-79.511c-.477-.955-1.84-.955-2.317 0l-60.94 121.881c-1.494 2.987-.089 6.612 3.028 7.812 3.899 1.501 7.841 2.848 11.817 4.041l-26.197 52.395c-1.767 3.534-.105 7.821 3.582 9.24 3.285 1.265 6.596 2.436 9.929 3.516l-24.978 49.955c-2.043 4.086-.121 9.042 4.141 10.683 51.99 20.017 109.56 20.017 161.55 0 1.072-.411 1.996-1.033 2.745-1.798z" fill="#4f8980"/><g fill="#477d73"><path d="m130.463 157.602c4.879 9.757 4.879 21.242 0 30.999l-18.849 37.698c-2.205 4.409 1.002 9.597 5.931 9.597 2.668 1.027 5.35 2.008 8.043 2.942 2.609.904 3.829 3.89 2.594 6.36l-30.323 60.646c-2.672 5.343-.156 11.829 5.419 13.975 11.391 4.386 22.987 8.036 34.718 10.952l33.744-69.672 7.68-67.394-39.755-79.511c-.477-.955-1.84-.955-2.317 0l-14.294 28.588z"/><path d="m222.341 344.932-41.907 6.745c-.674.598-1.465 1.09-2.36 1.435-39.994 15.398-83.289 18.95-124.807 10.658-1.483 3.926.455 8.402 4.464 9.945 51.99 20.017 109.56 20.017 161.55 0 1.071-.412 1.994-1.034 2.744-1.799l10.107-13.168z"/><path d="m113.683 328.682c-.328 0-.661-.021-.996-.064-3.289-.424-6.618-.936-9.896-1.524-4.2-.754-6.994-4.769-6.241-8.969.754-4.2 4.774-6.998 8.969-6.24 3.028.543 6.103 1.016 9.14 1.407 4.232.544 7.221 4.416 6.677 8.649-.501 3.897-3.825 6.741-7.653 6.741z"/></g><path d="m103.278 319.818c5.471 2.107 10.99 4.043 16.549 5.81.792-1.041 1.331-2.298 1.51-3.688.545-4.232-2.445-8.105-6.677-8.649-3.037-.391-6.113-.864-9.14-1.407-3.015-.545-5.94.748-7.627 3.077 1.089 2.145 2.944 3.917 5.385 4.857z" fill="#3d6e66"/><path d="m280.644 454.942-2.752-96.193-27.745-15.958-27.745 15.958-2.752 96.193c-.428 14.941-12.663 26.831-27.61 26.831l58.107 21.297 58.107-21.297c-14.947 0-27.182-11.89-27.61-26.831z" fill="#e4936b"/><path d="m257.873 429.545c0-4.268-3.459-7.726-7.726-7.726s-7.726 3.459-7.726 7.726v61.16h15.453v-61.16z" fill="#e27d47"/><path d="m250.147 406.366c-4.267 0-7.726-3.459-7.726-7.726v-38.58c0-4.268 3.459-7.726 7.726-7.726s7.726 3.459 7.726 7.726v38.58c0 4.267-3.459 7.726-7.726 7.726z" fill="#e27d47"/><path d="m361.228 326.447-32.674-65.348c4.359-1.413 8.691-2.945 12.988-4.6 4.823-1.857 6.997-7.465 4.686-12.088l-34.27-68.539c5.201-1.561 10.358-3.323 15.458-5.287 4.077-1.57 5.915-6.311 3.961-10.219l-79.714-159.429c-.624-1.249-2.407-1.249-3.031 0l-79.715 159.43c-1.954 3.908-.116 8.649 3.962 10.219 5.1 1.964 10.257 3.726 15.458 5.287l-34.27 68.539c-2.311 4.622-.137 10.23 4.686 12.088 4.297 1.654 8.628 3.187 12.988 4.6l-32.674 65.348c-2.672 5.344-.159 11.828 5.417 13.975 68.009 26.185 143.318 26.185 211.327 0 5.575-2.149 8.089-8.632 5.417-13.976z" fill="#80cb8e"/><path d="m361.228 326.447-32.674-65.347c4.359-1.413 8.691-2.945 12.988-4.6 4.823-1.857 6.997-7.465 4.686-12.087l-34.27-68.539c5.201-1.561 10.358-3.323 15.458-5.287 4.077-1.57 5.915-6.311 3.961-10.219l-79.714-159.431c-.624-1.249-2.407-1.249-3.031 0l-13.937 27.874 55.476 110.952c1.954 3.908.116 8.649-3.961 10.219-.821.316-1.643.627-2.466.932-6.836 2.536-9.941 10.456-6.68 16.978l29.203 58.407c2.205 4.409-1.002 9.597-5.931 9.597l-.129.05c-6.793 2.611-9.902 10.464-6.647 16.974l26.462 52.924c2.668 5.336.167 11.824-5.4 13.968-56.622 21.805-118.305 25.458-176.624 10.96-.079 4.112 2.368 8.064 6.487 9.65 68.009 26.184 143.318 26.184 211.327 0 5.574-2.148 8.088-8.631 5.416-13.975z" fill="#66b49d"/><path d="m250.146 281.212c-4.267 0-7.726-3.459-7.726-7.726s3.459-7.726 7.726-7.726c17.244 0 34.539-1.822 51.404-5.415 4.181-.889 8.278 1.772 9.167 5.946s-1.773 8.278-5.946 9.167c-17.922 3.818-36.3 5.754-54.625 5.754z" fill="#66b49d"/><path d="m310.717 266.29c-.889-4.174-4.986-6.835-9.167-5.946-1.292.275-2.586.54-3.882.794l7.154 14.307c4.144-.911 6.781-4.998 5.895-9.155z" fill="#4f8980"/><path d="m250.147 192.662c-12.472 0-25.029-1.059-37.323-3.149-4.207-.714-7.038-4.704-6.323-8.911s4.708-7.034 8.911-6.322c11.441 1.944 23.127 2.93 34.734 2.93 4.267 0 7.727 3.459 7.727 7.726.001 4.267-3.459 7.726-7.726 7.726z" fill="#66b49d"/><path d="m415.467 481.773h-330.641c-9.438 0-17.926 5.748-21.429 14.512l-5.02 12.559c-.604 1.512.509 3.156 2.137 3.156h379.266c1.628 0 2.742-1.644 2.137-3.156l-5.02-12.559c-3.504-8.765-11.991-14.512-21.43-14.512z" fill="#80cb8e"/></g></svg>