<svg height="512" viewBox="0 0 128 128" width="512" xmlns="http://www.w3.org/2000/svg"><g><path d="m89.755 62.159a9.893 9.893 0 0 0 -.922-17.7 9.886 9.886 0 0 0 -5.671-14.38 9.877 9.877 0 0 0 -9.311-13.231c-.028 0-.054 0-.081 0a9.9 9.9 0 1 0 -19.54 0c-.027 0-.053 0-.08 0a9.877 9.877 0 0 0 -9.312 13.231 9.886 9.886 0 0 0 -5.671 14.38 9.893 9.893 0 0 0 -.922 17.7 9.9 9.9 0 0 0 6.966 16.928c.269 0 .533-.02.8-.041a9.889 9.889 0 0 0 17.989 7.507 9.887 9.887 0 0 0 17.993-7.507c.263.021.527.041.8.041a9.9 9.9 0 0 0 6.966-16.928z" fill="#54b88b"/><path d="m64 86.553a9.931 9.931 0 0 1 -4.814 3.933v30.333h9.628v-30.333a9.94 9.94 0 0 1 -4.814-3.933z" fill="#9b6e42"/><path d="m121.694 59.913a8.032 8.032 0 0 0 -4.841-7.37 8.024 8.024 0 0 0 -4.6-11.671 8.013 8.013 0 0 0 -7.556-10.737c-.022 0-.043 0-.065 0a8.029 8.029 0 1 0 -15.963-1.233 7.961 7.961 0 0 0 .105 1.233c-.022 0-.044 0-.066 0a8 8 0 0 0 -3.532.816 9.877 9.877 0 0 1 3.66 13.5 9.893 9.893 0 0 1 .922 17.7 9.9 9.9 0 0 1 -6.966 16.928c-.183 0-.362-.015-.542-.028l-.066 1.077a9.551 9.551 0 0 1 .067 1.115 9.9 9.9 0 0 1 -.273 2.273v.034a8.028 8.028 0 0 0 14.722 3.156 8.023 8.023 0 0 0 14.6-6.092c.213.017.428.033.646.033a8.032 8.032 0 0 0 5.654-13.738 8.028 8.028 0 0 0 4.094-6.996z" fill="#4c9b6e"/><path d="m96.7 86.706a8.071 8.071 0 0 1 -3.907 3.194v30.921h7.813v-30.921a8.064 8.064 0 0 1 -3.906-3.194z" fill="#825a3a"/><path d="m45.753 81.251a9.551 9.551 0 0 1 .066-1.115l-.065-1.077c-.18.013-.36.028-.543.028a9.9 9.9 0 0 1 -6.966-16.928 9.893 9.893 0 0 1 .922-17.7 9.877 9.877 0 0 1 3.66-13.5 8 8 0 0 0 -3.532-.816c-.022 0-.043 0-.065 0a8.029 8.029 0 1 0 -15.963-1.233 7.961 7.961 0 0 0 .105 1.233c-.022 0-.043 0-.066 0a8.013 8.013 0 0 0 -7.556 10.729 8.024 8.024 0 0 0 -4.6 11.671 8.029 8.029 0 0 0 -.75 14.366 8.031 8.031 0 0 0 5.653 13.738c.219 0 .433-.016.647-.033a8.026 8.026 0 0 0 14.6 6.092 8.028 8.028 0 0 0 14.726-3.148v-.034a9.9 9.9 0 0 1 -.273-2.273z" fill="#4c9b6e"/><path d="m31.3 86.706a8.071 8.071 0 0 1 -3.906 3.194v30.921h7.813v-30.921a8.064 8.064 0 0 1 -3.907-3.194z" fill="#825a3a"/><path d="m121.693 122.568h-7.261a1.75 1.75 0 0 1 0-3.5h7.261a1.75 1.75 0 0 1 0 3.5z" fill="#65727f"/><path d="m106.754 122.568h-100.447a1.75 1.75 0 0 1 0-3.5h100.447a1.75 1.75 0 0 1 0 3.5z" fill="#65727f"/><g fill="#4c9b6e"><path d="m73.716 34.562a1.73 1.73 0 0 1 -.537-.085 1.75 1.75 0 0 1 -1.129-2.2 1.965 1.965 0 0 0 -.673-2.36 1.75 1.75 0 1 1 2.391-2.556 5.406 5.406 0 0 1 1.614 5.989 1.752 1.752 0 0 1 -1.666 1.212z"/><path d="m73.947 78.058a1.749 1.749 0 0 1 -1.28-2.943c.854-.916 1.032-1.107 1.024-2.861a1.75 1.75 0 0 1 1.743-1.754h.007a1.75 1.75 0 0 1 1.75 1.742c.012 2.667-.5 3.7-1.963 5.264a1.75 1.75 0 0 1 -1.281.552z"/><path d="m77.935 53.252a1.75 1.75 0 0 1 -1.2-3.024 6.976 6.976 0 0 0 1.9-5.385c-.249-2.453-2.718-4.188-2.743-4.205a1.75 1.75 0 1 1 1.963-2.9c.156.106 3.845 2.648 4.262 6.75a10.557 10.557 0 0 1 -2.976 8.286 1.747 1.747 0 0 1 -1.206.478z"/></g></g></svg>