<?xml version="1.0"?>
<svg xmlns="http://www.w3.org/2000/svg" xmlns:xlink="http://www.w3.org/1999/xlink" xmlns:svgjs="http://svgjs.com/svgjs" version="1.1" width="512" height="512" x="0" y="0" viewBox="0 0 512 512" style="enable-background:new 0 0 512 512" xml:space="preserve"><g><path xmlns="http://www.w3.org/2000/svg" d="m488.46875 40.082031c-6.464844 0-12.328125 2.621094-16.585938 6.855469l-40.277343-20.140625c.152343-1.066406.234375-2.15625.234375-3.265625 0-12.976562-10.558594-23.53125-23.53125-23.53125-12.976563 0-23.535156 10.558594-23.535156 23.53125 0 6.269531 2.46875 11.964844 6.476562 16.1875l-47.378906 89.496094c-2.46875-.621094-5.050782-.957032-7.710938-.957032-13.589844 0-25.199218 8.636719-29.628906 20.710938l-121.753906-13.53125c-4.113282-.453125-7.824219 2.511719-8.28125 6.628906-.457032 4.117188 2.507812 7.824219 6.625 8.28125l121.765625 13.527344c2.003906 15.480469 15.261719 27.480469 31.277343 27.480469 1.417969 0 2.808594-.105469 4.179688-.285157l33.152344 84.722657c1.15625 2.960937 3.988281 4.769531 6.984375 4.769531.910156 0 1.832031-.167969 2.730469-.519531 3.859374-1.507813 5.761718-5.859375 4.253906-9.71875l-33.160156-84.734375c8.101562-5.714844 13.40625-15.140625 13.40625-25.785156 0-9.355469-4.097657-17.773438-10.59375-23.554688l47.382812-89.5c1.242188.203125 2.511719.3125 3.808594.3125 6.464844 0 12.328125-2.621094 16.582031-6.855469l40.277344 20.140625c-.148438 1.066406-.230469 2.15625-.230469 3.265625 0 12.976563 10.554688 23.53125 23.53125 23.53125 12.972656 0 23.53125-10.554687 23.53125-23.53125 0-12.976562-10.558594-23.53125-23.53125-23.53125zm-168.855469 119.726563c0-9.125 7.421875-16.550782 16.546875-16.550782s16.550782 7.425782 16.550782 16.550782-7.425782 16.546875-16.550782 16.546875-16.546875-7.421875-16.546875-16.546875zm88.695313-127.746094c-4.707032 0-8.535156-3.828125-8.535156-8.53125s3.828124-8.53125 8.535156-8.53125c4.703125 0 8.53125 3.828125 8.53125 8.53125s-3.828125 8.53125-8.53125 8.53125zm80.160156 40.082031c-4.707031 0-8.53125-3.828125-8.53125-8.53125s3.828125-8.53125 8.53125-8.53125 8.53125 3.828125 8.53125 8.53125-3.828125 8.53125-8.53125 8.53125zm0 0" fill="#ffffff" data-original="#000000" style=""/><path xmlns="http://www.w3.org/2000/svg" d="m408.308594 320.644531c-.382813 0-.765625.011719-1.144532.03125l-7.089843-18.117187c-1.507813-3.855469-5.859375-5.757813-9.714844-4.25-3.859375 1.511718-5.761719 5.859375-4.253906 9.71875l7.09375 18.125c-1.234375 1.039062-2.359375 2.199218-3.359375 3.464844l-174.601563-62.355469c.109375-1.066407.164063-2.148438.164063-3.246094 0-17.394531-14.148438-31.546875-31.546875-31.546875-17.394531 0-31.546875 14.152344-31.546875 31.546875 0 .546875.011718 1.085937.039062 1.625l-109.621094 32.882813c-.59375-.835938-1.242187-1.636719-1.9375-2.386719l74.84375-137.210938c1.332032.234375 2.695313.363281 4.09375.363281 9.433594 0 17.585938-5.582031 21.332032-13.613281l12.082031 1.339844c.28125.03125.558594.046875.835937.046875 3.769532 0 7.019532-2.835938 7.445313-6.671875.457031-4.117187-2.507813-7.824219-6.625-8.28125l-12.074219-1.34375c-2.296875-10.585937-11.734375-18.539063-22.996094-18.539063-12.976562 0-23.53125 10.554688-23.53125 23.53125 0 6.164063 2.382813 11.777344 6.273438 15.976563l-74.839844 137.210937c-1.332031-.234374-2.699218-.363281-4.097656-.363281-12.972656 0-23.53125 10.554688-23.53125 23.53125 0 12.976563 10.558594 23.53125 23.53125 23.53125 12.714844 0 23.101562-10.136719 23.511719-22.753906l109.628906-32.890625c5.492187 9.304688 15.617187 15.5625 27.183594 15.5625 10.984375 0 20.667969-5.644531 26.320312-14.183594l174.609375 62.359375c-.003906.148438-.011718.292969-.011718.4375 0 12.976563 10.558593 23.535157 23.53125 23.535157 12.976562 0 23.535156-10.558594 23.535156-23.535157 0-12.972656-10.558594-23.53125-23.53125-23.53125zm-288.582032-193.417969c4.703126 0 8.53125 3.828126 8.53125 8.53125 0 4.703126-3.828124 8.53125-8.53125 8.53125-4.707031 0-8.53125-3.828124-8.53125-8.53125 0-4.703124 3.824219-8.53125 8.53125-8.53125zm-96.195312 193.417969c-4.703125 0-8.53125-3.828125-8.53125-8.53125s3.828125-8.53125 8.53125-8.53125 8.53125 3.828125 8.53125 8.53125-3.824219 8.53125-8.53125 8.53125zm160.324219-40.082031c-9.125 0-16.546875-7.421875-16.546875-16.546875s7.421875-16.546875 16.546875-16.546875 16.546875 7.421875 16.546875 16.546875-7.421875 16.546875-16.546875 16.546875zm224.453125 72.148438c-4.707032 0-8.535156-3.828126-8.535156-8.53125 0-4.707032 3.828124-8.535157 8.535156-8.535157 4.703125 0 8.53125 3.828125 8.53125 8.535157 0 4.703124-3.828125 8.53125-8.53125 8.53125zm0 0" fill="#ffffff" data-original="#000000" style=""/><path xmlns="http://www.w3.org/2000/svg" d="m234.664062 84.949219c1.464844 1.464843 3.386719 2.195312 5.304688 2.195312s3.839844-.730469 5.300781-2.195312l6.722657-6.722657 6.722656 6.722657c1.460937 1.464843 3.382812 2.195312 5.300781 2.195312s3.839844-.730469 5.304687-2.195312c2.925782-2.929688 2.925782-7.679688 0-10.605469l-6.722656-6.722656 6.722656-6.71875c2.925782-2.929688 2.925782-7.679688 0-10.605469-2.929687-2.929687-7.679687-2.929687-10.605468 0l-6.722656 6.71875-6.722657-6.71875c-2.925781-2.929687-7.675781-2.929687-10.605469 0-2.929687 2.925781-2.929687 7.675781 0 10.605469l6.722657 6.71875-6.722657 6.722656c-2.929687 2.925781-2.929687 7.675781 0 10.605469zm0 0" fill="#ffffff" data-original="#000000" style=""/><path xmlns="http://www.w3.org/2000/svg" d="m175.839844 336.679688h-8.53125v-8.535157c0-4.140625-3.359375-7.5-7.5-7.5-4.144532 0-7.5 3.359375-7.5 7.5v8.535157h-8.535156c-4.140626 0-7.5 3.355468-7.5 7.5 0 4.140624 3.359374 7.5 7.5 7.5h8.535156v8.53125c0 4.140624 3.355468 7.5 7.5 7.5 4.140625 0 7.5-3.359376 7.5-7.5v-8.53125h8.53125c4.140625 0 7.5-3.359376 7.5-7.5 0-4.144532-3.359375-7.5-7.5-7.5zm0 0" fill="#ffffff" data-original="#000000" style=""/><path xmlns="http://www.w3.org/2000/svg" d="m448.386719 180.363281h-4.523438v-4.523437c0-4.144532-3.359375-7.5-7.5-7.5s-7.5 3.355468-7.5 7.5v4.523437h-4.523437c-4.144532 0-7.5 3.359375-7.5 7.5s3.355468 7.5 7.5 7.5h4.523437v4.523438c0 4.140625 3.359375 7.5 7.5 7.5s7.5-3.359375 7.5-7.5v-4.523438h4.523438c4.140625 0 7.5-3.359375 7.5-7.5s-3.359375-7.5-7.5-7.5zm0 0" fill="#ffffff" data-original="#000000" style=""/></g></svg>
