<svg id="Capa_1" enable-background="new 0 0 495.145 495.145" height="512" viewBox="0 0 495.145 495.145" width="512" xmlns="http://www.w3.org/2000/svg"><g><path d="m487.199 185.137-14.758-8.099-20.786-44.511.313-24.678c-44.636-64.867-119.697-107.849-204.393-107.849s-159.448 42.518-204.085 107.385l.005 19.701-19.36 48-16.195 10.059c-5.182 19.946-7.935 40.857-7.935 62.425 0 2.782.044 5.555.135 8.315l11.315 22.758 14.217 56.276-5.871 9.837c15.717 36.793 40.075 68.988 70.542 94.063l40.115 16.014 98.891 23.631 126.298-14.665 49.097-24.955c30.477-25.075 54.863-57.285 70.586-94.085l-1.631-4.828 12.614-65.787 8.687-18.258c.092-2.766.146-5.528.146-8.316-.001-21.567-2.764-42.488-7.947-62.433z" fill="#fedbbd"/><g><path d="m132.212 247.575c0-113.834 76.833-209.708 181.464-238.63-21.045-5.817-43.21-8.939-66.106-8.94-84.7-.002-161.132 43.855-205.188 109.005l1.108 18.082-19.36 48-16.19 10.053c-5.182 19.946-7.94 40.863-7.94 62.43 0 2.785.049 5.547.14 8.31l11.31 22.763 14.217 56.276-5.865 9.832c37.774 88.426 125.533 150.39 227.769 150.39 22.896 0 45.061-3.122 66.106-8.94-104.633-28.923-181.465-124.797-181.465-238.631z" fill="#feca9c"/><ellipse cx="247.57" cy="85.694" fill="#e8ad8c" rx="89.724" ry="33.964"/><path d="m157.846 85.694c0 7.787 6.924 14.96 18.567 20.689 14.168-20.366 31.299-38.5 50.798-53.776-39.755 3.487-69.365 16.977-69.365 33.087z" fill="#e19974"/><g id="XMLID_227_"><g><path d="m404.779 438.815c-42.76 35.19-97.509 56.33-157.209 56.33s-114.467-21.137-157.227-56.327c0 0 98.237 21.937 157.227 21.937s157.209-21.94 157.209-21.94z" fill="#e8ad8c"/><g fill="#fdb97e"><path d="m495 255.873c-1.03 31.46-7.943 61.467-19.673 88.897-13.22 9.69-29.857 18.445-49.217 25.995-12.65 4.93-24.29 12.3-33.71 22.08-14.66 15.23-37.06 26.01-62.88 28.35-25.34 2.29-48.9-4.02-65.99-15.93-2.34-1.63-4.9-2.91-7.59-3.77s-5.51-1.32-8.37-1.32c-97.52 0-182.599-22.31-227.769-55.42-11.73-27.43-18.631-57.41-19.661-88.87h.01c31.82 37.98 112.03 66.42 209.63 72.32 18.22 1.1 35.97-5.34 49.71-17.35 14.53-12.7 34.86-21.52 57.91-23.61 20.3-1.84 39.46 1.85 55.06 9.51 17.46 8.58 37.71 9.53 55.78 2.33 29.75-11.86 66.76-43.212 66.76-43.212z"/><path d="m487.2 185.145c3.045 14.539-126.54 65.701-239.63 70.74-115.72 5.156-244.839-57.025-239.63-70.74 7.32-28.19 19.48-54.42 35.55-77.76-5.685 14.151 98.335 79.516 204.08 75.21 105.861-4.31 210.193-59.067 204.08-75.21 16.07 23.34 28.23 49.57 35.55 77.76z"/></g></g></g><ellipse cx="322.995" cy="355.096" fill="#fedbbd" rx="50.605" ry="38.718" transform="matrix(.999 -.046 .046 .999 -15.825 15.067)"/></g><path d="m143.064 320.261c-66.532-12.132-118.716-35.494-142.914-64.376h-.01c1.03 31.46 7.931 61.44 19.661 88.87 34.714 25.446 93.005 44.51 162.391 51.974-17.202-22.748-30.566-48.556-39.128-76.468z" fill="#fea95c"/><path d="m313.702 486.213s-41.364-14.51-59.904-25.49c-2.071.02-4.146.033-6.229.033-58.99 0-157.227-21.937-157.227-21.937 42.76 35.19 97.527 56.327 157.227 56.327 22.894-.001 45.087-3.116 66.133-8.933z" fill="#e19974"/><path d="m145.332 167.822c-58.988-22.266-101.842-60.437-101.842-60.437-16.282 23.349-31.672 57.577-37.473 85.699-.789 1.562 55.787 31.521 126.243 49.652 1.17-26.014 4.477-51.596 13.072-74.914z" fill="#fea95c"/></g></svg>