<?xml version="1.0" encoding="iso-8859-1"?>
<!-- Generator: Adobe Illustrator 16.0.0, SVG Export Plug-In . SVG Version: 6.00 Build 0)  -->
<!DOCTYPE svg PUBLIC "-//W3C//DTD SVG 1.1//EN" "http://www.w3.org/Graphics/SVG/1.1/DTD/svg11.dtd">
<svg version="1.1" id="Capa_1" xmlns="http://www.w3.org/2000/svg" xmlns:xlink="http://www.w3.org/1999/xlink" x="0px" y="0px"
	 width="554.663px" height="554.663px" viewBox="0 0 554.663 554.663" style="enable-background:new 0 0 554.663 554.663;"
	 xml:space="preserve">
<g>
	<path d="M529.638,362.252c-3.654,0-7.1,0.818-10.24,2.242l-90.02-136.756c5.78-4.578,9.553-11.572,9.553-19.513
		c0-13.826-11.199-25.03-25.013-25.03c-13.021,0-23.6,9.996-24.779,22.735L298.7,245.984c-5.465-7.695-14.404-12.746-24.557-12.746
		c-7.064,0-13.475,2.534-18.625,6.604l-76.123-64.294c1.279-3.013,1.997-6.329,1.997-9.809c0-13.808-11.204-25.012-25.013-25.012
		c-4.974,0-9.593,1.495-13.475,4.005l-89.3-75.452c2.201-4.041,3.55-8.6,3.55-13.522c0-15.799-12.792-28.591-28.574-28.591
		C12.792,27.167,0,39.959,0,55.758c0,15.793,12.792,28.58,28.58,28.58c6.516,0,12.459-2.265,17.265-5.944l88.88,75.066
		c-2.067,3.638-3.351,7.783-3.351,12.267c0,13.814,11.204,25.018,25.018,25.018c5.991,0,11.42-2.201,15.724-5.716l75.703,63.943
		c-2.359,4.309-3.83,9.184-3.83,14.433c0,13.942,9.5,25.538,22.338,28.994l-9.529,105.165c-12.004,1.821-21.235,12.121-21.235,24.65
		c0,13.813,11.204,25,25.001,25c6.551,0,12.459-2.568,16.92-6.703l86.89,57.336c-0.292,1.506-0.467,3.059-0.467,4.646
		c0,13.814,11.197,25.001,24.988,25.001c13.826,0,25.024-11.187,25.024-25.001c0-2.826-0.572-5.523-1.448-8.068l104.697-85.594
		c3.678,2.16,7.905,3.457,12.471,3.457c13.814,0,25.024-11.199,25.024-25.001C554.663,373.452,543.453,362.252,529.638,362.252z
		 M284.045,430.517c0.935-2.615,1.518-5.383,1.518-8.313c0-10.953-7.076-20.178-16.868-23.564l9.563-105.491
		c14.696-2.032,26.046-14.491,26.046-29.742c0-2.236-0.28-4.396-0.747-6.493l87.449-38.704c3.842,8.834,12.646,15.028,22.911,15.028
		c1.529,0,3.001-0.192,4.448-0.455l91.619,139.185c-3.305,4.228-5.359,9.517-5.359,15.32c0,4.858,1.447,9.365,3.842,13.195
		l-102.49,83.795c-4.484-4.204-10.451-6.808-17.084-6.808c-7.87,0-14.818,3.725-19.407,9.424L284.045,430.517z"/>
</g>
<g>
</g>
<g>
</g>
<g>
</g>
<g>
</g>
<g>
</g>
<g>
</g>
<g>
</g>
<g>
</g>
<g>
</g>
<g>
</g>
<g>
</g>
<g>
</g>
<g>
</g>
<g>
</g>
<g>
</g>
</svg>
