<svg id="Flat" height="512" viewBox="0 0 512 512" width="512" xmlns="http://www.w3.org/2000/svg"><path d="m488 256q0 8.07-.55 16a232.043 232.043 0 0 1 -449.19 64.25 230.31 230.31 0 0 1 -13.71-64.25q-.555-7.935-.55-16a232 232 0 1 1 464 0z" fill="#0093b9"/><path d="m487.45 272a230.424 230.424 0 0 1 -13.62 64h-53.61a210.378 210.378 0 0 0 -126.65 41.93c-18.3 13.79-42.58 22.07-69.57 22.07s-51.26-8.28-69.56-22.06a209.993 209.993 0 0 0 -116.18-41.69 230.31 230.31 0 0 1 -13.71-64.25h3.06c38.82 0 76.75-13.16 106.31-38.32 18.72-15.94 44.81-25.68 74.08-25.68 30.28 0 57.15 10.42 75.99 27.35 25.84 23.22 59 36.65 93.74 36.65z" fill="#2da4c4"/><g fill="#5db9d2"><path d="m473.58 175.33c-9.71.43-20.8.67-33.58.67-104 0-136-40-240-40-52.19 0-108.42 8.06-151.48 16.09a232.928 232.928 0 0 1 76.87-87.86c93.58 3.23 127.21 39.77 226.61 39.77 36.41 0 59.09-1.96 75.25-4.51a231.792 231.792 0 0 1 46.33 75.84z"/><path d="m352.55 467.01a232.279 232.279 0 0 1 -230.01-21.22c27.85-3.43 57.25-5.79 85.46-5.79 64.39 0 101.18 15.33 144.55 27.01z"/><ellipse cx="200" cy="304" rx="56" ry="40"/></g></svg>