<svg id="Capa_1" enable-background="new 0 0 512 512" height="512" viewBox="0 0 512 512" width="512" xmlns="http://www.w3.org/2000/svg"><g><path d="m58.913 356.514-12.877-30.632h-5.138c-32.634 57.987-47.095 109.585-38.429 143.835l34.894-34.44c-3.654-17.205 3.181-42.952 18.584-73.745z" fill="#ffe02f"/><path d="m16.667 455.703 20.696-20.426c-3.654-17.205 3.181-42.952 18.584-73.745l2.966-5.018-12.877-30.632h-5.138c-9.46 16.809-17.381 33.075-23.666 48.543-10.867 33.976-11.664 62.399-.565 81.278z" fill="#fbc700"/><path d="m325.883 40.897v4.843l29.725 12.706 5.925-2.499c33.346-16.68 60.775-23.313 77.846-17.456l35.089-34.633c-34.125-11.385-87.851 2.859-148.585 37.039z" fill="#ffe02f"/><path d="m361.532 55.947c33.346-16.68 60.775-23.313 77.846-17.456l19.759-19.502c-18.831-13.467-48.811-13.265-85.105-1.598-15.35 6.259-31.484 14.127-48.15 23.506v4.843l29.725 12.706z" fill="#fbc700"/><path d="m445.803 138.251-105.649-76.714-4.23-17.113c-3.325-1.254-6.672-2.435-10.041-3.527.008-.005.016-.009.024-.014-10.353-3.355-20.673-5.926-30.917-7.773v.017l-38.445 11.297-208.406 151.553-17.99 42.754-.014.008c-1.39 18.625-.423 37.819 3.174 57.279l.015-.006 11.166 3.842 76.234 117.098-3.496 17.612c3.108 2.421 6.262 4.769 9.477 7.014l31.106 1.671 70.862-51.323 109.297-97.973 109.668-150.686z" fill="#ff9838"/><path d="m33.324 296.012 11.166 3.842 76.234 117.098-3.496 17.612c3.108 2.421 6.262 4.769 9.477 7.014l31.106 1.671 49.899-36.14c-64.059-44.434-106.018-118.488-106.018-202.353 0-17.732 1.892-35.019 5.455-51.688l-59.008 42.911-17.99 42.754-.014.008c-1.39 18.625-.423 37.819 3.174 57.279z" fill="#ff8706"/><path d="m398.001 386.223 72.3-78.643 9.667-17.617.001.001c5.034-33.061 2.675-68.282-8.862-103.879l-11.71 1.735-99.671 129.456-94.562 83.052z" fill="#ff9838"/><path d="m266.264 81.356c13.514-13.514 23.367-30.132 28.725-48.229-134.192-24.201-255.246 77.184-264.84 205.604l32.992-32.992c19.469-19.469 45.264-31.249 72.464-33.093 27.2-1.845 52.995-13.625 72.464-33.094z" fill="#ffaa5b"/><path d="m102.936 179.898c4.696-46.827 22.529-89.774 49.744-125.127-67.983 35.415-116.595 104.505-122.531 183.96l32.992-32.992c11.417-11.417 25.019-20.165 39.795-25.841z" fill="#ff9838"/><path d="m441.577 126.704c-4.523-6.477-9.428-12.733-14.655-18.758l-8.989-2.283-36.915-34.168-1.727-5.121c-5.72-3.728-11.637-7.214-17.739-10.437-.007.003-.014.006-.02.01-8.336-4.402-16.892-8.236-25.608-11.523l-1.006 6.035c-4.219 25.312-16.241 48.672-34.386 66.817l-63.932 63.933c-21.388 21.388-49.901 34.155-80.101 35.864-30.199 1.71-58.712 14.476-80.101 35.864l-43.074 43.074c1.833 9.91 4.316 19.886 7.56 29.895.004-.009.009-.016.013-.025 2.109 6.507 4.529 12.934 7.241 19.265h4.722l31.292 47.938.128 10.039c9.994 11.642 21.058 22.178 32.947 31.438l79.328-79.328c11.37-11.37 19.54-25.539 23.683-41.076l6.473-24.273c4.144-15.537 12.312-29.706 23.682-41.076l46.482-46.482c11.122-11.122 24.926-19.185 40.077-23.41l90.359-25.197 8.392-2.473 8.591-17.116z" fill="#ffaa5b"/><path d="m40.898 325.882c2.109 6.507 4.529 12.934 7.241 19.265h4.722l31.292 47.938.128 10.039c9.994 11.642 21.058 22.178 32.947 31.438l56.17-56.17c-38.156-38.324-63.75-89.152-70.129-145.801-9.772 5.476-18.826 12.3-26.871 20.345l-43.074 43.074c1.833 9.91 4.316 19.886 7.56 29.895.004-.007.009-.015.014-.023z" fill="#ff9838"/><path d="m154.221 333.187c9.813-9.813 16.936-21.986 20.684-35.348 5.537-19.739-12.657-37.934-32.397-32.397-13.362 3.748-25.535 10.871-35.348 20.684l-59.021 59.021c2.374 5.541 4.97 11.009 7.808 16.384-.003.007-.006.013-.01.02 7.947 15.051 17.519 28.96 28.343 41.575z" fill="#ffba7e"/><path d="m55.937 361.552c7.947 15.051 17.519 28.96 28.343 41.575l59.987-59.987c-13.047-19.153-23.453-40.244-30.715-62.75-2.223 1.795-4.361 3.704-6.392 5.735l-59.021 59.021c2.374 5.541 4.97 11.009 7.808 16.385-.003.008-.006.014-.01.021z" fill="#ffaa5b"/><path d="m379.291 66.374-9.293 27.969c-4.347 13.082 7.428 25.823 20.812 22.519l36.112-8.916c-13.677-15.766-29.67-29.866-47.631-41.572z" fill="#ffba7e"/><path d="m409.92 360.012c-16.036 16.036-37.548 25.405-60.211 26.225l-47.969 1.734-18.419 3.227-97.236 72.113v7.798c140.04 45.387 274.094-51.178 293.883-181.145z" fill="#ffaa5b"/><path d="m347.805 450.866c-39.541 0-76.896-9.34-110.002-25.911l-51.716 38.355v7.798c67.756 21.96 134.11 10.687 186.799-21.519-8.249.836-16.613 1.277-25.081 1.277z" fill="#ff9838"/><path d="m468.04 2.068-35.306 34.846c6.981 1.027 12.712 3.605 16.974 7.867 32.412 32.412-31.959 149.333-143.777 261.151-111.817 111.817-228.739 176.188-261.151 143.776-5.184-5.184-7.881-12.538-8.315-21.68l-35.377 34.918c2.076 13.196 7.144 24.208 15.447 32.511 49.893 49.893 197.549-16.872 329.799-149.122s199.016-279.908 149.123-329.801c-7.21-7.209-16.466-11.975-27.417-14.466z" fill="#ffe02f"/><path d="m464.781 23.737c-3.143-3.144-6.73-5.758-10.697-7.895l-21.349 21.072c6.981 1.027 12.712 3.605 16.974 7.867 32.412 32.412-31.959 149.333-143.777 261.151-111.818 111.817-228.74 176.188-261.152 143.776-5.184-5.184-7.881-12.538-8.315-21.68l-22.547 22.254c2.402 5.535 5.639 10.416 9.77 14.547 45.577 45.577 181.265-16.218 303.07-138.023 121.805-121.803 183.6-257.492 138.023-303.069z" fill="#fbc700"/></g></svg>