<?xml version="1.0"?>
<svg xmlns="http://www.w3.org/2000/svg" xmlns:xlink="http://www.w3.org/1999/xlink" xmlns:svgjs="http://svgjs.com/svgjs" version="1.1" width="512" height="512" x="0" y="0" viewBox="0 0 512 512" style="enable-background:new 0 0 512 512" xml:space="preserve" class=""><g><path xmlns="http://www.w3.org/2000/svg" d="m410.553 336.541-2.622 1.961a5 5 0 1 0 5.989 8.008l2.622-1.961a5 5 0 1 0 -5.989-8.008z" fill="#ffffff" data-original="#000000" style="" class=""/><path xmlns="http://www.w3.org/2000/svg" d="m370.173 92.158a4.975 4.975 0 0 0 3.149-1.119l24.135-19.6a5 5 0 1 0 -6.3-7.763l-24.134 19.6a5 5 0 0 0 3.154 8.882z" fill="#ffffff" data-original="#000000" style="" class=""/><path xmlns="http://www.w3.org/2000/svg" d="m293.03 154.808a4.979 4.979 0 0 0 3.149-1.119l43.883-35.638a5 5 0 0 0 -6.3-7.763l-43.883 35.639a5 5 0 0 0 3.155 8.881z" fill="#ffffff" data-original="#000000" style="" class=""/><path xmlns="http://www.w3.org/2000/svg" d="m223.229 211.494a4.977 4.977 0 0 0 3.149-1.119l31.752-25.786a5 5 0 1 0 -6.3-7.762l-31.752 25.786a5 5 0 0 0 3.155 8.881z" fill="#ffffff" data-original="#000000" style="" class=""/><path xmlns="http://www.w3.org/2000/svg" d="m465.823 198.235 21.863-18.4a5 5 0 0 0 -6.438-7.651l-21.863 18.4a5 5 0 0 0 6.438 7.652z" fill="#ffffff" data-original="#000000" style="" class=""/><path xmlns="http://www.w3.org/2000/svg" d="m427.887 223.622a5 5 0 0 0 -7.045-.606l-74.363 62.573a5 5 0 1 0 6.439 7.651l74.363-62.573a5 5 0 0 0 .606-7.045z" fill="#ffffff" data-original="#000000" style="" class=""/><path xmlns="http://www.w3.org/2000/svg" d="m320.2 314.237a5 5 0 0 0 -7.045-.607l-12.262 10.319a5 5 0 0 0 6.438 7.652l12.263-10.319a5 5 0 0 0 .606-7.045z" fill="#ffffff" data-original="#000000" style="" class=""/><path xmlns="http://www.w3.org/2000/svg" d="m487.914 83.224-89.747 70.4a5 5 0 1 0 6.171 7.868l89.748-70.4a5 5 0 1 0 -6.172-7.868z" fill="#ffffff" data-original="#000000" style="" class=""/><path xmlns="http://www.w3.org/2000/svg" d="m349.7 203a4.978 4.978 0 0 0 3.083-1.066l13.992-10.976a5 5 0 1 0 -6.172-7.868l-13.992 10.976a5 5 0 0 0 3.089 8.934z" fill="#ffffff" data-original="#000000" style="" class=""/><path xmlns="http://www.w3.org/2000/svg" d="m223.229 302.833a4.978 4.978 0 0 0 3.1-1.08l88.31-69.9a5 5 0 1 0 -6.206-7.84l-88.31 69.9a5 5 0 0 0 3.106 8.921z" fill="#ffffff" data-original="#000000" style="" class=""/><path xmlns="http://www.w3.org/2000/svg" d="m38.26 239.653a11.13 11.13 0 1 0 -11.13 11.129 11.143 11.143 0 0 0 11.13-11.129z" fill="#ffffff" data-original="#000000" style="" class=""/><path xmlns="http://www.w3.org/2000/svg" d="m82.317 200.914a6.226 6.226 0 1 0 -6.226-6.226 6.233 6.233 0 0 0 6.226 6.226z" fill="#ffffff" data-original="#000000" style="" class=""/><path xmlns="http://www.w3.org/2000/svg" d="m327.661 449.442a9.9 9.9 0 1 0 -9.9-9.9 9.914 9.914 0 0 0 9.9 9.9zm.1-9.442h-.192c-.003-1 .187-1 .188 0z" fill="#ffffff" data-original="#000000" style="" class=""/><path xmlns="http://www.w3.org/2000/svg" d="m311.537 79.487a8.408 8.408 0 1 0 -8.408-8.407 8.417 8.417 0 0 0 8.408 8.407z" fill="#ffffff" data-original="#000000" style="" class=""/><path xmlns="http://www.w3.org/2000/svg" d="m77.355 306.939a5 5 0 0 0 -.326 5.27l23.026 42.73-22.147 43.194a5 5 0 0 0 5.345 7.2l47.755-8.694 34.236 34.409a5 5 0 0 0 8.5-2.858l6.488-48.1 43.306-21.926a5 5 0 0 0 -.092-8.968l-43.746-21.038-7.47-47.962a5 5 0 0 0 -8.557-2.684l-33.524 35.1-47.923-7.712a5.008 5.008 0 0 0 -4.871 2.039z" fill="#ffffff" data-original="#000000" style="" class=""/><path xmlns="http://www.w3.org/2000/svg" d="m237.329 369.763a5.007 5.007 0 0 0 4.616 2.563l15.228-.752 9.252 12.118a5 5 0 0 0 8.8-1.726l3.991-14.715 14.384-5.051a5 5 0 0 0 1.078-8.9l-12.761-8.342-.363-15.243a5 5 0 0 0 -8.134-3.776l-11.877 9.559-14.609-4.365a5 5 0 0 0 -6.1 6.568l5.421 14.25-8.666 12.545a5 5 0 0 0 -.26 5.267z" fill="#ffffff" data-original="#000000" style="" class=""/><path xmlns="http://www.w3.org/2000/svg" d="m162.556 245.3 15.228-.753 9.253 12.118a5 5 0 0 0 3.973 1.966 5.075 5.075 0 0 0 .963-.093 5 5 0 0 0 3.863-3.6l3.991-14.715 14.384-5.055a5 5 0 0 0 1.079-8.9l-12.763-8.342-.362-15.242a5 5 0 0 0 -8.133-3.777l-11.878 9.559-14.609-4.366a5 5 0 0 0 -6.1 6.569l5.421 14.25-8.666 12.549a5 5 0 0 0 4.361 7.836z" fill="#ffffff" data-original="#000000" style="" class=""/></g></svg>
