<?xml version="1.0"?>
<svg xmlns="http://www.w3.org/2000/svg" xmlns:xlink="http://www.w3.org/1999/xlink" xmlns:svgjs="http://svgjs.com/svgjs" version="1.1" width="512" height="512" x="0" y="0" viewBox="0 0 474.816 474.816" style="enable-background:new 0 0 512 512" xml:space="preserve" class=""><g>
<g xmlns="http://www.w3.org/2000/svg">
	<g>
		<path d="M234.988,92.016l42.12-33.464l-50.048,19.76c-74.872,29.552-84.976,26.856-135.04-36.192L58.556,0l19.768,50.04    c29.552,74.88,26.848,84.976-36.2,135.048l-42.12,33.464l50.048-19.76c74.872-29.568,84.968-26.864,135.04,36.192l33.464,42.12    l-19.768-50.04C169.236,152.184,171.94,142.088,234.988,92.016z M169.636,192.384c-18.72-19.208-34.2-27.76-54.28-27.76    c-10.391,0.266-20.697,1.951-30.632,5.008c27.848-27.136,33.304-47.488,22.752-84.912c27.144,27.848,47.488,33.304,84.912,22.752    C164.54,134.608,159.084,154.96,169.636,192.384z" fill="#ffffff" data-original="#000000" style=""/>
	</g>
</g>
<g xmlns="http://www.w3.org/2000/svg">
	<g>
		<path d="M232.692,343.816l42.12-33.464l-50.04,19.76c-45.808,18.08-50.344,16.856-80.952-21.696l-33.456-42.128l19.752,50.048    c18.08,45.792,16.864,50.328-21.696,80.952L66.3,430.752l50.04-19.76c45.808-18.08,50.344-16.856,80.952,21.696l33.456,42.128    l-19.752-50.048C192.916,378.976,194.132,374.44,232.692,343.816z M184.844,395.304c-7.755-7.297-17.984-11.39-28.632-11.456    c-3.481,0.027-6.954,0.361-10.376,1c9.817-10.437,13.749-25.099,10.472-39.048c10.441,9.81,25.102,13.736,39.048,10.456    C185.525,366.685,181.577,381.349,184.844,395.304z" fill="#ffffff" data-original="#000000" style=""/>
	</g>
</g>
<g xmlns="http://www.w3.org/2000/svg">
	<g>
		<path d="M432.692,167.816l42.12-33.464l-50.04,19.76c-45.808,18.088-50.344,16.856-80.952-21.696l-33.456-42.128l19.752,50.048    c18.08,45.792,16.864,50.328-21.696,80.952l-42.12,33.464l50.04-19.76c45.8-18.088,50.344-16.848,80.952,21.696l33.456,42.128    l-19.752-50.048C392.916,202.976,394.132,198.44,432.692,167.816z M384.844,219.304c-7.755-7.297-17.984-11.39-28.632-11.456    c-3.481,0.027-6.954,0.361-10.376,1c9.817-10.437,13.749-25.099,10.472-39.048c10.441,9.81,25.102,13.736,39.048,10.456    C385.525,190.685,381.577,205.349,384.844,219.304z" fill="#ffffff" data-original="#000000" style=""/>
	</g>
</g>
<g xmlns="http://www.w3.org/2000/svg">
</g>
<g xmlns="http://www.w3.org/2000/svg">
</g>
<g xmlns="http://www.w3.org/2000/svg">
</g>
<g xmlns="http://www.w3.org/2000/svg">
</g>
<g xmlns="http://www.w3.org/2000/svg">
</g>
<g xmlns="http://www.w3.org/2000/svg">
</g>
<g xmlns="http://www.w3.org/2000/svg">
</g>
<g xmlns="http://www.w3.org/2000/svg">
</g>
<g xmlns="http://www.w3.org/2000/svg">
</g>
<g xmlns="http://www.w3.org/2000/svg">
</g>
<g xmlns="http://www.w3.org/2000/svg">
</g>
<g xmlns="http://www.w3.org/2000/svg">
</g>
<g xmlns="http://www.w3.org/2000/svg">
</g>
<g xmlns="http://www.w3.org/2000/svg">
</g>
<g xmlns="http://www.w3.org/2000/svg">
</g>
</g></svg>
