<?xml version="1.0" encoding="iso-8859-1"?>
<!-- Generator: Adobe Illustrator 19.0.0, SVG Export Plug-In . SVG Version: 6.00 Build 0)  -->
<svg version="1.1" id="Capa_1" xmlns="http://www.w3.org/2000/svg" xmlns:xlink="http://www.w3.org/1999/xlink" x="0px"
	y="0px" viewBox="0 0 512.084 512.084" style="enable-background:new 0 0 512.084 512.084;" xml:space="preserve">
	<path style="fill:#D7EDF9;" d="M416.084,181.389L416.084,181.389c-29.46-70.69-110.648-104.114-181.339-74.654
	c-48.335,20.143-81.2,65.796-84.966,118.025c-40.848,5.649-69.383,43.343-63.734,84.192c5.112,36.962,36.725,64.475,74.038,64.438
	h256c53.019,0,96-42.981,96-96S469.104,181.389,416.084,181.389z" />
	<path style="fill:#D7EDF9;" d="M330.751,224.056L330.751,224.056c-29.46-70.69-110.648-104.114-181.338-74.654
	c-48.335,20.143-81.2,65.796-84.966,118.025c-40.848,5.649-69.383,43.343-63.734,84.192c5.112,36.962,36.725,64.475,74.038,64.438
	h256c53.019,0,96-42.981,96-96S383.77,224.056,330.751,224.056z" />
	<g>
	</g>
	<g>
	</g>
	<g>
	</g>
	<g>
	</g>
	<g>
	</g>
	<g>
	</g>
	<g>
	</g>
	<g>
	</g>
	<g>
	</g>
	<g>
	</g>
	<g>
	</g>
	<g>
	</g>
	<g>
	</g>
	<g>
	</g>
	<g>
	</g>
</svg>