<?xml version="1.0" encoding="iso-8859-1"?>
<!-- Generator: Adobe Illustrator 19.0.0, SVG Export Plug-In . SVG Version: 6.00 Build 0)  -->
<svg version="1.1" id="Capa_1" xmlns="http://www.w3.org/2000/svg" xmlns:xlink="http://www.w3.org/1999/xlink" x="0px"
	y="0px" viewBox="0 0 512 512" style="enable-background:new 0 0 512 512;" xml:space="preserve">
	<path style="fill:#D7EDF9;" d="M412.903,214.71c-0.141,0-0.276,0.021-0.415,0.021c-4.258-64.553-57.825-115.634-123.456-115.634
	c-37.692,0-71.387,16.892-94.107,43.452c-6.95-1.413-14.139-2.161-21.506-2.161c-49.339,0-90.797,33.327-103.361,78.667
	C29.502,231.468,0,269.183,0,313.806c0,54.729,44.367,99.097,99.097,99.097h313.806c54.73,0,99.097-44.367,99.097-99.097
	C512,259.077,467.633,214.71,412.903,214.71z" />
	<path style="fill:#D7EDf1;" d="M404.645,379.871H201.507c-54.679,0-101.554-42.86-102.398-97.533
	c-0.635-41.122,23.809-76.549,59.01-92.131c7.789-3.448,14.118-9.401,17.563-17.191c4.913-11.11,11.418-21.358,19.208-30.474
	c-6.938-1.408-14.116-2.156-21.471-2.156c-49.339,0-90.797,33.327-103.361,78.667C28.762,231.695-1.074,270.569,0.03,316.257
	c1.311,54.312,47.976,96.646,102.303,96.646h302.312c9.122,0,16.516-7.395,16.516-16.516l0,0
	C421.161,387.265,413.767,379.871,404.645,379.871z" />
	<g>
	</g>
	<g>
	</g>
	<g>
	</g>
	<g>
	</g>
	<g>
	</g>
	<g>
	</g>
	<g>
	</g>
	<g>
	</g>
	<g>
	</g>
	<g>
	</g>
	<g>
	</g>
	<g>
	</g>
	<g>
	</g>
	<g>
	</g>
	<g>
	</g>
</svg>