<svg id="Capa_1" enable-background="new 0 0 512 512" height="512" viewBox="0 0 512 512" width="512"
    xmlns="http://www.w3.org/2000/svg">
    <g>
        <g>
            <path
                d="m435.329 7.431c-22.19-6.845-81.916-19.596-131.633 20.997-30.833 25.175-42.326 58.218-46.071 85.204l81.04-37.914-1.276-9.309c-.489-3.563 2.725-6.52 6.235-5.739l28.33 6.306c1.544.344 3.16-.04 4.386-1.04l60.721-49.577c3.188-2.605 2.203-7.715-1.732-8.928z"
                fill="#91bf62" />
            <path
                d="m261.868 360.817 27.389 12.316 24.418-5.82c6.1-73.713-13.511-137.423-28.04-173.058l-15.301-56.079-.377-4.603-13.901-.017h-14.078l-.203 4.622-5.79 54.307c31.769 62.099 33.015 122.549 25.883 168.332z"
                fill="#cf8151" />
            <path
                d="m313.675 367.312c-16.564-3.75-33.868-6.076-51.807-6.496-1.01 6.484-2.187 12.674-3.471 18.533l26.039 12.746 27.248-6.647c.852-6.107 1.496-12.15 1.991-18.136z"
                fill="#bd6e45" />
            <path
                d="m495.066 493.419c-35.768-36.512-125.175-114.103-239.066-114.103s-203.298 77.591-239.066 114.103l239.17 9.29z"
                fill="#dab46a" />
            <path
                d="m76.785 7.431c22.19-6.845 81.916-19.596 131.633 20.997 30.833 25.175 42.325 58.218 46.071 85.204l-81.04-37.914 1.276-9.309c.489-3.563-2.725-6.52-6.235-5.739l-28.33 6.306c-1.544.344-3.16-.04-4.386-1.04l-60.72-49.578c-3.189-2.604-2.204-7.714 1.731-8.927z"
                fill="#91bf62" />
            <path
                d="m254.489 113.631c-7.054-6.316-38.233-32.202-81.04-37.914l-2.503 18.26 85.111 39.579c-.119-6.041-.575-12.773-1.568-19.925z"
                fill="#88af5d" />
            <path
                d="m225.705 182.204c13.521 0 28.897-12.025 28.897-27.571-3.925-12.216-15.376-21.06-28.898-21.06-13.521 0-24.973 8.844-28.898 21.06.001 18.649 15.378 27.571 28.899 27.571z"
                fill="#f6e080" />
            <path
                d="m225.705 175.693c-13.521 0-24.973-8.843-28.898-21.06-.941 2.929-1.454 6.049-1.454 9.29 0 16.762 13.589 30.35 30.352 30.35s30.352-13.588 30.352-30.35c0-3.241-.513-6.362-1.454-9.29-3.926 12.217-15.377 21.06-28.898 21.06z"
                fill="#eccd61" />
            <path
                d="m286.409 185.231c13.522 0 28.898-14.569 28.898-30.598-3.925-12.216-15.376-21.06-28.898-21.06-13.521 0-24.972 8.844-28.897 21.06-.001 19.821 15.375 30.598 28.897 30.598z"
                fill="#f6e080" />
            <path
                d="m257.624 113.631c7.054-6.316 38.233-32.202 81.04-37.914l2.504 18.26-85.111 39.579c.119-6.041.575-12.773 1.567-19.925z"
                fill="#88af5d" />
            <path
                d="m120.969 158.685 3.13-8.465c1.247-3.373 5.474-4.469 8.203-2.127l5.859 5.03 52.847-7.207 48.315-25.524c-23.189-15.8-68.215-38.171-120.664-21.201-52.456 16.973-75.832 61.475-85.366 87.863l42.959-2.68z"
                fill="#acd980" />
            <path
                d="m388.018 150.219 3.13 8.465 49.834 25.065 37.842 3.303c-9.534-26.388-32.909-70.89-85.366-87.863-52.449-16.97-97.475 5.401-120.664 21.201l49.318 26.295 51.844 6.437 5.859-5.03c2.729-2.341 6.956-1.245 8.203 2.127z"
                fill="#acd980" />
            <path
                d="m141.692 425.495c13.521 0 28.898-16.839 28.898-30.35-3.925-12.217-15.376-21.06-28.898-21.06-13.521 0-24.973 8.844-28.898 21.06.001 15.8 15.377 30.35 28.898 30.35z"
                fill="#f6e080" />
            <path
                d="m16.934 493.419c-3.732 3.81-6.881 7.173-9.412 9.954-3.015 3.312-.653 8.627 3.825 8.627h489.305c4.479 0 6.84-5.315 3.825-8.627-2.531-2.781-5.68-6.144-9.412-9.954z"
                fill="#caa763" />
            <path
                d="m141.692 416.205c-13.521 0-24.972-8.844-28.898-21.06-.941 2.929-1.454 6.049-1.454 9.29 0 16.762 13.589 30.35 30.352 30.35s30.352-13.588 30.352-30.35c0-3.241-.513-6.362-1.454-9.29-3.925 12.216-15.376 21.06-28.898 21.06z"
                fill="#eccd61" />
            <path
                d="m286.409 175.693c-13.521 0-24.972-8.843-28.897-21.06-.941 2.929-1.454 6.049-1.454 9.29 0 16.762 13.589 30.35 30.352 30.35s30.352-13.588 30.352-30.35c0-3.241-.513-6.362-1.454-9.29-3.927 12.217-15.378 21.06-28.899 21.06z"
                fill="#eccd61" />
            <g>
                <g>
                    <g>
                        <path
                            d="m33.286 187.055c-1.566 4.334-2.76 8.18-3.646 11.335-1.115 3.967 2.639 7.571 6.56 6.303l74.583-24.131c1.505-.487 2.704-1.637 3.252-3.121l6.934-18.756z"
                            fill="#9cd169" />
                    </g>
                    <g>
                        <path
                            d="m138.161 153.122 13.524 11.609c1.364 1.171 3.24 1.548 4.951.994l99.423-32.169s-6.052-5.886-16.736-13.166z"
                            fill="#9cd169" />
                    </g>
                </g>
            </g>
            <g>
                <g>
                    <g>
                        <path
                            d="m478.83 187.055c1.566 4.334 2.759 8.18 3.646 11.335 1.115 3.967-2.639 7.571-6.56 6.303l-74.583-24.131c-1.505-.487-2.704-1.637-3.252-3.121l-6.934-18.756z"
                            fill="#9cd169" />
                    </g>
                    <g>
                        <path
                            d="m373.956 153.122-13.524 11.609c-1.364 1.171-3.24 1.548-4.951.994l-99.423-32.169s6.052-5.886 16.736-13.166z"
                            fill="#9cd169" />
                    </g>
                </g>
            </g>
        </g>
    </g>
</svg>