<?xml version="1.0" encoding="iso-8859-1"?>
<!-- Generator: Adobe Illustrator 19.0.0, SVG Export Plug-In . SVG Version: 6.00 Build 0)  -->
<svg version="1.1" id="Capa_1" xmlns="http://www.w3.org/2000/svg" xmlns:xlink="http://www.w3.org/1999/xlink" x="0px"
	y="0px" viewBox="0 0 512.171 512.171" style="enable-background:new 0 0 512.171 512.171;" xml:space="preserve">
	<path style="fill:#fff;" d="M469.205,277.333H352.341V10.667C352.341,4.776,347.566,0,341.675,0H171.008
	c-5.891,0-10.667,4.776-10.667,10.667v266.667H43.008c-5.891,0.001-10.666,4.778-10.664,10.669c0.001,2.822,1.12,5.53,3.112,7.528
	l212.8,213.504c2.001,2.007,4.718,3.135,7.552,3.136l0,0c2.831,0.005,5.548-1.115,7.552-3.115l213.333-213.504
	c4.171-4.16,4.179-10.914,0.019-15.085C474.722,278.472,472.023,277.345,469.205,277.333z" />
	<g>
	</g>
	<g>
	</g>
	<g>
	</g>
	<g>
	</g>
	<g>
	</g>
	<g>
	</g>
	<g>
	</g>
	<g>
	</g>
	<g>
	</g>
	<g>
	</g>
	<g>
	</g>
	<g>
	</g>
	<g>
	</g>
	<g>
	</g>
	<g>
	</g>
</svg>