<?xml version="1.0" encoding="iso-8859-1"?>
<!-- Generator: Adobe Illustrator 19.0.0, SVG Export Plug-In . SVG Version: 6.00 Build 0)  -->
<svg version="1.1" id="Capa_1" xmlns="http://www.w3.org/2000/svg" xmlns:xlink="http://www.w3.org/1999/xlink" x="0px" y="0px"
	 viewBox="0 0 511.999 511.999" style="enable-background:new 0 0 511.999 511.999;" xml:space="preserve">
<path style="fill:#B5E489;" d="M442.735,205.947c-8.779,18.528-26.74,29.801-37.452,35.16c-4.528,2.265-10.009-0.332-11.123-5.271
	c-2.637-11.684-5.287-32.723,3.493-51.251c8.755-18.477,26.64-29.739,37.363-35.115c4.599-2.306,10.106,0.304,11.234,5.323
	C448.88,166.496,451.49,187.47,442.735,205.947z"/>
<path style="opacity:0.1;enable-background:new    ;" d="M442.735,205.947c-8.779,18.528-26.74,29.801-37.452,35.16
	c-4.528,2.265-10.009-0.332-11.123-5.271c-2.637-11.684-5.287-32.723,3.493-51.251c8.755-18.477,26.64-29.739,37.363-35.115
	c4.599-2.306,10.106,0.304,11.234,5.323C448.88,166.496,451.49,187.47,442.735,205.947z"/>
<path style="opacity:0.1;enable-background:new    ;" d="M412.351,219.311c-1.077,0-2.169-0.233-3.207-0.724
	c-3.743-1.774-5.34-6.246-3.566-9.989l15.665-33.061c1.775-3.743,6.248-5.338,9.989-3.566c3.743,1.774,5.34,6.246,3.566,9.989
	l-15.665,33.061C417.851,217.726,415.158,219.311,412.351,219.311z"/>
<path style="fill:#54B88B;" d="M221.374,199.298c-14.498,14.498-35.203,19.076-47.093,20.521c-5.026,0.611-9.314-3.678-8.704-8.704
	c1.445-11.891,6.023-32.596,20.521-47.093c14.457-14.458,35.088-19.051,46.994-20.509c5.107-0.625,9.416,3.684,8.79,8.79
	C240.425,164.21,235.832,184.84,221.374,199.298z"/>
<path style="opacity:0.1;enable-background:new    ;" d="M221.374,199.298c-14.498,14.498-35.203,19.076-47.093,20.521
	c-5.026,0.611-9.314-3.678-8.704-8.704c1.445-11.891,6.023-32.596,20.521-47.093c14.457-14.458,35.088-19.051,46.994-20.509
	c5.107-0.625,9.416,3.684,8.79,8.79C240.425,164.21,235.832,184.84,221.374,199.298z"/>
<path style="opacity:0.1;enable-background:new    ;" d="M190.791,202.104c-1.92,0-3.839-0.732-5.303-2.197
	c-2.929-2.929-2.929-7.678,0-10.606l25.869-25.869c2.929-2.929,7.678-2.929,10.606,0c2.929,2.929,2.929,7.678,0,10.606
	l-25.869,25.869C194.63,201.372,192.711,202.104,190.791,202.104z"/>
<path style="fill:#54B88B;" d="M91.902,188.081c14.498,14.498,19.076,35.203,20.521,47.094c0.611,5.026-3.678,9.314-8.703,8.703
	c-11.891-1.445-32.596-6.023-47.094-20.521c-14.458-14.458-19.05-35.088-20.509-46.994c-0.625-5.106,3.684-9.416,8.791-8.79
	C56.814,169.031,77.445,173.624,91.902,188.081z"/>
<path style="opacity:0.1;enable-background:new    ;" d="M87.208,226.164c-1.92,0-3.839-0.732-5.303-2.197l-25.869-25.869
	c-2.929-2.929-2.929-7.678,0-10.606c2.929-2.929,7.678-2.929,10.606,0l25.869,25.869c2.929,2.929,2.929,7.678,0,10.606
	C91.047,225.431,89.128,226.164,87.208,226.164z"/>
<path style="fill:#54B88B;" d="M284.913,244.658c-3.733-0.735-6.846-3.22-8.35-6.715c-6.77-15.739-22.409-26.763-40.63-26.763
	c-5.044,0-9.888,0.847-14.402,2.404c-4.866,1.678-10.192-0.184-13.111-4.424c-14.72-21.382-39.356-35.405-67.278-35.405
	c-38.398,0-70.595,26.51-79.311,62.224c-1.07,4.384-4.767,7.578-9.223,8.289c-29.683,4.736-52.4,30.344-52.607,61.312
	c-0.231,34.631,28.865,62.965,63.497,62.965h208.368c34.305,0,62.897-27.254,63.425-61.555
	C335.765,276.174,313.944,250.376,284.913,244.658z"/>
<path style="fill:#B5E489;" d="M486.578,267.426c0.936-4.098,1.308-8.411,1.028-12.853c-1.414-22.441-19.72-40.527-42.175-41.691
	c-8.817-0.457-17.107,1.651-24.199,5.64c-4.299,2.418-9.671,1.529-13.141-1.976c-16.168-16.331-38.591-26.456-63.388-26.456
	c-40.263,0-74.287,26.671-85.392,63.308c-1.422,4.691-5.794,7.785-10.696,7.776c-0.029,0-0.059,0-0.089,0
	c-29.887,0-54.07,24.422-53.681,54.399c0.383,29.503,24.977,52.973,54.482,52.973h212.552c27.301,0,50.069-21.841,50.12-49.142
	c0.031-16.737-8.288-31.532-21.025-40.452C487.286,276.369,485.576,271.815,486.578,267.426z"/>
<g>
	<circle style="fill:#FF6E6E;" cx="253.999" cy="317.659" r="13.607"/>
	<circle style="fill:#FF6E6E;" cx="315.029" cy="271.149" r="13.607"/>
	<circle style="fill:#FF6E6E;" cx="373.359" cy="326.719" r="13.607"/>
	<circle style="fill:#FF6E6E;" cx="406.579" cy="257.539" r="13.607"/>
	<circle style="fill:#FF6E6E;" cx="468.509" cy="315.579" r="13.607"/>
</g>
<path style="opacity:0.1;enable-background:new    ;" d="M315.992,281.048c-13.153-25.74-7.655-74.259,11.536-89.29
	c-32.445,6.33-58.601,30.23-68.145,61.403c-1.454,4.749-5.802,8.015-10.768,8.012h-0.089c-29.887,0-54.07,24.422-53.681,54.399
	c0.383,29.503,24.976,52.973,54.482,52.973h80.295c-34.929-10.827-26.851-54.733-14.145-75.292
	C317.769,289.545,317.976,284.931,315.992,281.048z"/>
<g>
	<circle style="fill:#FBDD56;" cx="133.989" cy="233.489" r="13.607"/>
	<circle style="fill:#FBDD56;" cx="58.725" cy="294.759" r="13.607"/>
	<circle style="fill:#FBDD56;" cx="151.909" cy="321.979" r="13.607"/>
</g>
<path style="opacity:0.1;enable-background:new    ;" d="M138.92,173.803c-37.404,1.001-68.529,27.143-77.084,62.153
	c-1.073,4.393-4.764,7.6-9.229,8.313c-29.682,4.736-52.4,30.344-52.606,61.312c-0.232,34.861,28.636,62.965,63.497,62.965h68.123
	c-29.702-17.152-32.498-61.904-13.354-84.087c4.22-4.89,4.566-12.136,0.867-17.43C99.294,238.631,109.503,189.795,138.92,173.803z"
	/>
<g>
</g>
<g>
</g>
<g>
</g>
<g>
</g>
<g>
</g>
<g>
</g>
<g>
</g>
<g>
</g>
<g>
</g>
<g>
</g>
<g>
</g>
<g>
</g>
<g>
</g>
<g>
</g>
<g>
</g>
</svg>
