<svg id="Capa_1" enable-background="new 0 0 512 512" height="512" viewBox="0 0 512 512" width="512" xmlns="http://www.w3.org/2000/svg"><path d="m251.163 363.998h226.702c11.365-15.772 18.135-35.075 18.135-56 0-47.175-34.049-86.325-78.901-94.389-5.723-1.029-10.088-5.356-11.88-10.888-7.276-22.468-28.327-38.724-53.219-38.724-6.504 0-12.746 1.113-18.551 3.155-5.18 1.822-10.91 1.205-15.179-2.249-15.238-12.329-33.748-20.768-54.046-23.732-5.295-.773-10.712-.005-16.224-.005-63.651 0-104.278 51.928-101.25 116.245 2.836 60.241 44.106 106.587 104.413 106.587z" fill="#aedb81"/><path d="m168.127 257.412c-2.771-58.854 40.076-108.262 96.116-116.24-5.271-.766-10.757-1.174-16.243-1.174-63.651 0-114.9 53.097-111.873 117.414 2.836 60.24 54.728 106.586 115.035 106.586h32c-60.307 0-112.198-46.346-115.035-106.586z" fill="#95cc81"/><g fill="#d19a6e"><path d="m421.328 370.002c-1.078 0-2.18-.223-3.234-.691-4.039-1.793-5.859-6.52-4.07-10.559l20.188-45.484c1.797-4.027 6.508-5.867 10.555-4.066 4.039 1.793 5.859 6.52 4.07 10.559l-20.188 45.484c-1.329 2.984-4.251 4.757-7.321 4.757z"/><path d="m390.398 263.197c-2.648-3.531-7.664-4.266-11.195-1.598l-24.673 18.504-10.999-30.797c-1.484-4.156-6.078-6.336-10.219-4.844-4.164 1.488-6.336 6.066-4.844 10.227l40 112c1.164 3.27 4.242 5.313 7.531 5.313.891 0 1.805-.152 2.688-.469 4.164-1.488 6.336-6.066 4.844-10.227l-19.403-54.328c-2.359-6.604-.142-13.974 5.468-18.181l19.201-14.4c3.539-2.649 4.258-7.665 1.601-11.2z"/><path d="m282.766 204.49c-4.141-1.52-8.742.594-10.273 4.742l-6.389 17.341-17.939-21.677c-2.82-3.402-7.859-3.879-11.266-1.063s-3.875 7.859-1.063 11.266l17.999 21.748c3.634 4.391 4.658 10.384 2.687 15.732l-40.03 108.652c-1.523 4.145.594 8.746 4.742 10.273.914.336 1.844.496 2.766.496 3.258 0 6.313-2.004 7.508-5.238l56-152c1.523-4.143-.594-8.744-4.742-10.272z"/></g><path d="m287.746 333.538c-2.507-31.942-24.898-59.631-55.351-69.591-13.25-4.333-25.979-4.842-37.835-2.774-5.059.882-10.297-.568-13.886-4.243-20.678-21.172-51.058-32.826-83.959-27.75-.961.148-1.917.311-2.868.489-39.823 7.433-61.952 40.357-67.513 80.661-2.573 18.648 7.503 36.447 14.333 52.076l228.083 1.594 19.25-24.001c0-2.136-.084-4.29-.254-6.461z" fill="#95cc81"/><path d="m72 339.998c-13.255 0-24-10.745-24-24 0-35.914 18.163-67.641 45.847-86.327-39.831 7.426-71.34 40.348-76.902 80.659-2.573 18.648.216 36.447 7.046 52.076l260.346 1.594c2.379-7.573 3.662-15.644 3.663-24.002z" fill="#7dbd80"/><path d="m119.664 281.701c-1.273-4.234-5.719-6.641-9.961-5.367-4.234 1.27-6.633 5.73-5.367 9.961l9.639 32.129-31.545-10.047c-4.234-1.344-8.711.98-10.055 5.191-1.336 4.211.984 8.711 5.195 10.051l33.929 10.806c5.034 1.603 8.952 5.588 10.47 10.648l6.367 21.222c1.039 3.469 4.219 5.707 7.664 5.707.758 0 1.531-.113 2.297-.34 4.234-1.27 6.633-5.73 5.367-9.961z" fill="#b57f5f"/><path d="m211.969 301.053c-3.852-2.199-8.727-.859-10.914 2.977l-32 56c-2.195 3.836-.859 8.723 2.977 10.914 1.25.715 2.617 1.055 3.961 1.055 2.781 0 5.477-1.445 6.953-4.031l32-56c2.195-3.837.859-8.724-2.977-10.915z" fill="#b57f5f"/><path d="m504 371.998h-496c-4.422 0-8-3.582-8-8s3.578-8 8-8h496c4.422 0 8 3.582 8 8s-3.578 8-8 8z" fill="#95cc81"/></svg>