<?xml version="1.0" encoding="iso-8859-1"?>
<!-- Generator: Adobe Illustrator 19.0.0, SVG Export Plug-In . SVG Version: 6.00 Build 0)  -->
<svg version="1.1" id="Capa_1" xmlns="http://www.w3.org/2000/svg" xmlns:xlink="http://www.w3.org/1999/xlink" x="0px" y="0px"
	 viewBox="0 0 509.987 509.987" style="enable-background:new 0 0 509.987 509.987;" xml:space="preserve">
<path style="fill:#9A795F;" d="M181.683,496.36c9.568-8.864,19.776-30.96,30.864-75.712c0.048-0.176,0.08-0.32,0.096-0.496
	c0.56-3.456,8.576-58.784-9.568-111.232c-1.824-5.264,4.816-9.28,8.576-5.168l5.856,17.584c3.152,3.456,8.896,1.216,8.896-3.456
	v-31.984c0-3.024,2.608-5.392,5.616-5.088l29.04,2.848c2.624,0.256,4.624,2.464,4.624,5.088v22.464c0,4.64,5.68,6.88,8.848,3.504
	l30.544-35.92c2.8-2.992,7.824-1.632,8.72,2.368l2.496,11.024c0.448,1.984-0.304,4.064-1.952,5.248
	c-11.408,8.16-59.696,60.384-43.152,146.448c0.048,0.256,0.096,0.48,0.192,0.72c1.104,3.264,4.816,29.232,26.992,50.24
	c2.944,2.784,1.712,7.696-2.208,8.672c-5.664,1.424-12.72,3.328-17.952,5.184c-15.216,5.376-35.808-7.472-42.72-12.256
	c-1.504-1.04-3.392-1.184-5.04-0.416c-7.808,3.696-30.56,13.888-39.424,11.36c-3.024-0.864-5.552-1.728-7.648-2.528
	C179.779,503.544,178.867,498.968,181.683,496.36z"/>
<path style="fill:#8CC63E;" d="M105.507,286.568c3.28-7.12,2.224-16.048-2.624-22.208s-13.264-9.296-20.96-7.808
	c2.304,3.2-0.304,8.032-3.984,9.424c-3.68,1.408-7.808,0.448-11.632-0.512c-6.768-1.696-13.536-3.408-20.32-5.104
	c-4.176-1.056-8.608-2.256-11.488-5.456c-4.608-5.152-3.36-13.088-1.84-19.824c0.608-2.656,1.2-5.312,1.808-7.968
	c1.968-8.656,3.92-17.296,5.888-25.952c1.648-7.232,5.216-16.112,12.624-16.144c-1.52-8.992-1.552-20.816,6.912-24.192
	c3.584-1.424,7.616-0.704,11.456-1.008c10.224-0.8,19.088-10.096,19.392-20.352c0.176-5.6-1.888-11.216-0.96-16.736
	c0.928-5.536,7.216-10.8,11.872-7.664c-0.336-5.056-0.704-10.112-1.056-15.168c3.024-0.848,6.048-1.696,9.072-2.544
	c-0.848-5.088-4.496-9.136-7.312-13.456c-2.8-4.32-4.832-10.032-2.224-14.48c2.624-4.432,11.36-3.664,11.264,1.488
	c2.704-0.672,5.408-1.36,8.112-2.032c-1.488-4.8-2.992-9.808-2.288-14.784c0.704-4.992,4.288-9.952,9.296-10.496
	c4.272-0.464,8.16,2.224,11.6,4.784c4.48,3.344,8.976,6.688,13.456,10.032c2.688,2,5.68,4.096,9.024,3.904
	c3.344-0.192,6.464-4.08,4.624-6.88c-7.712-1.232-10.976-10.352-12.56-17.984c-0.944-4.56-1.728-9.664,0.848-13.536
	c2.176-3.264,6.16-4.704,9.888-5.952c16.416-5.504,32.832-11.008,49.248-16.528c2.992-1.008,6.32-2,9.216-0.752
	c3.76,1.632,5.328,6.432,9.056,8.128c4.384,1.984,12.112,0.736,12.032,5.552c1.632-2.768,3.264-5.536,4.912-8.304
	c1.984,2.8,3.984,5.584,5.968,8.384c1.968-5.76,5.184-12.528,11.248-12.992c5.12-0.4,9.168,4.048,13.872,6.128
	s12.432-1.424,10.128-6.016c5.856-3.664,13.552-0.272,18.992,3.968s10.784,9.6,17.664,10.128c5.024,0.384,10.064-1.984,15.024-1.104
	c7.36,1.296,12.304,9.232,19.728,10.176c5.312,0.672,10.272-2.448,15.424-3.952s12.24-0.32,13.456,4.896
	c0.544,2.368-0.352,4.896,0.208,7.264c1.152,4.864,7.2,6.208,11.76,8.24c4.56,2.032,8.224,9.008,3.824,11.36
	c6.64-1.232,13.84,3.168,15.776,9.632c2.16,7.232-1.408,16.416,3.872,21.824c4,4.096,11.28,3.632,14.976,8.016
	c3.792,4.48,1.76,11.168,1.136,17.008c-0.64,5.84,2.864,13.664,8.56,12.256c2.128-0.528,4.192-2.368,6.24-1.584
	c1.456,0.56,2.128,2.208,2.576,3.696c1.856,6.224,2.496,12.8,1.888,19.28c2.96-0.576,5.776-1.824,8.192-3.616
	c3.6,23.392-6.16,46.544-9.616,69.952c-0.464,3.12-0.672,6.688,1.44,9.024c1.696,1.872,4.384,2.352,6.72,3.36
	c11.2,4.816,12.304,19.984,11.648,32.16c-0.192,3.616-0.576,7.648-3.328,10c-5.472,4.688-13.728-1.472-20.912-0.688
	c-14.192,1.568-13.04,26.096-26.208,31.584c-6.848,2.864-14.496-0.8-21.872-1.616c-7.376-0.832-17.008,4.864-14.224,11.744
	c1.44,3.536,5.568,7.952,2.368,10.032c-11.424-5.632-22.832-11.28-34.256-16.912c-0.304,5.072-1.232,10.096-2.736,14.96
	c-5.584,2.768-10.768-4.048-14.256-9.2c-9.328-13.76-26.304-21.952-42.88-20.704c-2.224,4.416,3.072,8.816,7.664,10.64
	s10.352,4.72,9.744,9.632c-0.464,3.792-4.96,5.936-8.736,5.408s-6.992-2.896-10.208-4.96c-15.472-10-34.432-14.448-52.736-12.4
	c-3.376,0.384-6.848,1.008-9.712,2.848c-2.896,1.856-4.928,4.784-7.536,7.024c-4.608,3.952-10.72,5.568-16.592,7.072
	c-7.216,1.84-14.416,3.68-21.632,5.52c-3.904,0.992-8.064,1.984-11.888,0.736c-3.6-1.168-6.288-4.128-9.408-6.272
	c-9.712-6.624-22.56-4.88-34.32-5.104s-25.776-4.848-28.224-16.352"/>
<g>
	<path style="fill:#7FB239;" d="M267.875,114.584c-6.864-9.184-22.768-8.96-27.616-19.344c-1.712-3.68-1.552-7.984-0.528-11.92
		c2.64-10.064,10.432-17.904,14.944-27.28c4.512-9.376,4.144-23.136-5.328-27.472c-3.12-1.44-6.672-1.536-10.112-1.552
		c-21.52-0.16-43.056,1.488-64.304,4.928c-1.872,0.304-3.872,0.672-5.28,1.952c-3.632,3.312-0.896,9.136,0.704,13.776
		c3.056,8.8,0.576,19.248-6.08,25.76s-17.168,8.736-25.888,5.488c-2.88,10.48,3.312,23.024-2.944,31.904
		c-2.496,3.536-6.496,5.616-10.112,8.032c-12.416,8.256-21.312,21.648-24.112,36.304l-2.864,4.176
		c8,5.824,15.984,11.632,23.984,17.456c5.872,4.272,13.872,8.624,19.824,4.464c3.648-2.56,5.056-7.632,8.944-9.808
		c2.192-1.232,4.832-1.328,7.344-1.376c9.216-0.224,19.296-0.176,26.464,5.632c5.744,4.656,10.736,13.136,17.888,11.248
		c4.72-1.248,6.96-6.672,7.632-11.504s0.56-10.08,3.296-14.112c2.704-4,7.584-5.888,12.24-7.168
		c11.104-3.04,23.072-4.08,32.8-10.224C268.499,137.768,274.755,123.816,267.875,114.584z"/>
	<path style="fill:#7FB239;" d="M288.883,224.84c-3.696-1.504-7.856-1.68-11.52-3.264s-6.928-5.536-5.648-9.328
		c0.592-1.744,2-3.04,3.216-4.432c6.848-7.792,7.696-20.192,2.096-28.944c-5.6-8.736-17.072-13.184-27.136-10.64
		c-5.488,1.376-11.008,5.568-11.088,11.216c-0.032,2.256,0.8,4.416,1.104,6.64c1.344,10.144-8.88,18.608-19.008,20.032
		c-10.128,1.424-20.224-1.904-30.32-3.552c-11.312-1.84-22.944-1.584-34.16,0.784c-4.592,0.96-9.232,2.288-13.888,1.68
		c-8.096-1.072-14.16-7.6-20.496-12.752c-6.336-5.168-15.392-9.28-22.384-5.056c-1.792,7.744-0.352,16.176,3.904,22.896
		c1.872,2.96,4.368,6.048,3.808,9.488c-0.72,4.288-5.792,6.336-10.144,6.496s-8.944-0.672-12.896,1.152
		c-5.28,2.464-7.424,9.952-4.224,14.832l4.528,7.952c27.552,8.752,55.552,17.728,79.344,34.144
		c3.856,2.672,8.288,5.664,12.832,4.544c8.448-2.096,7.728-14.64,13.168-21.456c5.648-7.088,16.848-6.304,25.04-2.448
		c8.192,3.872,15.344,10.096,24.112,12.368c7.36,1.904,15.136,0.8,22.56-0.784c12.768-2.72,26.144-7.472,33.68-18.128
		C302.899,247.64,300.979,229.784,288.883,224.84z"/>
	<path style="fill:#7FB239;" d="M444.099,234.36c-5.056-3.184-11.168-4.512-15.888-8.16c-4.736-3.632-7.408-11.296-3.12-15.456
		c1.008-0.992,2.304-1.648,3.36-2.576c3.584-3.152,3.6-9.488,0.032-12.656c-4.16-3.696-10.528-2.496-16.032-1.664
		c-5.504,0.832-12.496,0.272-14.704-4.832c-2.512-5.776,3.76-11.872,9.92-13.168s12.784-0.064,18.72-2.208
		c7.36-2.656,12.304-10.8,11.264-18.56c-0.48-3.584-2.304-7.184-5.504-8.848c-3.936-2.048-8.704-0.736-12.928,0.624
		c-5.312,1.696-10.608,3.408-15.92,5.104c-5.328,1.712-11.008,3.44-16.448,2.08c-8.816-2.208-13.84-11.568-21.808-15.92
		c-9.232-5.056-20.592-2.608-30.784-0.048c-10.416,2.624-22.416,6.624-25.808,16.816c-1.632,4.896-3.28,12.368-8.304,11.12
		c-1.712-0.416-2.912-1.904-4.048-3.248c-5.888-6.896-14.496-12.4-23.52-11.424s-16.976,10.8-13.52,19.184l-2.256,4.112
		c8.752,6.224,21.888,4.272,29.632,11.712c3.584,3.44,5.344,8.32,8.224,12.368c5.104,7.12,13.984,11.36,22.736,10.848
		c8.752-0.528,17.056-5.792,21.28-13.472c2.624-4.784,4.448-11.04,9.696-12.528c2.192-0.624,4.528-0.192,6.768,0.24
		c10.368,1.984,22.288,5.136,26.496,14.832c1.072,2.464,1.536,5.2,2.96,7.472c1.152,1.824,2.832,3.216,4.496,4.592
		c13.536,11.152,27.056,22.304,40.592,33.456c3.04,2.512,6.24,5.088,10.096,5.952c3.856,0.848,8.528-0.624,9.984-4.304
		C451.459,241.528,448.019,236.84,444.099,234.36z"/>
	<path style="fill:#7FB239;" d="M341.795,81.448c-1.36-1.056-2.848-2.032-3.824-3.44c-1.92-2.784-1.44-6.496-1.728-9.856
		c-0.656-7.728-5.92-14.592-12.672-18.416s-14.784-4.848-22.512-4.256l-3.616,9.84c-4.672,3.488-11.088,3.248-16.624,5.088
		c-9.776,3.248-15.984,12.608-21.44,21.344c-1.856,2.96-3.744,6.688-2.032,9.744c1.872,3.36,6.592,3.36,10.432,3.28
		c6.096-0.128,12.224,0.672,18.08,2.336c2.4,0.688,4.8,1.536,6.864,2.944c2.912,2,4.96,4.992,7.312,7.632
		c10.304,11.568,27.664,16.256,42.384,11.456c2.672-0.864,5.312-2.08,7.216-4.144c2.576-2.8,3.44-6.816,3.424-10.608
		C353.043,95.576,348.771,86.856,341.795,81.448z"/>
	<path style="fill:#7FB239;" d="M398.931,77.016c-4.928-3.472-10.864-5.136-16.672-6.736c-4.432-1.232-8.88-2.448-13.312-3.68
		l-0.448,3.952c-3.728-1.552-8.304-0.864-11.408,1.712c-3.12,2.576-4.64,6.944-3.808,10.896c0.64,3.088,2.56,5.728,4.416,8.288
		c1.552,2.144,3.12,4.272,4.672,6.416c5.744,7.888,12.816,16.512,22.56,17.008c2.16,0.112,4.464-0.256,6.128-1.632
		c1.68-1.376,2.464-3.952,1.344-5.808c-0.672-1.104-1.92-1.856-2.288-3.104c-0.656-2.192,1.92-4.096,4.192-4.24
		c2.288-0.144,4.592,0.656,6.832,0.192c3.536-0.736,5.776-4.48,6.048-8.096C407.651,86.168,403.859,80.488,398.931,77.016z"/>
</g>
<g>
</g>
<g>
</g>
<g>
</g>
<g>
</g>
<g>
</g>
<g>
</g>
<g>
</g>
<g>
</g>
<g>
</g>
<g>
</g>
<g>
</g>
<g>
</g>
<g>
</g>
<g>
</g>
<g>
</g>
</svg>
