<svg height="512" viewBox="0 0 64 64" width="512" xmlns="http://www.w3.org/2000/svg"><g id="flat"><path d="m57.593 47.859-8.574-14.924 3.755 1.432 6.367 12.226a1 1 0 0 1 -.141 1.407 1 1 0 0 1 -1.407-.141z" fill="#d3843d"/><path d="m55.515 47.874-12.515-6.953.659-1.921 14.355 7.975z" fill="#d3843d"/><path d="m36.43 39.136-4.609-16.573 2.179.437 1.841 6.536z" fill="#d3843d"/><path d="m42.186 27.866-11.007-15.723.103-3.342 9.537 13.626z" fill="#d3843d"/><path d="m49 48-1.71 6-.29 1a6.881 6.881 0 0 1 -7 5h-27a4.114 4.114 0 0 1 -4-3l-.67-3-.44-2-.89-4z" fill="#ad6327"/><path d="m61 48-13.143 4 1.143-4 12-2z" fill="#f9bb4b"/><g fill="#66342e"><path d="m7.889 52h-4.889v-4h4z"/><path d="m12 48h4v4h-4z"/><path d="m21 48h4v4h-4z"/><path d="m30 48h4v4h-4z"/><path d="m39 48h4v4h-4z"/></g><path d="m47.86 52-.57 2h-38.96l-.44-2z" fill="#d3843d"/><path d="m27 55h2v2h-2z" fill="#f9bb4b"/><path d="m31 55h2v2h-2z" fill="#f9bb4b"/><path d="m23 55h2v2h-2z" fill="#f9bb4b"/><path d="m20 23h-12l2-6h8z" fill="#ffd782"/><path d="m19 13h-10l2-6h6z" fill="#ffd782"/><path d="m13 13h2v4h-2z" fill="#f9bb4b"/><path d="m13 4h2v3h-2z" fill="#f9bb4b"/><path d="m34 23h-12l2-6h8z" fill="#ceac9a"/><path d="m33 13h-10l2-6h6z" fill="#ceac9a"/><path d="m27 13h2v4h-2z" fill="#f9bb4b"/><path d="m27 4h2v3h-2z" fill="#f9bb4b"/><path d="m21 29.152-7-4-6.5 3.716-.5-1.868 6.5-3.868a1 1 0 0 1 .992 0l6.508 3.868z" fill="#d3843d"/><path d="m7 38h2v2h-2z" fill="#f4f4e6"/><path d="m8 34h2v2h-2z" fill="#f4f4e6"/><path d="m28 43h-12l5-16 7 2z" fill="#ceac9a"/><path d="m28 27v18a12.365 12.365 0 0 1 11-4z" fill="#ffd782"/><path d="m20 38h2v2h-2z" fill="#f4f4e6"/><path d="m21 34h2v2h-2z" fill="#f4f4e6"/><path d="m35.408 28 1.592 18s3-5 10-4z" fill="#ceac9a"/><path d="m40.819 22.427 1.181 16.573a11.507 11.507 0 0 1 10.774-4.633z" fill="#ffd782"/><path d="m27 23h2v25h-2z" fill="#f9bb4b"/><path d="m14 43h-11l4-16 7 2z" fill="#ffd782"/><path d="m13 23h2v25h-2z" fill="#f9bb4b"/></g></svg>